<svg width="10.000000" height="37.199997" viewBox="0 0 10 37.2" fill="none" xmlns="http://www.w3.org/2000/svg" xmlns:xlink="http://www.w3.org/1999/xlink">
	<desc>
			Created with Pixso.
	</desc>
	<path d="M7.83936 17.6606L7.98096 17.6289L8.48877 17.8511C8.05908 19.4795 7.27051 20.7197 6.25977 21.6694C7.10938 22.2993 8.12012 22.751 9.34082 23.0293C9.16992 23.1709 8.96973 23.481 8.86963 23.6689C7.60986 23.3491 6.56006 22.8511 5.69092 22.1602C4.77051 22.8804 3.70117 23.3809 2.58057 23.7202C2.49023 23.52 2.2998 23.21 2.16064 23.0488C3.22021 22.7705 4.24072 22.3091 5.11963 21.6499C4.24072 20.7905 3.60107 19.6992 3.14941 18.3809L2.48047 18.3809C2.46094 20.019 2.27051 22.27 1.23047 23.8008C1.08887 23.6592 0.769043 23.4395 0.59082 23.3589C1.63086 21.8403 1.73096 19.6895 1.73096 18.1294L1.73096 15.4805C3.9502 15.3706 6.58936 15.1289 8.02002 14.7212L8.62061 15.3096C7.02881 15.7612 4.62891 16.0103 2.48047 16.1104L2.48047 17.6606L7.83936 17.6606ZM5.68115 21.1812C6.47949 20.4512 7.12891 19.521 7.51953 18.3809L3.87939 18.3809C4.28955 19.4893 4.88037 20.4292 5.68115 21.1812ZM6.86035 28.209L6.86035 28.8608L9.57031 28.8608L9.57031 29.4492L3.7207 29.4492L3.7207 28.8608L6.1792 28.8608L6.1792 28.209L4.22119 28.209L4.22119 26.2998L6.1792 26.2998L6.1792 25.6406L6.86035 25.6406L6.86035 26.2998L8.89893 26.2998L8.89893 28.209L6.86035 28.209ZM2.5 29.1807C2.68066 28.8389 2.89062 28.3311 3.03955 27.8306L1.76025 27.8306C1.53076 28.6411 1.24023 29.3711 0.891113 29.9399C0.769043 29.8301 0.480957 29.6006 0.32959 29.5005C0.949707 28.5605 1.3208 27.1201 1.53076 25.6504L2.20947 25.7798C2.12891 26.2607 2.04102 26.7295 1.94092 27.1812L3.30078 27.1812L3.42041 27.1494L3.88916 27.3008C3.6499 28.0308 3.33984 28.8706 3.04932 29.3711L2.5 29.1807ZM4.85107 26.8296L4.85107 27.6792L6.1792 27.6792L6.1792 26.8296L4.85107 26.8296ZM8.24951 27.6792L8.24951 26.8296L6.86035 26.8296L6.86035 27.6792L8.24951 27.6792ZM2.36084 29.2002L2.36084 33.1699L3.41064 32.3789C3.45947 32.5791 3.55957 32.8306 3.63037 32.9697C1.91895 34.2905 1.66992 34.5005 1.53076 34.6909C1.4502 34.5493 1.25977 34.3003 1.13037 34.2002C1.3208 34.061 1.69922 33.6997 1.69922 33.1992L1.69922 29.2002L2.36084 29.2002ZM8.7793 29.9912L8.7793 33.0894L8.06885 33.0894L8.06885 30.5991L4.86084 30.5991L4.86084 33.0894L4.16992 33.0894L4.16992 29.9912L8.7793 29.9912ZM6.12061 31.0996L6.81885 31.0996L6.81885 32.0811C6.81885 33.1406 6.25977 34.1807 3.91113 34.791C3.8501 34.6299 3.64014 34.3296 3.52051 34.21C5.71045 33.6802 6.12061 32.8696 6.12061 32.0493L6.12061 31.0996ZM8.9502 34.7788C8.45947 34.4004 7.48047 33.8804 6.68945 33.5703L7.02881 33.0991C7.82959 33.3799 8.8208 33.8706 9.29932 34.249L8.9502 34.7788Z" fill="#20A53A"/>
	<path d="M4.53913 0C4.7799 0 4.90029 0.120384 4.90029 0.361153C4.90029 0.558594 4.74203 0.719322 4.54509 0.722305L1.2223 0.722305L1.2223 8.05644L8.55644 8.05644L8.55644 4.7664C8.55942 4.56945 8.72015 4.4112 8.91759 4.4112C9.11504 4.4112 9.27577 4.56945 9.27874 4.7664L9.27874 8.06686C9.27874 8.45976 8.96026 8.77825 8.56736 8.77825L1.21139 8.77825C0.818487 8.77875 0.5 8.46026 0.5 8.06736L0.5 0.711388C0.5 0.318489 0.818487 0 1.21139 0L4.53913 0ZM7.21056 0.463844C7.73443 -0.0600281 8.58323 -0.0600281 9.1071 0.463844C9.63097 0.987709 9.63097 1.83651 9.1071 2.36038L5.37057 6.0969C5.33188 6.1356 5.28525 6.16437 5.23366 6.18173L3.13174 6.88221C2.8579 6.97349 2.59745 6.71304 2.68873 6.4392L3.38921 4.33728C3.40657 4.28569 3.43534 4.23906 3.47404 4.20036L7.21056 0.463844ZM8.61201 0.958939C8.36198 0.708908 7.95618 0.708908 7.70615 0.958939L4.02817 4.63692L3.57524 5.9957L4.93402 5.54277L8.61201 1.86479C8.85955 1.61724 8.85459 1.20995 8.61201 0.958939Z" fill-rule="evenodd" fill="#20A53A"/>
	<defs/>
</svg>
