<svg width="10.000000" height="36.000000" viewBox="0 0 10 36" fill="none" xmlns="http://www.w3.org/2000/svg" xmlns:xlink="http://www.w3.org/1999/xlink">
	<desc>
			Created with Pixso.
	</desc>
	<path id="path" d="M4.63515 0C4.88101 0 5.00395 0.120384 5.00395 0.361153C5.00395 0.558594 4.84234 0.719322 4.64124 0.722305L1.24816 0.722305L1.24816 8.05644L8.73744 8.05644L8.73744 4.7664C8.74048 4.56945 8.90461 4.4112 9.10623 4.4112C9.30785 4.4112 9.47198 4.56945 9.47502 4.7664L9.47502 8.06686C9.47502 8.45976 9.1498 8.77825 8.74859 8.77825L1.23701 8.77825C0.8358 8.77875 0.510578 8.46026 0.510578 8.06736L0.510578 0.711388C0.510578 0.318489 0.8358 0 1.23701 0L4.63515 0ZM7.36309 0.463844C7.89804 -0.0600281 8.76479 -0.0600281 9.29974 0.463844C9.8347 0.987709 9.8347 1.83651 9.29974 2.36038L5.48418 6.0969C5.44467 6.1356 5.39705 6.16437 5.34437 6.18173L3.19799 6.88221C2.91835 6.97349 2.6524 6.71304 2.74561 6.4392L3.4609 4.33728C3.47863 4.28569 3.50801 4.23906 3.54753 4.20036L7.36309 0.463844ZM8.79418 0.958939C8.53886 0.708908 8.12448 0.708908 7.86916 0.958939L4.11338 4.63692L3.65087 5.9957L5.03839 5.54277L8.79418 1.86479C9.04696 1.61724 9.04189 1.20995 8.79418 0.958939Z" fill-rule="evenodd" fill="#20A53A"/>
	<path id="矢量 5" d="M3.17902 17.4983C2.8624 17.0856 2.17681 16.4519 1.63582 16L1.14718 16.4618C1.68817 16.9358 2.36129 17.599 2.66794 18.0313L3.17902 17.4983ZM9.88781 20.5759L7.03826 20.5759L7.03826 16.8941L9.43906 16.8941L9.43906 16.1818L3.78981 16.1818L3.78981 16.8941L6.28286 16.8941L6.28286 20.5759L3.5056 20.5759L3.5056 21.2907L6.28286 21.2907L6.28286 24.8522L7.03826 24.8522L7.03826 21.2907L9.88781 21.2907L9.88781 20.5759ZM8.44683 20.1338C8.71359 19.5001 9.0302 18.4636 9.2845 17.6186L8.5291 17.4393C8.387 18.1934 8.1003 19.2987 7.84601 19.9742L8.44683 20.1338ZM4.13884 17.6186C4.41307 18.4046 4.64991 19.4191 4.70975 20.0945L5.39534 19.9128C5.32304 19.2398 5.07872 18.2327 4.78205 17.4492L4.13884 17.6186ZM2.7178 23.0911L2.7178 18.8075L2.00479 18.8075L2.00479 18.8173L0.606186 18.8173L0.606186 19.532L2.00479 19.532L2.00479 23.2237C2.00479 23.656 1.71809 23.9164 1.5336 24.0171C1.66573 24.1792 1.84025 24.4813 1.90257 24.6508C2.04468 24.4617 2.31143 24.2603 3.9743 22.9929C3.90449 22.8504 3.76987 22.5581 3.71003 22.369L2.7178 23.0911ZM2.77016 30.4858C4.57762 29.4812 5.69949 27.9829 6.21056 26.713L7.01831 26.8555C6.94601 26.9955 6.87371 27.1576 6.80391 27.3074C7.52939 28.5159 8.8158 29.7317 10 30.3458C9.82549 30.476 9.58117 30.7486 9.46898 30.9304C8.387 30.3065 7.22274 29.1693 6.43494 27.9706C5.7319 29.1078 4.6898 30.2254 3.23885 31.0704C3.14661 30.8886 2.92223 30.6184 2.77016 30.4858ZM0.553833 30.7388C1.49371 29.7637 2.3613 28.2629 2.88234 26.745L3.59785 26.9562C3.33109 27.6906 2.98456 28.4348 2.60561 29.13L2.60561 35.9189L1.86019 35.9189L1.86019 30.3556C1.58596 30.7683 1.28928 31.1416 0.992611 31.4634C0.900368 31.2914 0.675991 30.8984 0.553833 30.7388ZM8.26484 35.8993L7.49698 35.8993L7.49698 30.6184L8.26484 30.6184L8.26484 35.8993ZM3.03442 35.4768C4.50532 34.4698 4.6175 32.942 4.6175 31.9964L4.6175 30.6381L5.3729 30.6381L5.3729 32.0062C5.3729 33.1631 5.18093 34.8136 3.58788 36C3.46322 35.8281 3.22888 35.5972 3.03442 35.4768Z" fill-rule="evenodd" fill="#20A53A"/>
	<defs/>
</svg>
