<?xml version="1.0" standalone="no"?><!DOCTYPE svg PUBLIC "-//W3C//DTD SVG 1.1//EN" "http://www.w3.org/Graphics/SVG/1.1/DTD/svg11.dtd"><svg t="1662002466558" class="icon" viewBox="0 0 1245 1024" version="1.1" xmlns="http://www.w3.org/2000/svg" p-id="38362" xmlns:xlink="http://www.w3.org/1999/xlink" width="145.8984375" height="120"><path d="M 1160.64 251.011 h -39.4221 V 150.996 a 36.5019 36.5019 0 0 0 -36.5019 -36.5019 H 465.642 l -43.8022 -65.7034 A 36.5019 36.5019 0 0 0 391.179 32 H 68.502 a 36.5019 36.5019 0 0 0 -36.5019 36.5019 v 886.996 a 36.5019 36.5019 0 0 0 36.5019 36.5019 h 1095.06 a 36.5019 36.5019 0 0 0 36.5019 -36.5019 V 287.514 a 36.5019 36.5019 0 0 0 -39.4221 -36.5019 Z m -112.426 -63.5133 V 251.011 H 556.167 l -42.3422 -63.5133 Z m 73.0038 730.038 H 105.004 V 105.004 h 266.464 L 506.525 307.954 a 36.5019 36.5019 0 0 0 30.6616 16.0609 h 584.031 Z" fill="#999999" p-id="38363"></path></svg>