<?xml version="1.0" standalone="no"?><!DOCTYPE svg PUBLIC "-//W3C//DTD SVG 1.1//EN" "http://www.w3.org/Graphics/SVG/1.1/DTD/svg11.dtd"><svg t="1662002597917" class="icon" viewBox="0 0 1024 1024" version="1.1" xmlns="http://www.w3.org/2000/svg" p-id="40338" xmlns:xlink="http://www.w3.org/1999/xlink" width="120" height="120"><path d="M736.1792 456.704c-19.92704-11.52512-44.48256-11.52512-64.40448 0s-32.19968 32.82432-32.19968 55.87456 12.27264 44.34944 32.19968 55.86944c19.92704 11.52512 44.48256 11.52512 64.40448 0 19.93216-11.52 32.19968-32.8192 32.19968-55.86944S756.11136 468.22912 736.1792 456.704z" p-id="40339" fill="#999999"></path><path d="M997.71904 357.7088c-10.9312-34.4064-25.1904-67.37408-43.18208-98.6624-12.16512-21.15584-40.35072-22.93248-54.0416-3.39968-8.56064 12.20096-7.19872 24.61184-0.19968 37.36064 59.61216 108.55424 74.09152 223.05792 40.13056 342.07744-68.73088 240.91648-318.67904 377.15456-558.4128 305.82784-175.66208-52.25472-303.3344-211.02592-316.88192-394.368-5.53984-74.97728 6.90688-146.90816 36.8896-215.91552 82.54976-189.9776 293.2224-299.58656 495.7696-257.8176 46.5664 9.6 90.61888 25.79968 131.99872 49.2544 7.08608 4.00896 14.40768 6.69184 22.68672 5.41184 13.91104-2.15552 24.73472-12.30336 27.22816-25.43104 2.7392-14.39232-3.70176-27.47392-17.72544-35.25632C647.23456 3.03616 525.46048-15.55456 397.50656 13.0816 165.39136 65.02912 0.05632 273.18272 0 511.65184c-0.00512 38.14912 4.0192 75.87328 12.42112 113.06496 65.00864 287.8208 359.52128 461.42976 642.048 378.55232 199.6288-58.56256 343.83872-232.51456 364.79488-440.70912C1026.2784 492.88704 1018.94144 424.51456 997.71904 357.7088z" p-id="40340" fill="#999999"></path><path d="M478.62784 456.704c-19.92704 11.52512-32.2048 32.82432-32.2048 55.87456 0 35.63008 28.83584 64.51712 64.40448 64.51712s64.40448-28.88704 64.40448-64.51712c0-23.05024-12.27264-44.34944-32.2048-55.87456C523.10528 445.17888 498.55488 445.17888 478.62784 456.704z" p-id="40341" fill="#999999"></path><path d="M285.60896 456.704c-19.92704 11.52512-32.2048 32.82432-32.2048 55.87456s12.27264 44.34944 32.2048 55.86944c19.92704 11.52512 44.47744 11.52512 64.40448 0 19.92704-11.52 32.19968-32.8192 32.19968-55.86944s-12.27264-44.34944-32.19968-55.87456C330.0864 445.17888 305.53088 445.17888 285.60896 456.704z" p-id="40342" fill="#999999"></path></svg>