<?xml version="1.0" standalone="no"?><!DOCTYPE svg PUBLIC "-//W3C//DTD SVG 1.1//EN" "http://www.w3.org/Graphics/SVG/1.1/DTD/svg11.dtd"><svg t="1662003950383" class="icon" viewBox="0 0 1024 1024" version="1.1" xmlns="http://www.w3.org/2000/svg" p-id="43318" xmlns:xlink="http://www.w3.org/1999/xlink" width="120" height="120"><path d="M457.728 692.48a21.824 21.824 0 0 1-12.928-9.728 21.952 21.952 0 0 1-2.24-15.936l100.864-401.408a20.928 20.928 0 0 1 20.544-15.936c16.512 3.584 23.232 14.656 20.544 26.112L483.648 675.2a20.928 20.928 0 0 1-20.544 16l-5.376 1.28z m-101.76-47.36a21.504 21.504 0 0 1-15.168-6.208L190.72 485.824a20.672 20.672 0 0 1 0-29.184l150.016-153.152a21.12 21.12 0 0 1 30.784 0 21.568 21.568 0 0 1 0 30.976L261.76 445.12a38.336 38.336 0 0 0 0 53.12l111.168 110.144a21.568 21.568 0 0 1 0 28.8 24.64 24.64 0 0 1-16.96 7.936z m315.136 0a21.504 21.504 0 0 1-16-7.04 21.568 21.568 0 0 1 0-30.976l109.76-108.864a35.2 35.2 0 0 0 0-51.392l-110.72-111.488a20.672 20.672 0 0 1 0-28.8 23.68 23.68 0 0 1 17.92-9.28c5.632 0 11.072 2.24 15.104 6.208l150.016 153.152a21.12 21.12 0 0 1 0 29.184l-149.568 153.088a21.504 21.504 0 0 1-16.512 6.208zM64 128h896v704H64V128z m64 64v576h768V192H128z m64 704h640v64H192v-64z" p-id="43319" fill="#999999"></path></svg>