<?xml version="1.0" standalone="no"?><!DOCTYPE svg PUBLIC "-//W3C//DTD SVG 1.1//EN" "http://www.w3.org/Graphics/SVG/1.1/DTD/svg11.dtd"><svg t="1662002433894" class="icon" viewBox="0 0 1024 1024" version="1.1" xmlns="http://www.w3.org/2000/svg" p-id="38145" xmlns:xlink="http://www.w3.org/1999/xlink" width="120" height="120"><path d="M398.222222 113.777778l0 284.444444L113.777778 398.222222 113.777778 113.777778 398.222222 113.777778M398.222222 56.888889 113.777778 56.888889C82.488889 56.888889 56.888889 82.488889 56.888889 113.777778l0 284.444444c0 31.288889 25.6 56.888889 56.888889 56.888889l284.444444 0c31.288889 0 56.888889-25.6 56.888889-56.888889L455.111111 113.777778C455.111111 82.488889 429.511111 56.888889 398.222222 56.888889L398.222222 56.888889zM398.222222 625.777778l0 284.444444L113.777778 910.222222l0-284.444444L398.222222 625.777778M398.222222 568.888889 113.777778 568.888889c-31.288889 0-56.888889 25.6-56.888889 56.888889l0 284.444444c0 31.288889 25.6 56.888889 56.888889 56.888889l284.444444 0c31.288889 0 56.888889-25.6 56.888889-56.888889l0-284.444444C455.111111 594.488889 429.511111 568.888889 398.222222 568.888889L398.222222 568.888889zM910.222222 113.777778l0 284.444444-284.444444 0L625.777778 113.777778 910.222222 113.777778M910.222222 56.888889l-284.444444 0c-31.288889 0-56.888889 25.6-56.888889 56.888889l0 284.444444c0 31.288889 25.6 56.888889 56.888889 56.888889l284.444444 0c31.288889 0 56.888889-25.6 56.888889-56.888889L967.111111 113.777778C967.111111 82.488889 941.511111 56.888889 910.222222 56.888889L910.222222 56.888889zM910.222222 625.777778l0 284.444444-284.444444 0 0-284.444444L910.222222 625.777778M910.222222 568.888889l-284.444444 0c-31.288889 0-56.888889 25.6-56.888889 56.888889l0 284.444444c0 31.288889 25.6 56.888889 56.888889 56.888889l284.444444 0c31.288889 0 56.888889-25.6 56.888889-56.888889l0-284.444444C967.111111 594.488889 941.511111 568.888889 910.222222 568.888889L910.222222 568.888889z" p-id="38146" fill="#999999"></path></svg>