<svg width="22.200684" height="18.341492" viewBox="0 0 22.2007 18.3415" fill="none" xmlns="http://www.w3.org/2000/svg" xmlns:xlink="http://www.w3.org/1999/xlink">
	<desc>
			Created with Pixso.
	</desc>
	<g id="组合 1114">
		<g id="组合 463">
			<g id="path">
				<path d="M7.17188 6.30005L11.0684 18.3415L14.9648 6.30005L7.17188 6.30005Z" fill-rule="evenodd" fill="#FEAA04"/>
			</g>
			<g id="path">
				<path d="M7.99365 0L3.50537 0L0 5.04077L5.71094 5.04077L7.99365 0Z" fill-rule="evenodd" fill="#FEAA04"/>
			</g>
			<g id="path">
				<path d="M14.8872 5.0401L12.604 0L9.5293 0L7.24658 5.04077L14.8872 5.0401Z" fill-rule="evenodd" fill="#FEAA04"/>
			</g>
			<g id="path">
				<path d="M0.32373 6.30109L4.18945 10.6341C4.19873 10.6303 9.22168 16.2748 9.22168 16.2748L5.67139 6.30109L0.32373 6.30109Z" fill-rule="evenodd" fill="#FEAA04"/>
			</g>
			<g id="path">
				<path d="M14.1401 0L16.4233 5.0401L22.2007 5.04077L18.6289 0L14.1401 0Z" fill-rule="evenodd" fill="#FEAA04"/>
			</g>
			<g id="path">
				<path d="M12.998 16.1917L19.7148 8.71088C19.7026 8.70563 21.8687 6.30109 21.8687 6.30109L16.4624 6.30109L12.998 16.1917Z" fill-rule="evenodd" fill="#FEAA04"/>
			</g>
		</g>
	</g>
	<defs/>
</svg>
