<svg width="68.000000" height="62.000000" viewBox="0 0 68 62" fill="none" xmlns="http://www.w3.org/2000/svg" xmlns:xlink="http://www.w3.org/1999/xlink">
	<desc>
			Created with Pixso.
	</desc>
	<g id="组合 1115">
		<g id="组合 1113">
			<g id="矢量 893" filter="url(#filter_16_45_dd)">
				<path d="M28.9243 0L64 0L4 54L4 22.3043L28.9243 0Z" fill-rule="evenodd" fill="#D7262E"/>
			</g>
			<g id="矢量 894">
				<path d="M34.666 5.60455L35.5835 6.73267L28.4961 13.607C28.6812 14.6917 28.77 15.7692 28.7876 16.8502L33.397 22.5175L32.2563 23.6237L28.6616 19.204C28.5747 20.0659 28.4038 20.9145 28.2139 21.7336C27.8452 21.6284 27.0269 21.4724 26.5801 21.4666C27.2271 19.3845 27.4038 17.1417 27.1592 14.9037L24.292 17.6848L23.3745 16.5567L26.8784 13.158C26.8032 12.8631 26.7271 12.5746 26.6411 12.2665L25.5889 13.2868L24.7495 12.2549L21.9458 14.9745L21.0391 13.8596L23.8428 11.14L23.0928 10.2175L24.2744 9.07135L25.0249 9.99377L28.5796 6.54584L27.8159 5.60681L28.9849 4.4729L29.7485 5.41193L32.5239 2.71997L33.4307 3.83484L30.6553 6.52679L31.4839 7.54547L30.3149 8.67938L29.4863 7.66071L25.9316 11.1086L26.5171 11.8287L26.3809 11.4031L27.7749 10.6087C27.9224 11.0475 28.0352 11.4722 28.1616 11.9134L34.666 5.60455ZM27.4316 24.6531L24.8745 27.133L23.5713 25.5304L25.6719 23.493L24.7651 22.3781L22.6646 24.4155L21.4043 22.866L23.5176 20.8163L22.6104 19.7014L20.4976 21.751L19.2588 20.2281L21.5557 18.0001L20.6167 16.8455L18.0059 19.3776L18.4844 18.3078C17.8975 17.9275 16.855 17.5024 15.9922 17.2709L15.3062 18.7135C16.0967 18.9677 17.0317 19.3786 17.6162 19.7556L15.4111 21.8943C15.167 20.9675 14.8594 20.0731 14.5386 19.1911L13.1284 20.0008C14.1592 22.5505 14.7632 25.4669 14.627 27.8364C14.895 27.7963 15.3135 27.8234 15.6851 27.855L14.8706 29.2505L12.9033 26.8316L14.291 25.4857L13.3408 24.3177L11.9531 25.6636L9.85352 23.0822L8.7002 24.2007L10.7998 26.7822L9.24121 28.2941L10.1909 29.4621L11.75 27.9502L14.0059 30.7241C13.5122 31.5176 13.085 32.2466 12.7158 32.8242L13.9844 33.7843C14.3169 33.2181 14.6611 32.617 15.0234 31.975L17.6089 35.1537C17.7627 35.3429 17.7417 35.4639 17.5742 35.6267C17.4424 35.7783 16.9478 36.2576 16.4194 36.7228C16.8765 36.9086 17.4727 37.3277 17.7749 37.616C18.5923 36.8232 19.0923 36.2671 19.2812 35.6981C19.4624 35.1543 19.2935 34.6888 18.7729 34.0485L15.8662 30.4749L16.8896 28.681L15.9727 27.8669L16.2476 27.8913C16.2632 27.1932 16.2222 26.4318 16.1343 25.6685L22.3252 33.2802L23.4814 32.1585L22.75 31.2593L28.3706 25.8078L27.4316 24.6531ZM19.3789 22.8358L17.4336 24.7227L16.1948 23.1996L18.1401 21.3128L19.3789 22.8358ZM35.5312 13.295L38.7373 10.1852L39.6118 11.2603L36.4058 14.3701L37.7549 16.0292C38.23 16.6132 38.3716 17.0101 38.0835 17.6039C37.7881 18.1813 37.1777 18.7969 36.2559 19.6912C35.9248 19.4305 35.3926 19.1454 34.9946 18.9974C35.6782 18.3817 36.3403 17.7394 36.4976 17.5633C36.6802 17.3625 36.7124 17.2838 36.5664 17.1046L35.2524 15.4886L31.8115 18.8259L30.937 17.7509L34.3779 14.4136L33.7168 13.6007C33.981 12.929 34.2324 12.1509 34.3945 11.3821L30.542 15.1188L29.7349 14.1267L34.7441 9.26831L34.9087 8.98987L36.1182 8.909C35.9839 10.1375 35.6484 11.5787 35.1885 12.8737L35.5312 13.295ZM21.5459 25.5002L19.6006 27.3871L18.3403 25.8375L20.2856 23.9507L21.5459 25.5002ZM20.5073 28.502L22.4526 26.6151L23.7563 28.2178L21.811 30.1046L20.5073 28.502Z" fill-rule="evenodd" fill="#FFFFFF"/>
			</g>
		</g>
	</g>
	<defs>
		<filter id="filter_16_45_dd" x="0.000000" y="0.000000" width="68.000000" height="62.000000" filterUnits="userSpaceOnUse" color-interpolation-filters="sRGB">
			<feFlood flood-opacity="0" result="BackgroundImageFix"/>
			<feColorMatrix in="SourceAlpha" type="matrix" values="0 0 0 0 0 0 0 0 0 0 0 0 0 0 0 0 0 0 127 0"/>
			<feOffset dx="0" dy="4"/>
			<feGaussianBlur stdDeviation="1.33333"/>
			<feColorMatrix type="matrix" values="0 0 0 0 0 0 0 0 0 0 0 0 0 0 0 0 0 0 0.25 0"/>
			<feBlend mode="normal" in2="BackgroundImageFix" result="effect_dropShadow_1"/>
			<feBlend mode="normal" in="SourceGraphic" in2="effect_dropShadow_1" result="shape"/>
		</filter>
	</defs>
</svg>
