<?xml version="1.0" encoding="utf-8"?>
<!-- Generator: Adobe Illustrator 25.2.0, SVG Export Plug-In . SVG Version: 6.00 Build 0)  -->
<svg version="1.1" id="图层_1" xmlns="http://www.w3.org/2000/svg" xmlns:xlink="http://www.w3.org/1999/xlink" x="0px" y="0px"
	 viewBox="0 0 128 128" style="enable-background:new 0 0 128 128;" xml:space="preserve">
<style type="text/css">
	.st0{fill:#888888;}
</style>
<g>
	<path class="st0" d="M36.8,46.8h20.6c1.9,0,3.4-1.5,3.4-3.4c0-1.9-1.5-3.4-3.4-3.4H36.8c-1.9,0-3.4,1.5-3.4,3.4
		C33.4,45.3,34.9,46.8,36.8,46.8z"/>
	<path class="st0" d="M88.4,105.2H30.1c-1.9,0-3.4-1.5-3.4-3.4V26.3c0-1.9,1.5-3.4,3.4-3.4h41.2V40c0,3.8,3.1,6.9,6.9,6.9h17.2V64
		c0,1.9,1.5,3.4,3.4,3.4c1.9,0,3.4-1.5,3.4-3.4V38.1c0-0.9-0.4-1.8-1-2.4L82.6,17c-0.6-0.6-1.5-1-2.4-1H26.6c-3.8,0-6.9,3.1-6.9,6.9
		v82.3c0,3.8,3.1,6.9,6.9,6.9h61.8c1.9,0,3.4-1.5,3.4-3.4S90.3,105.2,88.4,105.2z M78.1,22.8L95.3,40H81.5c-1.9,0-3.4-1.5-3.4-3.4
		V22.8z"/>
	<path class="st0" d="M36.8,81.2c-1.9,0-3.4,1.5-3.4,3.4c0,1.9,1.5,3.4,3.4,3.4h34.4c1.9,0,3.4-1.5,3.4-3.4c0-1.9-1.5-3.4-3.4-3.4
		H36.8z M81.4,64c0-1.9-1.5-3.4-3.4-3.4H36.8c-1.9,0-3.4,1.5-3.4,3.4c0,1.9,1.5,3.4,3.4,3.4H78C79.9,67.4,81.4,65.9,81.4,64z
		 M102.2,101.8c-2,0-3.6-1.5-3.9-3.4l-2.2-17.2c-0.5-3.6,2.4-6.8,6-6.8c3.6,0,6.5,3.2,6,6.8L106,98.4
		C105.8,100.4,104.1,101.8,102.2,101.8z"/>
	<path class="st0" d="M98.7,108.5c0,1.9,1.5,3.4,3.4,3.4c1.9,0,3.4-1.5,3.4-3.4c0-1.9-1.5-3.4-3.4-3.4
		C100.3,105.1,98.7,106.6,98.7,108.5z"/>
</g>
</svg>
