<?xml version="1.0" encoding="utf-8"?>
<!-- Generator: Adobe Illustrator 25.2.0, SVG Export Plug-In . SVG Version: 6.00 Build 0)  -->
<svg version="1.1" id="图层_1" xmlns="http://www.w3.org/2000/svg" xmlns:xlink="http://www.w3.org/1999/xlink" x="0px" y="0px"
	 viewBox="0 0 128 128" style="enable-background:new 0 0 128 128;" xml:space="preserve">
<style type="text/css">
	.st0{fill:#888888;}
</style>
<g>
	<path class="st0" d="M105.5,17.1c2,0,3.7,1.6,3.7,3.7v42c0,0.5-0.4,0.9-0.9,0.9h-6.5c-0.5,0-0.9-0.4-0.9-0.9V48.7H24.4v53.6l41.2,0
		c0.5,0,0.9,0.4,0.9,0.9v6.2c0,0.5-0.4,0.9-0.9,0.9H19.8c-2,0-3.7-1.6-3.7-3.7V20.8c0-2,1.6-3.7,3.7-3.7H105.5z M100.8,25.1H24.4v16
		h76.4V25.1z"/>
	<path class="st0" d="M31.1,33c0,1.6,0.9,3.1,2.3,3.9c1.4,0.8,3.2,0.8,4.6,0c1.4-0.8,2.3-2.3,2.3-3.9c0-2.5-2-4.5-4.6-4.5
		S31.1,30.5,31.1,33z M44.7,33c0,1.6,0.9,3.1,2.3,3.9c1.4,0.8,3.2,0.8,4.6,0s2.3-2.3,2.3-3.9c0-2.5-2-4.5-4.6-4.5
		C46.7,28.5,44.7,30.5,44.7,33z M58.3,33c0,1.6,0.9,3.1,2.3,3.9c1.4,0.8,3.2,0.8,4.6,0c1.4-0.8,2.3-2.3,2.3-3.9c0-2.5-2-4.5-4.6-4.5
		C60.4,28.5,58.3,30.5,58.3,33z"/>
	<path class="st0" d="M95.7,64.8c0.6,0.3,1.1,0.9,1.2,1.5l0.2,1.3c0.3,1.5,0.4,2.2,0.5,2.5l0.1,0.1c0.8,1,4.2,4.8,13.9,16
		c0.6,0.7,0.5,0.7,0,1.5l-4.8,7.2c-0.5,0.8-0.2,0.7-1.1,0.5l-11.4-3c-0.4-0.1-0.6-0.1-0.7,0l0,0c-0.1,0.1-0.4,0.5-0.6,1.4l-0.1,0.2
		l0,0c0.2,0.1,0.9,0.5,1.5,0.9l0.9,0.5c3.5,2,8.9,5.3,8.8,15.3h-3.2v0H79.7c-0.2,0-0.2-0.1-0.2-0.3v-3.6c0-0.2-0.1-0.3,0.2-0.3h19.7
		c-1-4.3-3.3-6.4-5.7-7.7c-1.6-0.9-1.8-1-0.6-0.4c-2.9-1.7-4.7-3-4.3-5.7c0.4-1.8,1.3-3.2,2.5-4c0.8-0.5,2-0.5,4,0l9.4,2.1l2.1-3.4
		l-1.1-1.3c-11.2-13.1-11.8-13.9-12-14.5l0-0.1c-0.1-0.2-0.1-0.4-0.3-1.4c-13.3,9.2-19.5,22.5-19,40.4l-4.2,0.1c0-0.1,0-0.3,0-0.4
		C69.5,90.2,77.5,74.9,93.7,65C94.3,64.6,95,64.5,95.7,64.8L95.7,64.8z"/>
	<path class="st0" d="M90.6,81.2c0,1.4,1.1,2.5,2.5,2.5c1.4,0,2.5-1.1,2.5-2.5c0-1.4-1.1-2.5-2.5-2.5C91.8,78.7,90.6,79.9,90.6,81.2
		z"/>
</g>
</svg>
