<?xml version="1.0" encoding="utf-8"?>
<!-- Generator: Adobe Illustrator 25.2.0, SVG Export Plug-In . SVG Version: 6.00 Build 0)  -->
<svg version="1.1" id="图层_1" xmlns="http://www.w3.org/2000/svg" xmlns:xlink="http://www.w3.org/1999/xlink" x="0px" y="0px"
	 viewBox="0 0 128 128" style="enable-background:new 0 0 128 128;" xml:space="preserve">
<style type="text/css">
	.st0{fill:#888888;}
</style>
<g>
	<path class="st0" d="M76.6,112H25.4c-5.2,0-9.4-4.2-9.4-9.4V40.2c0-5.2,4.2-9.4,9.4-9.4h51.2c5.2,0,9.4,4.2,9.4,9.4v2.9
		c0,2.1-1.7,3.7-3.7,3.7s-3.7-1.7-3.7-3.7v-2.9c0-1-0.8-1.9-1.9-1.9H25.4c-1,0-1.9,0.8-1.9,1.9v62.4c0,1,0.8,1.9,1.9,1.9h51.2
		c1,0,1.9-0.8,1.9-1.9V82.8c0-2.1,1.7-3.7,3.7-3.7s3.7,1.7,3.7,3.7v19.8C85.9,107.8,81.7,112,76.6,112z"/>
	<path class="st0" d="M102.6,97.2H91.6c-2.1,0-3.7-1.7-3.7-3.7c0-2.1,1.7-3.7,3.7-3.7h11.1c1,0,1.9-0.8,1.9-1.9V25.4
		c0-1-0.8-1.9-1.9-1.9H51.4c-1,0-1.9,0.8-1.9,1.9v0.7c0,2.1-1.7,3.7-3.7,3.7s-3.7-1.7-3.7-3.7v-0.7c0-5.2,4.2-9.4,9.4-9.4h51.2
		c5.2,0,9.4,4.2,9.4,9.4v62.4C112,93,107.8,97.2,102.6,97.2z"/>
	<path class="st0" d="M60,99.1c-0.9,0-1.8-0.3-2.5-0.9L30.3,73.9c-1.5-1.4-1.6-3.8-0.2-5.3c0.1-0.1,0.2-0.2,0.3-0.3l27.2-23.2
		c1.6-1.3,3.9-1.2,5.3,0.4c0.6,0.7,0.9,1.5,0.9,2.4v12c8.8-0.9,16.9-5.2,22.6-12l8.8-10.4c1.3-1.6,3.6-1.9,5.3-0.6
		c1.2,0.9,1.7,2.4,1.3,3.9L99.3,51c-3.9,17-18.2,29.5-35.5,31.1v13.3C63.7,97.5,62,99.1,60,99.1z M38.5,71.2l17.7,15.8v-8.5
		c0-2.1,1.7-3.7,3.7-3.7c13.5,0,25.2-8,30.3-20.1C82.3,62.9,71.4,67.6,60,67.6c-2.1,0-3.7-1.7-3.7-3.7V56L38.5,71.2z"/>
</g>
</svg>
