<?xml version="1.0" encoding="utf-8"?>
<!-- Generator: Adobe Illustrator 25.2.0, SVG Export Plug-In . SVG Version: 6.00 Build 0)  -->
<svg version="1.1" id="图层_1" xmlns="http://www.w3.org/2000/svg" xmlns:xlink="http://www.w3.org/1999/xlink" x="0px" y="0px"
	 viewBox="0 0 128 128" style="enable-background:new 0 0 128 128;" xml:space="preserve">
<style type="text/css">
	.st0{fill:#888888;}
</style>
<path class="st0" d="M65.6,19.6l0.5,0.3l44.8,38.4c1.3,1.1,1.5,3.2,0.4,4.5c-1,1.2-2.7,1.5-4.1,0.7l-0.5-0.3l-1.1-1v36.9
	c0,4.9-3.8,9.1-8.7,9.6l-0.9,0H32c-4.9,0-9.1-3.8-9.6-8.7l0-0.9V62.3l-1.1,1c-1.2,1-2.9,1-4.1,0.1l-0.4-0.4c-1-1.2-1-2.9-0.1-4.1
	l0.4-0.4L61.9,20C63,19.1,64.4,18.9,65.6,19.6z M64,26.6L28.8,56.8l0,0.3v42.1c0,1.5,1.1,2.9,2.6,3.1l0.6,0.1h17.1
	c0.8,0,1.5-0.5,1.7-1.3l0.1-0.5V80.7c0-4.2,3.1-7.7,7.3-8.1l0.9-0.1h10c4.2,0,7.7,3.1,8.1,7.3l0.1,0.9v19.9c0,0.8,0.5,1.5,1.3,1.7
	l0.5,0.1H96c1.5,0,2.9-1.1,3.1-2.6l0.1-0.6V57.1l0-0.3L64,26.6z M69,78.9H59c-0.8,0-1.5,0.5-1.7,1.3l-0.1,0.5v19.9
	c0,0.6-0.1,1.2-0.2,1.8h13.9c-0.1-0.3-0.1-0.6-0.1-0.9l-0.1-0.9V80.7c0-0.8-0.5-1.5-1.3-1.7L69,78.9z"/>
</svg>
