<?xml version="1.0" encoding="utf-8"?>
<!-- Generator: Adobe Illustrator 25.2.0, SVG Export Plug-In . SVG Version: 6.00 Build 0)  -->
<svg version="1.1" id="图层_1" xmlns="http://www.w3.org/2000/svg" xmlns:xlink="http://www.w3.org/1999/xlink" x="0px" y="0px"
	 viewBox="0 0 128 128" style="enable-background:new 0 0 128 128;" xml:space="preserve">
<style type="text/css">
	.st0{fill:#20A53A;}
</style>
<path class="st0" d="M95.6,28.4l-32.2-6c-0.4-0.1-0.7-0.1-1.1,0l-32.4,6c-1.4,0.3-2.4,1.5-2.4,2.9v38.2c0,6,1.9,11.6,5.6,16.7
	c2.9,3.9,6.9,7.5,11.9,10.7c8.4,5.3,16.7,7.5,17,7.6c0.5,0.1,1,0.1,1.5,0c0.3-0.1,8.6-2.4,16.9-7.7c5-3.2,9-6.8,11.9-10.7
	C96.1,81,98,75.4,98,69.4V31.2C98,29.8,97,28.6,95.6,28.4z M92.1,69.4c0,8.6-4.9,16.1-14.6,22.3c-6.2,4-12.5,6.1-14.7,6.8
	c-4.7-1.4-29.4-10-29.4-29.1V33.7l29.4-5.4l29.3,5.4V69.4z"/>
<path class="st0" d="M63.9,49.5H49.2c-0.7,0-1.3-0.6-1.3-1.3c0-0.7,0.6-1.3,1.3-1.3h14.7c0.7,0,1.3,0.6,1.3,1.3
	C65.1,48.9,64.6,49.5,63.9,49.5z M56.5,71.3h-7.3c-0.7,0-1.3-0.6-1.3-1.3c0-0.7,0.6-1.3,1.3-1.3h7.3c0.7,0,1.3,0.6,1.3,1.3
	C57.8,70.8,57.2,71.3,56.5,71.3z M56,56.8h-6.8c-0.7,0-1.3-0.6-1.3-1.3s0.6-1.3,1.3-1.3H56c0.7,0,1.3,0.6,1.3,1.3S56.7,56.8,56,56.8
	z M53.9,64.1h-4.7c-0.7,0-1.3-0.6-1.3-1.3c0-0.7,0.6-1.3,1.3-1.3h4.7c0.7,0,1.3,0.6,1.3,1.3C55.2,63.5,54.6,64.1,53.9,64.1z
	 M68.1,70.6c-5.3,0-9.6-4.3-9.6-9.6s4.3-9.6,9.6-9.6s9.6,4.3,9.6,9.6c0,2.4-0.9,4.8-2.6,6.5C73.3,69.5,70.7,70.6,68.1,70.6z
	 M68.1,54c-3.9,0-7,3.1-7,7s3.1,7,7,7c2,0,3.8-0.8,5.1-2.2c1.2-1.3,1.9-3,1.9-4.8C75.1,57.1,71.9,54,68.1,54L68.1,54z"/>
<path class="st0" d="M78.3,72.5c-0.3,0-0.7-0.1-0.9-0.4l-3.6-3.8c-0.5-0.5-0.5-1.3,0.1-1.8c0.5-0.5,1.3-0.5,1.8,0.1l3.6,3.8
	c0.5,0.5,0.5,1.3-0.1,1.8C79,72.4,78.7,72.5,78.3,72.5z"/>
</svg>
