<?xml version="1.0" encoding="utf-8"?>
<!-- Generator: Adobe Illustrator 25.2.0, SVG Export Plug-In . SVG Version: 6.00 Build 0)  -->
<svg version="1.1" id="图层_1" xmlns="http://www.w3.org/2000/svg" xmlns:xlink="http://www.w3.org/1999/xlink" x="0px" y="0px"
	 viewBox="0 0 128 128" style="enable-background:new 0 0 128 128;" xml:space="preserve">
<style type="text/css">
	.st0{fill:#20A53A;}
</style>
<path class="st0" d="M108.6,16.2L64.7,8.1c-0.5-0.1-1-0.1-1.5,0l-44.1,8.1c-1.9,0.3-3.3,2-3.3,3.9v52c0,8.2,2.6,15.9,7.7,22.8
	c4,5.4,9.4,10.3,16.3,14.6c11.4,7.2,22.7,10.2,23.2,10.4c0.7,0.2,1.4,0.2,2.1,0c0.5-0.1,11.7-3.2,23-10.5
	c6.8-4.3,12.2-9.2,16.2-14.6c5.1-6.9,7.6-14.5,7.6-22.7v-52C111.9,18.2,110.5,16.5,108.6,16.2z M103.9,72.1
	c0,11.7-6.7,21.9-19.9,30.4c-8.4,5.4-17,8.4-20,9.3c-6.4-2-40.1-13.6-40.1-39.7V23.5L64,16.1l39.9,7.4V72.1z"/>
<path class="st0" d="M58.9,72.9L84,46.4c1.6-1.7,4.2-1.7,5.9-0.2s1.7,4.2,0.2,5.9L62.3,81.4c-1.7,1.8-4.6,1.7-6.2-0.2L40.5,62.5
	c-1.5-1.8-1.2-4.4,0.5-5.8s4.4-1.2,5.8,0.5L60.1,73c-0.3-0.1-0.6-0.1-0.9-0.1C59.1,72.9,59,72.9,58.9,72.9z"/>
</svg>
