<?xml version="1.0" encoding="utf-8"?>
<!-- Generator: Adobe Illustrator 25.2.0, SVG Export Plug-In . SVG Version: 6.00 Build 0)  -->
<svg version="1.1" id="图层_1" xmlns="http://www.w3.org/2000/svg" xmlns:xlink="http://www.w3.org/1999/xlink" x="0px" y="0px"
	 viewBox="0 0 128 128" style="enable-background:new 0 0 128 128;" xml:space="preserve">
<style type="text/css">
	.st0{fill:#888888;}
</style>
<path class="st0" d="M108.1,81.3c2.2,0,4,1.8,3.9,4c0,0,0,0.1,0,0.1V98c0,7.3-6.4,14-13.2,14H29.2c-6.9,0-13.2-6.8-13.2-14V85.5
	c0-2.1,2-4.2,3.9-4.2c2,0,3.9,2.1,3.9,4.2V98c0,3.1,2.4,5.7,5.4,5.7h69.6c2.9,0,5.4-2.6,5.4-5.7V85.5
	C104.1,83.4,106.1,81.3,108.1,81.3L108.1,81.3z M69.2,41l0.8,0.1c2.4,1.1,3.6,3.3,3,5.6l-10,39.1c-1.2,2.8-3.6,3.9-5.9,2.8
	c-2.4-1.1-3.6-3.3-3-5.6L64,44c1.1-2.2,3.5-3.3,5.9-2.8L69.2,41z M44.2,48.5c2-1,4.4-0.5,5.4,1.6c1,2.1,0.5,4.7-1.5,5.8l-12.7,7.8
	l12.7,7.8c2,1,2.4,3.7,1.5,5.8c-1,2.1-3.4,2.6-5.4,1.6L25.6,67.3c-1-1-2-2.1-2-3.7c0-1.6,1-3.1,2-3.7L44.2,48.5z M79,50
	c1-2.1,3.4-2.6,5.4-1.6L102.9,60c1,1,2,2.1,2,3.7c0,1.6-1,3.1-2,3.7L84.3,78.8c-2,1-4.4,0.5-5.4-1.6c-1-2.1-0.5-4.7,1.5-5.8
	l12.7-7.8l-12.7-7.8C78.5,54.7,78,52.1,79,50L79,50z M98.8,15.9c6.9,0,13.2,6.2,13.2,14v12.5c0,2.1-2,4.2-3.9,4.2
	c-2,0-3.9-2.1-3.9-4.2V30c0-3.1-2.4-5.7-5.4-5.7H29.2c-2.9,0-5.4,2.6-5.4,5.7v12c0,2.1-2,4.2-3.9,4.2s-3.9-2.1-3.9-4.2V30
	c0-7.3,6.4-14,13.2-14H98.8z"/>
</svg>
