<?xml version="1.0" encoding="utf-8"?>
<!-- Generator: Adobe Illustrator 25.2.0, SVG Export Plug-In . SVG Version: 6.00 Build 0)  -->
<svg version="1.1" id="图层_1" xmlns="http://www.w3.org/2000/svg" xmlns:xlink="http://www.w3.org/1999/xlink" x="0px" y="0px"
	 viewBox="0 0 128 128" style="enable-background:new 0 0 128 128;" xml:space="preserve">
<style type="text/css">
	.st0{fill:#888888;}
</style>
<path class="st0" d="M64,16c11,0,20,9.2,20,20.6c0,2.9-0.6,5.8-1.7,8.4c3.5,2,6.6,4.7,9.2,7.7l-0.2,0c4.7,0,8.7-4,8.7-9.1
	c0-0.5-0.1-1.8-0.2-3.6h8.2v3.6c0,7.4-5.1,13.7-12.1,15.7c2,3.9,3.4,8.1,3.8,12.6l0.2,0l12,0v8l-12,0l-0.2,0
	c-0.5,4.4-1.8,8.7-3.8,12.7c7,2,12.1,8.3,12.1,15.7v3.6h-8l0-3.6c0-5-3.9-9-8.5-9.1C84.6,107.4,74.6,112,64,112
	c-10.6,0-20.6-4.6-27.5-12.7l0.2,0c-4.7,0-8.7,4-8.7,9.1v3.6h-8v-3.6c0-7.4,5.1-13.7,12.1-15.7c-2.1-3.9-3.4-8.2-3.8-12.7L28,80H16
	v-8h12l0.2,0c0.5-4.4,1.8-8.7,3.8-12.6c-7-2-12.1-8.3-12.1-15.7V40h8v3.6c0,5,3.9,9,8.5,9.1c2.6-3.1,5.7-5.7,9.2-7.7
	c-1.1-2.6-1.7-5.5-1.7-8.3C44,25.2,53,16,64,16z M60,48.3C44.7,50.5,34.1,64.7,36.3,80c1.8,12.3,11.4,21.9,23.7,23.7V48.3z M68,48.3
	v55.4c15.3-2.2,25.9-16.4,23.7-31.7C89.9,59.7,80.3,50.1,68,48.3z M64,24.3c-6.6,0-12,5.5-12,12.4c0,1.8,0.4,3.5,1,5.1
	c3.5-1.1,7.2-1.7,11-1.7c3.8,0,7.5,0.6,11,1.7c0.7-1.6,1-3.3,1-5.1C76,29.8,70.6,24.3,64,24.3z"/>
</svg>
