<?xml version="1.0" encoding="utf-8"?>
<!-- Generator: Adobe Illustrator 25.2.0, SVG Export Plug-In . SVG Version: 6.00 Build 0)  -->
<svg version="1.1" id="图层_1" xmlns="http://www.w3.org/2000/svg" xmlns:xlink="http://www.w3.org/1999/xlink" x="0px" y="0px"
	 viewBox="0 0 128 128" style="enable-background:new 0 0 128 128;" xml:space="preserve">
<style type="text/css">
	.st0{fill:#F39C12;}
</style>
<path class="st0" d="M91.8,34.3l-27.3-5c-0.3-0.1-0.6-0.1-0.9,0l-27.4,5c-1.2,0.2-2,1.2-2,2.4V69c0,5.1,1.6,9.9,4.8,14.2
	c2.5,3.3,5.9,6.4,10.1,9.1c7.1,4.5,14.1,6.4,14.4,6.4c0.4,0.1,0.9,0.1,1.3,0c0.3-0.1,7.3-2,14.3-6.5c4.2-2.7,7.6-5.7,10-9.1
	c3.1-4.3,4.7-9,4.7-14.1V36.7C93.8,35.5,93,34.5,91.8,34.3z M88.9,69c0,7.3-4.2,13.6-12.4,18.9c-5.2,3.4-10.6,5.2-12.4,5.8
	c-4-1.2-24.9-8.4-24.9-24.7V38.8l24.9-4.6l24.8,4.6V69z"/>
<path class="st0" d="M64.9,52.2H52.5c-0.6,0-1.1-0.5-1.1-1.1c0-0.6,0.5-1.1,1.1-1.1h12.4c0.6,0,1.1,0.5,1.1,1.1
	C66,51.7,65.5,52.2,64.9,52.2z M58.7,70.7h-6.2c-0.6,0-1.1-0.5-1.1-1.1c0-0.6,0.5-1.1,1.1-1.1h6.2c0.6,0,1.1,0.5,1.1,1.1
	C59.8,70.2,59.3,70.7,58.7,70.7z M58.3,58.4h-5.8c-0.6,0-1.1-0.5-1.1-1.1c0-0.6,0.5-1.1,1.1-1.1h5.8c0.6,0,1.1,0.5,1.1,1.1
	C59.4,57.9,58.9,58.4,58.3,58.4z M56.5,64.5h-4c-0.6,0-1.1-0.5-1.1-1.1s0.5-1.1,1.1-1.1h4c0.6,0,1.1,0.5,1.1,1.1
	C57.6,64,57.1,64.5,56.5,64.5z M68.5,70c-4.5,0-8.1-3.6-8.1-8.1s3.6-8.1,8.1-8.1c4.5,0,8.1,3.6,8.1,8.1c0,2.1-0.8,4-2.2,5.5
	C72.9,69.1,70.7,70,68.5,70z M68.5,56c-3.3,0-5.9,2.7-5.9,5.9s2.7,5.9,5.9,5.9c1.7,0,3.2-0.7,4.3-1.9c1-1.1,1.6-2.5,1.6-4
	C74.4,58.6,71.7,56,68.5,56L68.5,56z"/>
<path class="st0" d="M77.2,71.6c-0.3,0-0.6-0.1-0.8-0.3l-3-3.2c-0.4-0.4-0.4-1.1,0-1.6c0.4-0.4,1.1-0.4,1.6,0l3,3.2
	c0.4,0.4,0.4,1.1,0,1.6C77.7,71.5,77.5,71.6,77.2,71.6z"/>
</svg>
