<svg width="10.000000" height="38.199997" viewBox="0 0 10 38.2" fill="none" xmlns="http://www.w3.org/2000/svg" xmlns:xlink="http://www.w3.org/1999/xlink">
	<desc>
			Created with Pixso.
	</desc>
	<path d="M8.43994 17.2202L1.53076 17.2202L1.53076 18.4092L0.800781 18.4092L0.800781 16.5293L4.78027 16.5293C4.64111 16.2705 4.47998 15.9702 4.33105 15.731L5.04883 15.5503C5.24902 15.8408 5.47119 16.2192 5.62988 16.5293L9.18945 16.5293L9.18945 18.4092L8.43994 18.4092L8.43994 17.2202ZM7.09961 18.1309L7.229 18.0991L7.72949 18.4189C7.23877 19.1611 6.55029 19.8008 5.73975 20.3306C6.85059 20.8506 8.19092 21.2095 9.60938 21.3901C9.44092 21.561 9.25049 21.8809 9.14062 22.0908C8.66943 22.0298 8.20068 21.9297 7.74902 21.8101L7.74902 24.7495L6.99951 24.7495L6.99951 24.4297L3.04932 24.4297L3.04932 24.7593L2.3291 24.7593L2.3291 21.8589C1.79932 22.02 1.26953 22.1396 0.749512 22.2495C0.681152 22.0591 0.52002 21.7588 0.390625 21.6001C1.72119 21.3706 3.12012 20.9409 4.31885 20.3501C3.8208 20.001 3.37891 19.6201 3.01025 19.2002C2.56104 19.5493 2.04102 19.8789 1.4502 20.1694C1.34033 20.001 1.12061 19.7593 0.949707 19.6396C2.31934 19.0293 3.29102 18.1602 3.78906 17.4009L4.58984 17.54C4.45068 17.7402 4.28955 17.9307 4.13086 18.1309L7.09961 18.1309ZM6.58936 18.7192L3.56934 18.7192L3.53027 18.7607C3.9209 19.21 4.43115 19.6104 5.01953 19.9692C5.63965 19.5908 6.1792 19.1807 6.58936 18.7192ZM5.00977 20.7603C4.30908 21.1411 3.55957 21.4609 2.78076 21.71L7.37061 21.71C6.521 21.4609 5.72998 21.1509 5.00977 20.7603ZM3.04932 22.3398L3.04932 23.79L6.99951 23.79L6.99951 22.3398L3.04932 22.3398ZM1.11084 26.9995L3.98926 26.9995L3.98926 34.8804C3.98926 35.2808 3.91113 35.5005 3.6499 35.6299C3.40088 35.7593 3.00049 35.769 2.3291 35.769C2.30957 35.5811 2.20947 35.249 2.10938 35.061C2.5708 35.0708 2.99072 35.0708 3.11035 35.061C3.24951 35.0488 3.30078 35.0098 3.30078 34.8706L3.30078 32.4097L1.73096 32.4097C1.64062 33.5889 1.44043 34.8389 0.979004 35.7788C0.849609 35.6592 0.549316 35.4907 0.371094 35.4199C1.05957 34.021 1.11084 32.041 1.11084 30.5688L1.11084 26.9995ZM8.81104 30.4004L8.94043 30.3809L9.37012 30.5298C9.10889 31.8896 8.63037 33.0103 8.00049 33.8989C8.479 34.4507 9.04053 34.8999 9.67041 35.21C9.49951 35.3491 9.29932 35.6006 9.18945 35.7788Q8.28857 35.2698 7.5708 34.4312C7.11914 34.9609 6.60889 35.3906 6.05957 35.7104C5.95947 35.5396 5.76904 35.2905 5.62012 35.1611C6.16943 34.8608 6.68945 34.4312 7.15088 33.8892C6.58936 33.0811 6.1499 32.1191 5.82031 31.0889L5.56885 31.0889L5.56885 35.769L4.87061 35.769L4.87061 27.0288L9.08936 27.0288L9.08936 28.9502C9.08936 29.3311 8.99902 29.519 8.70117 29.6289C8.37891 29.729 7.88086 29.729 7.12891 29.729C7.09961 29.5288 6.98975 29.2798 6.88965 29.0991C7.5 29.1089 8.02002 29.1089 8.16895 29.0991C8.33008 29.0991 8.36914 29.0601 8.36914 28.9404L8.36914 27.7197L5.56885 27.7197L5.56885 30.4004L8.81104 30.4004ZM3.30078 29.3311L3.30078 27.6904L1.78955 27.6904L1.78955 29.3311L3.30078 29.3311ZM1.78955 30.5688C1.78955 30.9106 1.77979 31.2988 1.77002 31.6992L3.30078 31.6992L3.30078 30.0195L1.78955 30.0195L1.78955 30.5688ZM7.56104 33.3301C7.99072 32.6904 8.33008 31.9409 8.55957 31.0889L6.46973 31.0889C6.74072 31.9092 7.09961 32.6709 7.56104 33.3301Z" fill="#20A53A"/>
	<path d="M5.04706 7.51985C5.09752 7.51985 5.14891 7.517 5.20059 7.51131C5.69629 7.45641 6.11721 7.13658 6.27259 6.69585C6.28428 6.66284 6.26736 6.62756 6.23321 6.61305C6.19936 6.59854 6.15844 6.61107 6.13936 6.64066C6.13752 6.64349 5.94059 6.93713 5.17383 7.03273C5.05906 7.04695 4.94737 7.05437 4.84152 7.05437C4.30429 7.05408 4.06491 6.86714 4.06276 6.86543C4.03569 6.84323 3.99445 6.84267 3.96676 6.86429C3.93877 6.88593 3.9323 6.92348 3.95137 6.95222C4.18522 7.30219 4.6049 7.51985 5.04706 7.51985ZM9.16982 3.13353C9.16305 3.13353 9.1569 3.13466 9.15044 3.13466C8.7012 1.33928 6.98459 0 4.92645 0C2.81169 0 1.0557 1.41327 0.666458 3.28291C0.288004 3.34579 0 3.6528 0 4.02411L0 5.51022C0 5.92677 0.361851 6.26451 0.808615 6.26451C1.06062 6.26451 1.28308 6.15468 1.43108 5.98595C1.7886 6.85886 2.51657 7.56276 3.43775 7.9341C3.43996 7.92966 3.45741 7.89838 3.47836 7.87344C3.4929 7.85614 3.50911 7.84195 3.52307 7.84195C3.53753 7.84195 3.55077 7.84679 3.56215 7.85419C3.34891 7.70764 2.57877 6.9545 2.412 5.90344C2.33877 5.4408 2.71415 4.98668 3.15138 4.91156C3.85322 4.79092 4.55138 4.6535 5.25322 4.53514C5.69937 4.46002 6.0043 4.2341 6.19076 3.85796C6.23445 3.77003 6.29753 3.59221 6.32646 3.33585C6.33415 3.29773 6.368 3.26842 6.41139 3.26842C6.44032 3.26842 6.46493 3.28207 6.48124 3.3017L6.50062 3.2906C6.77724 3.66135 7.32585 4.48221 7.40462 5.34775C7.49508 6.33736 7.44461 7.01511 6.62401 7.70851C6.61262 7.71988 6.60247 7.73753 6.60247 7.75375C6.60247 7.77509 6.61478 7.7933 6.63263 7.8044C6.63939 7.80696 6.64617 7.81036 6.65294 7.81293C6.65847 7.81406 6.6637 7.81578 6.66924 7.81578C6.67479 7.81578 6.67971 7.81407 6.68463 7.81293C6.69633 7.80724 6.7074 7.80069 6.71879 7.795C7.54863 7.37303 8.18524 6.66826 8.47939 5.82065C8.59846 5.98396 8.78492 6.10147 9.00154 6.14244C8.65416 7.60095 7.24493 8.51372 5.49909 8.65228C5.39447 8.41272 5.13693 8.24257 4.83447 8.24257C4.4394 8.24257 4.11909 8.53136 4.11909 8.88731C4.11909 9.24326 4.43939 9.53177 4.83447 9.53177C5.15293 9.53177 5.41971 9.34283 5.51232 9.08336C7.53323 8.9317 9.15323 7.82288 9.49139 6.10005C9.79016 5.98482 10 5.71423 10 5.39839L10 3.89465C9.99998 3.4744 9.62827 3.13353 9.16982 3.13353ZM8.42428 3.56544C7.89721 2.24751 6.53137 1.306 4.9246 1.306C3.3246 1.306 1.96369 2.23953 1.43169 3.54895C1.40524 3.51906 1.37416 3.49347 1.34369 3.46758C1.64492 1.87192 3.13261 0.658691 4.92645 0.658691C6.71168 0.658691 8.19475 1.85997 8.50583 3.44452C8.47505 3.48265 8.44674 3.52249 8.42428 3.56544Z" fill-rule="evenodd" fill="#20A53A"/>
	<defs/>
</svg>
