<svg width="71.797729" height="50.707611" viewBox="0 0 71.7977 50.7076" fill="none" xmlns="http://www.w3.org/2000/svg" xmlns:xlink="http://www.w3.org/1999/xlink">
	<desc>
			Created with Pixso.
	</desc>
	<path id="矢量 605" d="M71.7974 48.4974L71.7974 2C71.7974 0.895447 70.902 0 69.7974 0L63.0743 0L62.9751 16.011L71.7974 48.4974Z" fill-rule="evenodd" fill="#A25B00" fill-opacity="0.600000"/>
	<path id="矢量 606" d="M56.3654 0.0305176L63.0753 9.29407L60.3914 0.0305176L56.3654 0.0305176Z" fill-rule="evenodd" fill="#CA7200" fill-opacity="0.600000"/>
	<path id="矢量 607" d="M60.3901 0.0305176L63.0741 9.29407L63.0741 0.0305176L60.3901 0.0305176Z" fill-rule="evenodd" fill="#B16300" fill-opacity="0.600000"/>
	<path id="矢量 608" d="M71.7976 48.2946L71.7977 50.707L36.8118 50.7007L29.5245 46.8932L42.2736 43.6237L59.0486 37.6296L62.9753 9.97809L63.0267 15.8264L71.7976 48.2946Z" fill-rule="evenodd" fill="#F5B35B"/>
	<path id="矢量 609" d="M23.1213 50.7007L29.5242 46.8929L36.8116 50.7007L23.1213 50.7007Z" fill-rule="evenodd" fill="#FF9D06" fill-opacity="0.600000"/>
	<path id="矢量 610" d="M9.39441 50.7075L23.1212 50.7006L29.5245 46.8931L15.4335 34.9049L5.36841 49.0727L9.39441 50.7075Z" fill-rule="evenodd" fill="#FFBD66" fill-opacity="0.600000"/>
	<path id="矢量 611" d="M5.36804 49.0731L15.433 34.9053L12.749 22.3723L0 33.2706L5.36804 49.0731Z" fill-rule="evenodd" fill="#FFDBAC" fill-opacity="0.600000"/>
	<path id="矢量 612" d="M15.4337 34.905L30.8668 26.7313L12.7498 22.372L15.4337 34.905Z" fill-rule="evenodd" fill="#FFCA86" fill-opacity="0.600000"/>
	<path id="矢量 613" d="M15.4329 34.9049L29.5239 46.893L42.2729 43.6235L30.866 26.7312L15.4329 34.9049Z" fill-rule="evenodd" fill="#FFAD42" fill-opacity="0.600000"/>
	<path id="矢量 614" d="M30.8668 26.7312L42.2738 43.6235L59.049 37.6295L30.8668 26.7312Z" fill-rule="evenodd" fill="#FFA42D" fill-opacity="0.600000"/>
	<path id="矢量 615" d="M30.8666 26.7313L59.0487 37.6296L63.0747 9.29407L30.8666 26.7313Z" fill-rule="evenodd" fill="#FF9812" fill-opacity="0.600000"/>
	<path id="矢量 616" d="M30.8662 26.7314L63.0742 9.29413L20.1301 8.74921L30.8662 26.7314Z" fill-rule="evenodd" fill="#FCAA3F" fill-opacity="0.600000"/>
	<path id="矢量 617" d="M30.8662 26.7314L12.7491 22.3721L12.0781 16.9229L20.1301 8.74921L30.8662 26.7314Z" fill-rule="evenodd" fill="#FFC375" fill-opacity="0.600000"/>
	<path id="矢量 618" d="M12.0781 6.02472L12.0781 16.923L20.1301 8.74927L12.0781 6.02472Z" fill-rule="evenodd" fill="#FFD49E" fill-opacity="0.600000"/>
	<path id="矢量 619" d="M12.0782 6.02466L20.1302 8.74921L23.4852 0.0305786L19.4592 0.0305786L12.0782 6.02466Z" fill-rule="evenodd" fill="#FFC985" fill-opacity="0.600000"/>
	<path id="矢量 620" d="M20.1301 8.74915L23.4851 0.0305176L36.2341 0.0305176L63.0742 9.29407L20.1301 8.74915Z" fill-rule="evenodd" fill="#FDB352" fill-opacity="0.600000"/>
	<path id="矢量 621" d="M36.2336 0.0305176L63.0737 9.29407L56.3636 0.0305176L36.2336 0.0305176Z" fill-rule="evenodd" fill="#E89020" fill-opacity="0.600000"/>
	<path id="矢量 622" d="M9.39368 50.7076L1.18738 50.7076L5.36804 49.0729L9.39368 50.7076Z" fill-rule="evenodd" fill="#FFC985" fill-opacity="0.600000"/>
	<defs/>
</svg>
