<svg width="20.000000" height="16.000000" viewBox="0 0 20 16" fill="none" xmlns="http://www.w3.org/2000/svg" xmlns:xlink="http://www.w3.org/1999/xlink">
	<desc>
			Created with Pixso.
	</desc>
	<path id="path" d="M16.7368 2L3.26318 2C2.54736 2 2 2.52002 2 3.19995L2 12.8C2 13.48 2.54736 14 3.26318 14L16.7368 14C17.4526 14 18 13.48 18 12.8L18 3.19995C18 2.52002 17.4526 2 16.7368 2L16.7368 2M16.7368 2.80005C16.821 2.80005 16.8632 2.84009 16.9474 2.84009L9.78943 7.63989L3.05261 2.84009C3.13684 2.84009 3.17896 2.80005 3.26318 2.80005L16.7368 2.80005M16.7368 13.2L3.26318 13.2C3.0105 13.2 2.84216 13.04 2.84216 12.8L2.84216 3.63989L9.53687 8.3999C9.62109 8.43994 9.70532 8.47998 9.78943 8.47998C9.87366 8.47998 9.95789 8.43994 10.0421 8.3999L17.2 3.6001L17.2 12.8C17.1578 13.04 16.9895 13.2 16.7368 13.2L16.7368 13.2Z" fill-rule="evenodd" fill="#F08900"/>
	<defs/>
</svg>
