<svg width="168.000000" height="84.000000" viewBox="0 0 168 84" fill="none" xmlns="http://www.w3.org/2000/svg" xmlns:xlink="http://www.w3.org/1999/xlink">
	<desc>
			Created with Pixso.
	</desc>
	<path id="矢量 988" d="M168 82L168 2.01758C168 0.913086 167.104 0.0175781 166 0.0175781L79.6924 0.0175781C72.0342 -0.310547 56.7178 3.82373 56.7178 22.9863C56.7178 42.1489 41.4014 51.7524 33.7432 54.1587C23.333 56.7832 2.01074 66.937 0 84L166 84C167.104 84 168 83.1045 168 82Z" fill-rule="evenodd" fill="#FFCE07" fill-opacity="0.100000"/>
	<path id="矢量 989" d="M168 81.6719L168 2C168 0.895508 167.104 0 166 0L131.743 0C126.957 0.984375 115.016 2.95312 105.538 2.95312C93.6924 2.95312 84 1.3125 84 17.3906C84 33.4688 87.9482 66.6094 59.9482 56.7656C52.7695 54.7969 39.0566 57.4219 41.6406 83.6719L166 83.6719C167.104 83.6719 168 82.7764 168 81.6719Z" fill-rule="evenodd" fill="#FDB320" fill-opacity="0.100000"/>
	<path id="矢量 990" d="M168 82L168 2C168 0.895508 167.104 0 166 0L146.103 0C141.196 0.109375 131.385 3.87158 131.385 18.0469C131.385 35.7656 121.692 43.9692 107.692 38.3911C96.4922 33.9282 92.2568 41.3442 91.5381 45.6099C89.7432 57.3125 81.0566 79.2754 60.667 73.5C40.2773 67.7251 25.7861 78.2031 21 84L166 84C167.104 84 168 83.1045 168 82Z" fill-rule="evenodd" fill="#F8982A" fill-opacity="0.100000"/>
	<path id="矢量 991" d="M168 82L168 29.6123C158.068 27.3828 135.262 30.9502 123.487 63.0562C122.77 64.5054 119.18 67.4058 110.564 67.4058C99.7949 67.4058 76.5947 59.2495 60.7998 84L166 84C167.104 84 168 83.105 168 82Z" fill-rule="evenodd" fill="#F58030" fill-opacity="0.100000"/>
	<path id="矢量 992" d="M84.7998 84L166 84C167.104 84 168 83.1045 168 82L168 58.1538C160.103 59.0454 143.374 60.562 139.641 59.4917C134.975 58.1538 121.333 55.144 112.718 70.1934C105.825 82.2329 90.9023 83.6655 84.7998 84Z" fill-rule="evenodd" fill="#F05E34" fill-opacity="0.100000"/>
	<path id="矢量 993" d="M168 45.231C165.487 46.2344 160.246 51.5854 159.385 64.9624C158.523 78.3398 148.018 77.894 142.872 75.999C134.735 73.7695 117.271 73.2983 114.4 84L166 84C167.104 84 168 83.105 168 82L168 45.231Z" fill-rule="evenodd" fill="#EE4038" fill-opacity="0.100000"/>
	<defs/>
</svg>
