<svg width="32.500000" height="27.000000" viewBox="0 0 32.5 27" fill="none" xmlns="http://www.w3.org/2000/svg" xmlns:xlink="http://www.w3.org/1999/xlink">
	<desc>
			Created with Pixso.
	</desc>
	<path id="矢量 975" d="M14.5 0L32.5 0L0 27L0 11.5L14.5 0Z" fill-rule="evenodd" fill="#D7262E"/>
	<path id="矢量 976" d="M16.8739 3.14893L17.3964 3.77222L13.0383 7.38159C13.126 7.97046 13.1564 8.55396 13.1445 9.13818L15.7688 12.2688L15.0675 12.8496L13.0209 10.4082C12.9514 10.8728 12.8319 11.3286 12.7021 11.7686C12.4849 11.7063 12.0015 11.6099 11.7357 11.6001C12.1639 10.4846 12.3154 9.27539 12.2162 8.0625L10.4531 9.52271L9.93079 8.89941L12.0854 7.11499C12.0466 6.95459 12.0074 6.79761 11.9625 6.62988L11.3158 7.16553L10.8379 6.59546L9.11389 8.02344L8.59753 7.40747L10.3217 5.97949L9.89453 5.46997L10.6212 4.86816L11.0483 5.37769L13.2341 3.56738L12.7993 3.04858L13.5182 2.45337L13.953 2.97192L15.6595 1.55859L16.1758 2.17456L14.4692 3.58789L14.9409 4.15063L14.222 4.74585L13.7504 4.18335L11.5646 5.99365L11.8979 6.39136L11.8257 6.15942L12.6714 5.75073C12.7499 5.98999 12.8083 6.22119 12.8744 6.46143L16.8739 3.14893ZM12.1763 13.3345L10.6041 14.6365L9.86206 13.7512L11.1537 12.6814L10.6373 12.0657L9.3457 13.1355L8.62817 12.2793L9.92761 11.2031L9.41138 10.5874L8.11194 11.6636L7.40674 10.8223L8.81909 9.65259L8.28442 9.01465L6.6792 10.3442L6.98608 9.77319C6.64478 9.55908 6.03333 9.31396 5.52502 9.17603L5.08728 9.94531C5.55225 10.0945 6.09973 10.3303 6.43958 10.5427L5.08362 11.6655C4.95789 11.1611 4.79321 10.6733 4.62073 10.1919L3.76526 10.6086C4.32556 12.0015 4.62427 13.5864 4.49438 14.8647C4.65454 14.8469 4.90295 14.8679 5.12329 14.8904L4.60986 15.6323L3.48975 14.2961L4.34302 13.5896L3.80212 12.9443L2.94885 13.6511L1.75354 12.2251L1.04443 12.8123L2.23975 14.2383L1.28125 15.0322L1.82214 15.6775L2.78064 14.8835L4.06506 16.4158C3.755 16.8374 3.48572 17.2249 3.25427 17.5315L3.98877 18.0691C4.19849 17.7681 4.41577 17.4482 4.64441 17.1069L6.11633 18.8628C6.20386 18.9673 6.18909 19.0322 6.08582 19.1177C6.00427 19.1978 5.70044 19.4495 5.37634 19.6929C5.64441 19.8 5.99023 20.0354 6.16418 20.1956C6.66687 19.7793 6.97571 19.4863 7.09985 19.1816C7.21887 18.8904 7.12805 18.6365 6.83154 18.2827L5.17676 16.3088L5.82263 15.3545L5.29395 14.9011L5.45691 14.9185C5.48096 14.5415 5.47217 14.1294 5.43567 13.7156L8.96033 17.9202L9.67139 17.3313L9.255 16.8347L12.7109 13.9722L12.1763 13.3345ZM7.42432 12.2332L6.22815 13.2239L5.52283 12.3826L6.71899 11.3918L7.42432 12.2332ZM17.2291 7.31738L19.2007 5.68433L19.6985 6.27832L17.7271 7.91113L18.4952 8.82764C18.7656 9.15015 18.8416 9.3667 18.6581 9.68335C18.4703 9.99097 18.0947 10.3145 17.5277 10.7842C17.3363 10.6384 17.0256 10.4763 16.7919 10.3906C17.2113 10.0679 17.6185 9.73071 17.7156 9.63794C17.8282 9.53223 17.8491 9.48999 17.7661 9.39111L17.0178 8.49854L14.9022 10.2507L14.4044 9.65674L16.52 7.90454L16.1436 7.45557C16.3147 7.09644 16.4802 6.67993 16.5928 6.26685L14.2239 8.22876L13.7644 7.68066L16.8445 5.12988L16.9481 4.98193L17.6692 4.95605C17.5638 5.61792 17.3345 6.3916 17.0341 7.08447L17.2291 7.31738ZM8.65808 13.7048L7.46191 14.6956L6.74438 13.8396L7.94055 12.8489L8.65808 13.7048ZM7.97815 15.3115L9.17432 14.3208L9.91638 15.2061L8.72034 16.1968L7.97815 15.3115Z" fill-rule="evenodd" fill="#FFFFFF"/>
	<defs/>
</svg>
