<svg width="13.887817" height="14.000000" viewBox="0 0 13.8878 14" fill="none" xmlns="http://www.w3.org/2000/svg" xmlns:xlink="http://www.w3.org/1999/xlink">
	<desc>
			Created with Pixso.
	</desc>
	<path id="path" d="M13.3645 4.31866C12.6672 2.61389 11.2992 1.23029 9.60803 0.529724C7.90625 -0.175293 5.97717 -0.177856 4.27637 0.529724C2.59924 1.22772 1.22168 2.60333 0.519897 4.31866C-0.171997 6.01031 -0.174683 7.97559 0.519897 9.68121C1.21887 11.3978 2.59924 12.7723 4.27637 13.4703C5.97717 14.1779 7.90637 14.1752 9.60803 13.4703C11.2993 12.7696 12.6699 11.3869 13.3645 9.68121C14.0636 7.96472 14.0608 6.02124 13.3645 4.31866ZM12.6577 9.3938C12.0336 10.9018 10.802 12.144 9.30701 12.7738C7.8064 13.4058 6.08948 13.3881 4.55103 12.7738C1.48767 11.5503 -0.0551758 7.69647 1.2002 4.61243C2.46265 1.51105 6.26672 -0.107056 9.30688 1.23248C10.7916 1.88678 12.0281 3.07538 12.6577 4.61243C13.2788 6.12823 13.2843 7.88043 12.6577 9.3938Z" fill-rule="evenodd" fill="url(#paint_linear_16_212_0)"/>
	<path id="path" d="M9.94116 7.48108L7.06335 7.48108L7.06335 3.15753C7.06335 2.59216 6.18481 2.59216 6.18481 3.15753L6.18481 7.97028C6.18481 8.14197 6.25293 8.26782 6.38892 8.34814C6.47949 8.42236 6.58313 8.45935 6.69983 8.45911L9.94116 8.45911C10.1987 8.45911 10.4259 8.26044 10.4259 7.97028C10.4259 7.71027 10.1989 7.48108 9.94116 7.48108Z" fill-rule="evenodd" fill="url(#paint_linear_16_213_0)"/>
	<defs>
		<linearGradient id="paint_linear_16_212_0" x1="0.000000" y1="6.999999" x2="13.887751" y2="6.999999" gradientUnits="userSpaceOnUse">
			<stop stop-color="#E8A833"/>
			<stop offset="1.000000" stop-color="#B48A52"/>
		</linearGradient>
		<linearGradient id="paint_linear_16_213_0" x1="6.184814" y1="5.596304" x2="10.425930" y2="5.596304" gradientUnits="userSpaceOnUse">
			<stop stop-color="#E8A833"/>
			<stop offset="1.000000" stop-color="#B48A52"/>
		</linearGradient>
	</defs>
</svg>
