<svg width="110.504028" height="21.789490" viewBox="0 0 110.504 21.7895" fill="none" xmlns="http://www.w3.org/2000/svg" xmlns:xlink="http://www.w3.org/1999/xlink">
	<desc>
			Created with Pixso.
	</desc>
	<path id="path" d="M7.99951 7.18503L12.3455 20.9179L16.6917 7.18503L7.99951 7.18503Z" fill-rule="evenodd" fill="#9E6700"/>
	<path id="path" d="M8.91614 0L3.90967 0L0 5.74884L6.36975 5.74884L8.91614 0Z" fill-rule="evenodd" fill="#9E6700"/>
	<path id="path" d="M16.6047 5.74808L14.058 0L10.6284 0L8.08252 5.74884L16.6047 5.74808Z" fill-rule="evenodd" fill="#9E6700"/>
	<path id="path" d="M0.36084 7.18616L4.67236 12.1278C4.68262 12.1235 10.2854 18.5609 10.2854 18.5609L6.32532 7.18616L0.36084 7.18616Z" fill-rule="evenodd" fill="#9E6700"/>
	<path id="path" d="M15.7716 0L18.3184 5.74808L24.7618 5.74884L20.7784 0L15.7716 0Z" fill-rule="evenodd" fill="#9E6700"/>
	<path id="path" d="M14.4976 18.466L21.9894 9.93451C21.9756 9.92847 24.3912 7.18622 24.3912 7.18622L18.3615 7.18619L14.4976 18.466Z" fill-rule="evenodd" fill="#9E6700"/>
	<path id="矢量 977" d="M31.3359 8.39545C34.1992 7.27826 37.1289 5.37201 38.7266 2.97357L40.4414 3.82123C40.3281 3.96576 40.2148 4.12592 40.1055 4.27045C42.1992 6.47748 44.4258 7.56342 46.6953 8.3642C46.2305 8.76654 45.7188 9.43842 45.4961 10.0126C43.2891 9.0517 41.1758 7.88373 39 5.56342C37.2227 7.45404 34.9531 8.95795 32.6328 10.0126C32.3594 9.51654 31.8164 8.82904 31.3359 8.39545ZM66.215 9.70795C66.215 10.0439 66.215 10.4111 66.1993 10.7822L69.3204 10.7822L69.3204 18.0126L67.5939 18.0126L67.5939 12.4619L66.1368 12.4619C66.0079 14.54 65.6407 16.6376 64.7618 18.1415C64.4572 17.79 63.8165 17.2119 63.4337 16.9579C64.3595 15.0204 64.4728 11.9658 64.4728 9.70795L64.4728 3.53217L66.215 3.53217L66.215 7.32513L67.3048 7.32513L67.3048 3.1181L69.0157 3.1181L69.0157 7.32513L70.1212 7.32513L70.1212 9.00482L66.215 9.00482L66.215 9.70795ZM69.3204 17.165C70.4884 15.0517 70.6329 11.7079 70.6329 9.43842L70.6329 4.07513C72.9689 3.91498 75.5587 3.59857 77.3048 3.19623L78.3595 4.86029C76.6329 5.2431 74.4728 5.48529 72.4415 5.6142L72.4415 7.51654L76.6642 7.51654L76.9689 7.45404L78.1056 7.7392C77.8009 10.54 77.129 12.7822 76.1212 14.5244C76.7931 15.3876 77.5939 16.1103 78.504 16.6064C78.09 16.9423 77.5275 17.6298 77.2228 18.1259C76.3907 17.579 75.6564 16.8759 75.0314 16.0595C74.3282 16.8915 73.4806 17.579 72.5197 18.1259C72.297 17.7079 71.879 17.1025 71.5275 16.7001C71.3361 17.2626 71.1134 17.7587 70.8243 18.2197C70.4884 17.8994 69.7697 17.3876 69.3204 17.165ZM94.4259 9.38763L94.4259 7.62982L90.922 7.62982L90.922 6.27045L93.754 6.27045L93.754 4.53998L90.922 4.53998L90.922 3.1181L89.0978 3.1181L89.0978 4.53998L86.3439 4.53998L86.3439 6.27045L89.0978 6.27045L89.0978 7.62982L85.4142 7.62982L85.4142 9.38763L90.9025 9.38763L90.9025 10.829L85.7345 10.829L85.7345 12.5908L87.6251 12.5908L86.297 13.4384C86.9689 14.204 87.7345 15.2626 88.0548 15.9501L89.5118 14.9736C89.1447 14.2861 88.3439 13.2939 87.672 12.5908L90.9025 12.5908L90.9025 15.8994C90.9025 16.1103 90.84 16.1572 90.5822 16.1728C90.3282 16.1728 89.4806 16.1728 88.7267 16.1415C88.9532 16.6689 89.1915 17.4853 89.2736 18.0283C90.4259 18.0283 91.3204 17.997 91.9298 17.7079C92.5509 17.4033 92.7111 16.8915 92.7111 15.9345L92.7111 12.5908L94.2814 12.5908L94.2814 10.829L92.7111 10.829L92.7111 9.38763L94.4259 9.38763ZM99.9454 8.81342C100.567 9.32513 102.246 10.9423 102.602 11.3251L101.527 13.0673C101.176 12.5087 100.551 11.6611 99.9454 10.9072L99.9454 18.0595L98.0704 18.0595L98.0704 11.6611C97.5587 13.165 96.9376 14.54 96.2462 15.4697C96.0392 14.9267 95.5431 14.0126 95.1759 13.5009C96.2462 12.2353 97.2228 9.99701 97.7189 8.02826L95.6876 8.02826L95.6876 6.27045L98.0704 6.27045L98.0704 3.1181L99.9454 3.1181L99.9454 6.27045L101.785 6.27045L101.785 8.02826L99.9454 8.02826L99.9454 8.81342ZM85.2579 10.6064L84.0236 10.9579L84.0236 8.04388L85.2384 8.04388L85.2384 6.23529L84.0236 6.23529L84.0236 3.13373L82.215 3.13373L82.215 6.23529L81.5743 6.23529C81.6407 5.70795 81.6876 5.1806 81.7189 4.65326L80.2306 4.37982C80.1212 6.31732 79.8478 8.39545 79.4337 9.6767C79.8009 9.83685 80.504 10.1572 80.8243 10.3798C81.0001 9.75873 81.1759 8.94232 81.3361 8.04388L82.215 8.04388L82.215 11.454C81.2384 11.7079 80.3595 11.915 79.6564 12.0751L80.0548 14.0126L82.215 13.3564L82.215 18.0595L84.0236 18.0595L84.0236 12.7978L85.3986 12.3642L85.2579 10.6064ZM58.0236 15.4228L58.0236 12.4111L59.4806 13.1494C60.3126 11.6142 61.3204 9.35638 62.0236 7.34076L60.3126 6.52435C59.7853 8.34857 58.8243 10.622 58.0236 12.1415L58.0236 3.32513L56.0548 3.32513L56.0548 15.4228L53.9611 15.4228L53.9611 3.32513L51.9923 3.32513L51.9923 15.4228L47.8634 15.4228L47.8634 17.3251L62.1681 17.3251L62.1681 15.4228L58.0236 15.4228ZM108.551 4.46185L108.856 4.37982L110.07 4.76654C109.594 8.5556 108.582 11.5009 107.047 13.7236C107.945 14.8134 109.063 15.7079 110.504 16.5244C110.008 16.8915 109.414 17.579 109.145 18.1415C107.785 17.2626 106.695 16.3329 105.801 15.2783C104.742 16.4306 103.512 17.3251 102.106 18.0283C101.832 17.5322 101.32 16.7978 100.902 16.4462C102.328 15.8369 103.609 14.9072 104.664 13.6923C103.527 11.79 102.824 9.45404 102.297 6.39545L102.777 6.3017L101.961 6.3017L101.961 4.46185L108.551 4.46185ZM105.879 12.0283C106.871 10.4462 107.574 8.52435 108.008 6.3017L104.07 6.3017C104.504 8.63763 105.063 10.4931 105.879 12.0283ZM51.879 12.3798C51.4806 10.8603 50.5509 8.34857 49.8009 6.47748L48.0548 6.9892C48.7931 8.95795 49.6251 11.5165 49.9767 13.0517L51.879 12.3798ZM44.375 12.7158L40.1055 12.7158L40.1055 15.915L45.832 15.915L45.832 17.6298L32.2305 17.6298L32.2305 15.915L33.9609 15.915L33.9609 10.3329L35.8477 10.3329L35.8477 15.915L38.0898 15.915L38.0898 7.70795L40.1055 7.70795L40.1055 11.0048L44.375 11.0048L44.375 12.7158ZM75.0001 12.747C75.4962 11.7236 75.879 10.54 76.1368 9.2431L73.7345 9.2431C74.0392 10.4931 74.4728 11.6767 75.0001 12.747ZM72.4415 10.0439C72.4064 12.0595 72.2462 14.4619 71.6095 16.4462C72.5353 15.9658 73.3204 15.2626 74.0079 14.3954C73.3361 13.1181 72.84 11.6454 72.4415 10.0439Z" fill-rule="evenodd" fill="#9E6700"/>
	<defs/>
</svg>
