<svg width="20.000000" height="16.000000" viewBox="0 0 20 16" fill="none" xmlns="http://www.w3.org/2000/svg" xmlns:xlink="http://www.w3.org/1999/xlink">
	<desc>
			Created with Pixso.
	</desc>
	<path id="path" d="M14.0039 2.30225L17.7832 6.11792C17.8552 6.19067 17.9099 6.271 17.947 6.35889C17.9843 6.44678 18.0018 6.53735 17.9999 6.63013C17.9978 6.72314 17.9763 6.81299 17.9354 6.8999C17.8944 6.98657 17.8364 7.06543 17.7612 7.13623L10.7583 13.7192C10.7114 13.7632 10.6593 13.8027 10.6018 13.8376C10.5443 13.8726 10.4828 13.9021 10.4174 13.9265C10.3518 13.9507 10.2838 13.969 10.2134 13.9814C10.1429 13.9939 10.0718 14 9.99963 14C9.92749 14 9.8562 13.9939 9.78577 13.9814C9.71533 13.969 9.64734 13.9507 9.58191 13.9265C9.51636 13.9021 9.45496 13.8726 9.39746 13.8376C9.33997 13.8027 9.28772 13.7632 9.24097 13.7192L2.23889 7.13623C2.1637 7.06543 2.10571 6.98657 2.0647 6.89966C2.02368 6.81274 2.0022 6.7229 2.00012 6.62988C1.99817 6.53711 2.01575 6.44653 2.05298 6.35864C2.09021 6.27051 2.1449 6.19019 2.21704 6.11743L5.99634 2.30225C6.09106 2.20679 6.20691 2.13232 6.34399 2.07935C6.48108 2.02637 6.62573 2 6.77795 2L13.2223 2C13.3744 2 13.5189 2.02637 13.6559 2.07935C13.7928 2.13257 13.9092 2.20679 14.0039 2.30225L14.0039 2.30225M13.2223 2.80078L6.77795 2.80078L2.99707 6.61646L10.0001 13.1987L17.0026 6.61646L13.2223 2.80078Z" fill-rule="evenodd" fill="#F08900"/>
	<path id="path" d="M10.0006 9.875C9.72009 9.875 9.45813 9.73584 9.29785 9.50464L7.40649 7.51611C7.28174 7.33496 7.32019 7.08276 7.4928 6.9519C7.66553 6.82104 7.90588 6.86133 8.03076 7.04224L9.92053 9.03101C9.9436 9.06348 9.98376 9.06812 9.99915 9.06812C10.0145 9.06812 10.0546 9.06494 10.0778 9.03101L11.969 7.04224C12.0939 6.86133 12.3344 6.82104 12.507 6.9519C12.6796 7.08276 12.7181 7.33496 12.5933 7.51611L10.7035 9.50317C10.5432 9.73584 10.2797 9.875 10.0006 9.875L10.0006 9.875Z" fill-rule="evenodd" fill="#F08900"/>
	<defs/>
</svg>
