<svg width="20.000000" height="18.000000" viewBox="0 0 20 18" fill="none" xmlns="http://www.w3.org/2000/svg" xmlns:xlink="http://www.w3.org/1999/xlink">
	<desc>
			Created with Pixso.
	</desc>
	<path id="矢量 739" d="M6.33325 6.375L8.11108 8.5625M8.11108 12.8755L8.11108 8.5625L9.88879 6.375" stroke="#EFA209" stroke-linejoin="round"/>
	<path id="矢量 740" d="M5.34863 9L10.6816 9" stroke="#EFA209" stroke-linecap="round"/>
	<path id="矢量 741" d="M5.34863 10.75L10.6816 10.75" stroke="#EFA209" stroke-linecap="round"/>
	<path id="椭圆 210" d="M15.7222 9C15.7222 7.98199 15.5223 7.00797 15.1227 6.07788C14.7371 5.18033 14.1929 4.38568 13.4901 3.69394C12.788 3.00272 11.9817 2.46756 11.0712 2.0885C10.1289 1.69617 9.14221 1.5 8.11108 1.5C7.07996 1.5 6.09326 1.69617 5.15088 2.0885C4.24048 2.46756 3.4342 3.00272 2.73193 3.69394C2.0293 4.38568 1.48499 5.18036 1.09937 6.07788C0.699707 7.00797 0.5 7.98199 0.5 9C0.5 10.018 0.699707 10.992 1.09937 11.9221C1.48499 12.8196 2.0293 13.6143 2.73193 14.3061C3.4342 14.9973 4.24048 15.5324 5.15088 15.9115C6.09326 16.3038 7.07996 16.5 8.11108 16.5C9.12378 16.5 10.0944 16.3105 11.0225 15.9316C11.2817 15.8257 11.4022 15.5389 11.2964 15.2797C11.1906 15.0205 10.9037 14.8999 10.6445 15.0058C9.83752 15.3353 8.99304 15.5 8.11108 15.5C7.21313 15.5 6.35461 15.3294 5.53528 14.9883C4.74414 14.6589 4.04358 14.194 3.43347 13.5934C2.82397 12.9934 2.35217 12.3047 2.01819 11.5273C1.67273 10.7233 1.5 9.88086 1.5 9C1.5 8.11914 1.67273 7.2767 2.01819 6.47269C2.35217 5.69528 2.82397 5.00659 3.43347 4.40659C4.04358 3.80603 4.74414 3.34106 5.53528 3.01169C6.35461 2.67056 7.21313 2.5 8.11108 2.5C9.00891 2.5 9.86755 2.67056 10.6869 3.01169C11.4779 3.34106 12.1786 3.80603 12.7886 4.40659C13.3982 5.00659 13.8699 5.69528 14.204 6.47269C14.5494 7.2767 14.7222 8.11914 14.7222 9C14.7222 9.28 14.9421 9.5 15.2222 9.5C15.5022 9.5 15.7222 9.28 15.7222 9Z" fill-rule="evenodd" fill="#EFA209"/>
	<path id="矢量 742" d="M13.4445 8.125L15.2223 9.875L17 8.125" stroke="#EFA209" stroke-linecap="round"/>
	<defs/>
</svg>
