<svg width="16.000000" height="14.000000" viewBox="0 0 16 14" fill="none" xmlns="http://www.w3.org/2000/svg" xmlns:xlink="http://www.w3.org/1999/xlink">
	<desc>
			Created with Pixso.
	</desc>
	<path id="path" d="M15.0815 11.168C14.7725 11.2339 14.4858 11.3579 14.2207 11.541C13.959 11.835 13.6455 12.0381 13.2803 12.1494C13.3281 11.8057 13.4873 11.4917 13.728 11.2598C13.9307 10.9282 14.0732 10.5693 14.1562 10.1826C14.1558 10.0518 14.1787 9.92578 14.2256 9.80469C14.272 9.68359 14.3384 9.57715 14.4243 9.48438C14.5107 9.3916 14.6104 9.31982 14.7231 9.26953C14.8359 9.21875 14.9531 9.19336 15.0757 9.19336C15.1978 9.19287 15.3154 9.21777 15.4282 9.26709C15.5415 9.31689 15.6411 9.38818 15.728 9.48047C15.8149 9.57275 15.8818 9.6792 15.9287 9.7998C15.9761 9.9209 15.9995 10.0464 16 10.1772C16.0005 10.3081 15.9775 10.4341 15.9312 10.5552C15.8848 10.6763 15.8184 10.7832 15.7324 10.8765C15.646 10.9692 15.5469 11.041 15.4341 11.0913C15.3213 11.1416 15.2036 11.1675 15.0815 11.168ZM12.2661 5.54346C11.9878 3.05029 9.57715 1.09717 6.66016 1.09717C3.55273 1.09717 1.02441 3.31152 1.02441 6.03516C1.03662 6.41162 1.09131 6.78076 1.18799 7.14307C1.28467 7.50537 1.4209 7.8501 1.59619 8.17676C1.77148 8.50342 1.98145 8.80225 2.2251 9.07422C2.46924 9.3457 2.73975 9.58154 3.0376 9.78223C3.23438 9.9375 3.43896 10.0781 3.65234 10.2051L3.40234 11.2734C3.49268 11.3188 3.58008 11.3672 3.67236 11.4087L4.93457 10.7329C5.11865 10.7842 5.3125 10.8174 5.50537 10.8525C5.62842 10.8755 5.75098 10.8999 5.87744 10.916C6.67139 11.0229 7.45654 10.9746 8.23389 10.771C8.25781 11.1382 8.31934 11.4971 8.41943 11.8491C7.84082 11.9941 7.25439 12.0679 6.66016 12.0693C6.12744 12.0659 5.60059 12.0039 5.08008 11.8828L2.79004 13.1069C2.70068 13.1558 2.60645 13.1748 2.50732 13.1636C2.40771 13.1523 2.31934 13.1133 2.24121 13.0454C2.16357 12.9785 2.1084 12.8945 2.07666 12.7935C2.04443 12.6919 2.04053 12.5894 2.06445 12.4854L2.47412 10.7183C2.10449 10.4668 1.76904 10.1709 1.46729 9.83057C1.16553 9.49023 0.906738 9.11621 0.690918 8.70752C0.475098 8.29932 0.309082 7.86914 0.191895 7.41699C0.0751953 6.96484 0.0112305 6.50391 0 6.03516C0 2.70166 2.98193 0 6.66016 0C10.1528 0 13.0132 2.43848 13.2915 5.5376C13.1313 5.51123 12.9697 5.49414 12.8076 5.48633C12.6265 5.49365 12.4453 5.5127 12.2661 5.54346Z" fill-rule="evenodd" fill="#F08900"/>
	<path id="path" d="M12.8076 5.48633C12.6265 5.49365 12.4453 5.5127 12.2661 5.54346C12.2056 5.00439 12.0459 4.49023 11.8027 4.01562C11.1802 2.80225 10.0127 1.84717 8.57568 1.39062C7.97705 1.20068 7.33203 1.09717 6.66016 1.09717C3.55273 1.09717 1.02441 3.31152 1.02441 6.03516C1.03662 6.41162 1.09131 6.78076 1.18799 7.14307C1.28467 7.50537 1.4209 7.8501 1.59619 8.17676C1.77148 8.50342 1.98145 8.80225 2.2251 9.07422C2.46924 9.3457 2.73975 9.58154 3.0376 9.78223C3.23438 9.9375 3.43896 10.0781 3.65234 10.2051L3.40234 11.2734C3.49268 11.3188 3.58008 11.3672 3.67236 11.4087L4.93457 10.7329C5.11865 10.7842 5.3125 10.8174 5.50537 10.8525C5.62842 10.8755 5.75098 10.8999 5.87744 10.916C6.67139 11.0229 7.45654 10.9746 8.23389 10.771C8.25781 11.1382 8.31934 11.4971 8.41943 11.8491C7.84082 11.9941 7.25439 12.0679 6.66016 12.0693C6.12744 12.0659 5.60059 12.0039 5.08008 11.8828L2.79004 13.1069C2.70068 13.1558 2.60645 13.1748 2.50732 13.1636C2.40771 13.1523 2.31934 13.1133 2.24121 13.0454C2.16357 12.9785 2.1084 12.8945 2.07666 12.7935C2.04443 12.6919 2.04053 12.5894 2.06445 12.4854L2.47412 10.7183C2.10449 10.4668 1.76904 10.1709 1.46729 9.83057C1.16553 9.49023 0.906738 9.11621 0.690918 8.70752C0.475098 8.29932 0.309082 7.86914 0.191895 7.41699C0.0751953 6.96484 0.0112305 6.50391 0 6.03516C0 2.70166 2.98193 0 6.66016 0C10.1528 0 13.0132 2.43848 13.2915 5.5376C13.1313 5.51123 12.9697 5.49414 12.8076 5.48633ZM11.999 3.95996C12.2173 4.39355 12.3633 4.8457 12.437 5.31641C12.5576 5.30127 12.6782 5.2915 12.7993 5.28662L12.8081 5.28613L12.8169 5.28662C12.8994 5.29053 12.9819 5.29688 13.064 5.30518C12.9761 4.66064 12.7725 4.0459 12.4536 3.46045C12.103 2.81689 11.6357 2.25 11.0527 1.75977C10.4658 1.2666 9.80225 0.885742 9.0625 0.617188C8.29541 0.339355 7.49463 0.200195 6.66016 0.200195C5.78125 0.200195 4.94141 0.353516 4.13916 0.661133C3.36572 0.95752 2.68115 1.37549 2.08496 1.91553C1.49023 2.45459 1.03027 3.07275 0.70459 3.77051C0.368652 4.49023 0.200195 5.24463 0.200195 6.03271C0.210938 6.48535 0.272949 6.93018 0.385742 7.3667C0.498535 7.80371 0.65918 8.21973 0.867676 8.61426C1.07617 9.0083 1.32568 9.36963 1.6167 9.69775C1.90771 10.0254 2.23096 10.3105 2.58691 10.5532L2.7002 10.6304L2.25928 12.5308C2.24365 12.5991 2.24609 12.6665 2.26709 12.7329C2.2876 12.7979 2.32275 12.8521 2.37256 12.8945C2.41895 12.9351 2.47119 12.958 2.5293 12.9648C2.58691 12.9712 2.64209 12.96 2.6958 12.9307L5.05176 11.6709L5.125 11.688C5.63135 11.8057 6.14307 11.8662 6.65967 11.8691C7.17041 11.8682 7.67529 11.812 8.17383 11.7017C8.11963 11.4775 8.07959 11.2505 8.05469 11.0205C7.32715 11.1831 6.59326 11.2144 5.85205 11.1143C5.77051 11.104 5.65186 11.084 5.49658 11.0542L5.46924 11.0488C5.45557 11.0464 5.43457 11.0425 5.40674 11.0376C5.22021 11.0039 5.07129 10.9736 4.95996 10.9463L3.67969 11.6318L3.58984 11.5913C3.54492 11.5708 3.48096 11.5391 3.39746 11.4956C3.35938 11.4761 3.33154 11.4614 3.3125 11.4521L3.17188 11.3813L3.4248 10.3003C3.25098 10.1909 3.08252 10.0723 2.91992 9.94385C2.61084 9.73486 2.32959 9.48975 2.07617 9.20752C1.82178 8.92432 1.60303 8.61182 1.41992 8.27148C1.2373 7.93115 1.09521 7.57227 0.994629 7.19482C0.894043 6.81787 0.837402 6.43311 0.824707 6.0415L0.824219 6.03809L0.824219 6.03516C0.824219 5.33545 0.979004 4.6665 1.28809 4.02734C1.58545 3.4126 2.00439 2.86816 2.54541 2.39404C3.08398 1.92236 3.70215 1.55664 4.39893 1.29785C5.11963 1.03076 5.87305 0.896973 6.66016 0.896973C7.33008 0.896973 7.97705 0.994141 8.60107 1.18896C10.3018 1.56396 11.4346 2.48779 11.999 3.95996ZM15.0815 11.168C14.7725 11.2339 14.4858 11.3579 14.2207 11.541C13.959 11.835 13.6455 12.0381 13.2803 12.1494C13.3281 11.8057 13.4873 11.4917 13.728 11.2598C13.9307 10.9282 14.0732 10.5693 14.1562 10.1826C14.1558 10.0518 14.1787 9.92578 14.2256 9.80469C14.272 9.68359 14.3384 9.57715 14.4243 9.48438C14.5107 9.3916 14.6104 9.31982 14.7231 9.26953C14.8359 9.21875 14.9531 9.19336 15.0757 9.19336C15.1978 9.19287 15.3154 9.21777 15.4282 9.26709C15.5415 9.31689 15.6411 9.38818 15.728 9.48047C15.8149 9.57275 15.8818 9.6792 15.9287 9.7998C15.9761 9.9209 15.9995 10.0464 16 10.1772C16.0005 10.3081 15.9775 10.4341 15.9312 10.5552C15.8848 10.6763 15.8184 10.7832 15.7324 10.8765C15.646 10.9692 15.5469 11.041 15.4341 11.0913C15.3213 11.1416 15.2036 11.1675 15.0815 11.168ZM14.0874 11.3896L14.0713 11.4077C13.9263 11.5713 13.7637 11.7031 13.5835 11.8042C13.6504 11.6553 13.7446 11.5215 13.8667 11.4038L13.8853 11.3862L13.8984 11.3643C14.1133 11.0132 14.2642 10.6333 14.3516 10.2246L14.356 10.2036L14.356 10.1821C14.356 10.0762 14.3745 9.97461 14.4121 9.87646C14.4492 9.77979 14.5024 9.69434 14.5708 9.62012C14.6387 9.54736 14.7168 9.49121 14.8047 9.45215C14.8916 9.41309 14.9819 9.39355 15.0762 9.39307C15.1699 9.39307 15.2607 9.41211 15.3477 9.4502C15.436 9.48926 15.5142 9.54492 15.582 9.61719C15.6514 9.69092 15.7046 9.77588 15.7422 9.87256C15.7803 9.97021 15.7998 10.0718 15.7998 10.1777C15.8003 10.2842 15.7817 10.3857 15.7441 10.4839C15.707 10.5806 15.6543 10.6665 15.5854 10.7402C15.5181 10.813 15.4399 10.8696 15.3521 10.9087C15.2651 10.9478 15.1748 10.9673 15.0806 10.9678L15.0601 10.9678L15.0396 10.9722C14.7046 11.0439 14.394 11.1782 14.1074 11.376L14.0874 11.3896Z" fill-rule="evenodd" fill="#F08900"/>
	<path id="path" d="M10.1021 11.1978C9.99463 11.2637 9.88037 11.3052 9.75977 11.3228C9.63867 11.3398 9.52002 11.3315 9.40381 11.2974C9.28809 11.2632 9.18311 11.2061 9.08936 11.1255C8.99561 11.0454 8.91992 10.9482 8.86279 10.834C8.80566 10.7197 8.77148 10.5972 8.75977 10.4668C8.74805 10.3359 8.75977 10.207 8.79541 10.0796C8.83105 9.95215 8.88721 9.83594 8.96436 9.73145C9.0415 9.62695 9.13379 9.5415 9.24121 9.47559C9.34863 9.40967 9.4624 9.36816 9.5835 9.35107C9.88379 9.24414 10.1582 9.08154 10.4058 8.86426C10.6421 8.53564 10.9365 8.29248 11.2891 8.1333C11.2671 8.49268 11.1475 8.80664 10.9199 9.07617C10.7471 9.43066 10.6338 9.81396 10.583 10.207C10.5947 10.3379 10.583 10.4668 10.5474 10.5942C10.5122 10.7217 10.4556 10.8374 10.3784 10.9419C10.3013 11.0469 10.209 11.1318 10.1021 11.1978Z" fill-rule="evenodd" fill="#F08900"/>
	<path id="path" d="M10.1021 11.1978C9.99463 11.2637 9.88037 11.3052 9.75977 11.3228C9.63867 11.3398 9.52002 11.3315 9.40381 11.2974C9.28809 11.2632 9.18311 11.2061 9.08936 11.1255C8.99561 11.0454 8.91992 10.9482 8.86279 10.834C8.80566 10.7197 8.77148 10.5972 8.75977 10.4668C8.74805 10.3359 8.75977 10.207 8.79541 10.0796C8.83105 9.95215 8.88721 9.83594 8.96436 9.73145C9.0415 9.62695 9.13379 9.5415 9.24121 9.47559C9.34863 9.40967 9.4624 9.36816 9.5835 9.35107C9.88379 9.24414 10.1582 9.08154 10.4058 8.86426C10.6421 8.53564 10.9365 8.29248 11.2891 8.1333C11.2671 8.49268 11.1475 8.80664 10.9199 9.07617C10.7471 9.43066 10.6338 9.81396 10.583 10.207C10.5947 10.3379 10.583 10.4668 10.5474 10.5942C10.5122 10.7217 10.4556 10.8374 10.3784 10.9419C10.3013 11.0469 10.209 11.1318 10.1021 11.1978ZM10.0049 11.0273C9.92236 11.0781 9.83447 11.1104 9.7417 11.1235L9.7417 11.1235C9.64893 11.1367 9.55762 11.1299 9.46826 11.104C9.37793 11.0771 9.29541 11.0322 9.22217 10.9692C9.14746 10.9053 9.08691 10.8276 9.04102 10.7358C8.99512 10.6436 8.96729 10.5444 8.95752 10.4385C8.94824 10.3325 8.95801 10.228 8.98682 10.125C9.01514 10.0225 9.06006 9.92969 9.12158 9.84668C9.18213 9.76416 9.25439 9.69775 9.33789 9.646C9.42041 9.59521 9.5083 9.56348 9.60107 9.55029L9.62109 9.54736L9.64062 9.54053C9.9668 9.42432 10.2637 9.24854 10.5317 9.01318L10.5498 8.99707L10.5645 8.97705C10.6958 8.79492 10.8462 8.6416 11.0171 8.51709C10.9634 8.67578 10.8813 8.81982 10.7715 8.9502L10.7544 8.9707L10.7427 8.99463C10.5586 9.37158 10.4399 9.77051 10.3862 10.1909L10.3833 10.2134L10.3853 10.2354C10.3945 10.3413 10.3853 10.4458 10.3564 10.5488C10.3281 10.6509 10.2832 10.7437 10.2212 10.8271C10.1606 10.9092 10.0889 10.9761 10.0049 11.0273Z" fill-rule="evenodd" fill="#F08900"/>
	<path id="path" d="M11.7803 7.52002C11.7334 7.39893 11.71 7.27344 11.71 7.14209C11.71 7.01123 11.7334 6.88525 11.7803 6.76465C11.8271 6.64355 11.8936 6.53662 11.98 6.44434C12.0664 6.35156 12.166 6.28027 12.2793 6.22998C12.3921 6.18018 12.5098 6.15479 12.6318 6.15479C12.7544 6.15479 12.8721 6.18018 12.9849 6.22998C13.0977 6.28027 13.1973 6.35156 13.2837 6.44434C13.3706 6.53662 13.437 6.64355 13.4839 6.76465C13.5308 6.88525 13.5537 7.01123 13.5537 7.14209C13.6133 7.47412 13.7271 7.78271 13.8955 8.06836C14.1675 8.35205 14.3535 8.69043 14.4541 9.08252C14.125 9.02441 13.8511 8.8667 13.6318 8.59766C13.3271 8.37891 12.9883 8.22119 12.6318 8.12939C12.5098 8.12939 12.3921 8.10449 12.2793 8.0542C12.166 8.00439 12.0664 7.93311 11.98 7.84033C11.8936 7.74805 11.8271 7.64111 11.7803 7.52002Z" fill-rule="evenodd" fill="#F08900"/>
	<path id="path" d="M11.7803 7.52002C11.7334 7.39893 11.71 7.27344 11.71 7.14209C11.71 7.01123 11.7334 6.88525 11.7803 6.76465C11.8271 6.64355 11.8936 6.53662 11.98 6.44434C12.0664 6.35156 12.166 6.28027 12.2793 6.22998C12.3921 6.18018 12.5098 6.15479 12.6318 6.15479C12.7544 6.15479 12.8721 6.18018 12.9849 6.22998C13.0977 6.28027 13.1973 6.35156 13.2837 6.44434C13.3706 6.53662 13.437 6.64355 13.4839 6.76465C13.5308 6.88525 13.5537 7.01123 13.5537 7.14209C13.6133 7.47412 13.7271 7.78271 13.8955 8.06836C14.1675 8.35205 14.3535 8.69043 14.4541 9.08252C14.125 9.02441 13.8511 8.8667 13.6318 8.59766C13.3271 8.37891 12.9883 8.22119 12.6318 8.12939C12.5098 8.12939 12.3921 8.10449 12.2793 8.0542C12.166 8.00439 12.0664 7.93311 11.98 7.84033C11.8936 7.74805 11.8271 7.64111 11.7803 7.52002ZM11.9668 7.44775C11.9287 7.3501 11.9102 7.24854 11.9102 7.14209C11.9102 7.03613 11.9287 6.93457 11.9668 6.83643C12.0044 6.73975 12.0571 6.6543 12.126 6.58057C12.1943 6.50781 12.272 6.45215 12.3604 6.41309C12.4473 6.37451 12.5381 6.35498 12.6318 6.35498C12.7261 6.35498 12.8164 6.37451 12.9038 6.41309C12.9917 6.45215 13.0698 6.50781 13.1377 6.58057C13.2065 6.6543 13.2598 6.73975 13.2974 6.83643C13.335 6.93457 13.354 7.03613 13.354 7.14209L13.354 7.16016L13.3569 7.17725C13.4204 7.53271 13.5425 7.86377 13.7231 8.16992L13.7349 8.18994L13.751 8.20654C13.9087 8.37109 14.0347 8.55615 14.1294 8.76074C14.0005 8.68994 13.8862 8.59375 13.7871 8.47119L13.77 8.45068L13.7485 8.43506C13.4224 8.20117 13.0669 8.03467 12.6816 7.93604L12.6572 7.92969L12.6318 7.92969C12.5381 7.92969 12.4473 7.91016 12.3604 7.87158C12.272 7.83252 12.1943 7.77686 12.126 7.7041C12.0571 7.63037 12.0044 7.54492 11.9668 7.44775Z" fill-rule="evenodd" fill="#F08900"/>
	<path id="path" d="M13.0181 12.6348C13.0649 12.7559 13.0884 12.8813 13.0884 13.0127C13.0884 13.1436 13.0649 13.2695 13.0181 13.3901C12.9712 13.5112 12.9048 13.6182 12.8184 13.7104C12.7319 13.8032 12.6323 13.8745 12.519 13.9248C12.4062 13.9746 12.2886 14 12.1665 14C12.0439 14 11.9263 13.9746 11.8135 13.9248C11.7007 13.8745 11.6011 13.8032 11.5146 13.7104C11.4277 13.6182 11.3613 13.5112 11.3145 13.3901C11.2676 13.2695 11.2446 13.1436 11.2446 13.0127C11.1851 12.6807 11.0713 12.3721 10.9028 12.0864C10.6309 11.8027 10.4448 11.4644 10.3442 11.0723C10.6733 11.1304 10.9473 11.2881 11.1665 11.5571C11.4712 11.7759 11.8101 11.9336 12.1665 12.0254C12.2886 12.0254 12.4062 12.0503 12.519 12.1006C12.6323 12.1504 12.7319 12.2217 12.8184 12.3145C12.9048 12.4067 12.9712 12.5137 13.0181 12.6348Z" fill-rule="evenodd" fill="#F08900"/>
	<path id="path" d="M13.0181 12.6348C13.0649 12.7559 13.0884 12.8813 13.0884 13.0127C13.0884 13.1436 13.0649 13.2695 13.0181 13.3901C12.9712 13.5112 12.9048 13.6182 12.8184 13.7104C12.7319 13.8032 12.6323 13.8745 12.519 13.9248C12.4062 13.9746 12.2886 14 12.1665 14C12.0439 14 11.9263 13.9746 11.8135 13.9248C11.7007 13.8745 11.6011 13.8032 11.5146 13.7104C11.4277 13.6182 11.3613 13.5112 11.3145 13.3901C11.2676 13.2695 11.2446 13.1436 11.2446 13.0127C11.1851 12.6807 11.0713 12.3721 10.9028 12.0864C10.6309 11.8027 10.4448 11.4644 10.3442 11.0723C10.6733 11.1304 10.9473 11.2881 11.1665 11.5571C11.4712 11.7759 11.8101 11.9336 12.1665 12.0254C12.2886 12.0254 12.4062 12.0503 12.519 12.1006C12.6323 12.1504 12.7319 12.2217 12.8184 12.3145C12.9048 12.4067 12.9712 12.5137 13.0181 12.6348ZM12.8315 12.707C12.8696 12.8047 12.8882 12.9062 12.8882 13.0127C12.8882 13.1187 12.8696 13.2202 12.8315 13.3184C12.7939 13.415 12.7412 13.5005 12.6724 13.5742C12.604 13.647 12.5264 13.7026 12.438 13.7417C12.3511 13.7803 12.2603 13.7998 12.1665 13.7998C12.0723 13.7998 11.9819 13.7803 11.8945 13.7417C11.8066 13.7026 11.7285 13.647 11.6606 13.5742C11.5918 13.5005 11.5386 13.415 11.501 13.3184C11.4634 13.2202 11.4443 13.1187 11.4443 13.0127L11.4443 12.9946L11.4414 12.9775C11.3779 12.6221 11.2559 12.291 11.0752 11.9849L11.0635 11.9648L11.0474 11.9482C10.8896 11.7837 10.7637 11.5986 10.6689 11.394C10.7979 11.4648 10.9121 11.561 11.0112 11.6836L11.0283 11.7041L11.0498 11.7197C11.376 11.9536 11.7314 12.1201 12.1167 12.2188L12.1411 12.2251L12.1665 12.2251C12.2603 12.2251 12.3511 12.2446 12.438 12.2832C12.5264 12.3223 12.604 12.3779 12.6724 12.4507C12.7412 12.5244 12.7939 12.6099 12.8315 12.707Z" fill-rule="evenodd" fill="#F08900"/>
	<defs/>
</svg>
