<svg width="1374.062622" height="84.000000" viewBox="0 0 1374.06 84" fill="none" xmlns="http://www.w3.org/2000/svg" xmlns:xlink="http://www.w3.org/1999/xlink">
	<desc>
			Created with Pixso.
	</desc>
	<path id="交集" d="M141.015 0L179.986 0C179.996 0.260864 180.001 0.522949 180.001 0.786224C180.001 11.9499 171.27 20.9998 160.501 20.9998C149.731 20.9998 141.001 11.9499 141.001 0.786224C141.001 0.522949 141.005 0.260864 141.015 0L141.015 0Z" clip-rule="evenodd" fill-rule="evenodd" fill="#FFF4D2" fill-opacity="0.500000"/>
	<path id="交集" d="M898.155 83.9999L870.846 83.9999C869.669 81.7995 869.001 79.2819 869.001 76.6071C869.001 67.9875 875.94 61 884.501 61C893.061 61 900.001 67.9875 900.001 76.6071C900.001 79.2819 899.333 81.7995 898.155 83.9999L898.155 83.9999Z" clip-rule="evenodd" fill-rule="evenodd" fill="#FFF4D2" fill-opacity="0.500000"/>
	<path id="交集" d="M984.263 0L1017.74 0C1019.18 2.6788 1020 5.74374 1020 9C1020 19.4934 1011.49 28 1001 28C990.507 28 982 19.4934 982 9C982 5.74374 982.819 2.6788 984.263 0L984.263 0Z" clip-rule="evenodd" fill-rule="evenodd" fill="#FFF4D2" fill-opacity="0.500000"/>
	<path id="交集" d="M1371.8 84L1338.33 84C1336.88 81.3212 1336.06 78.2563 1336.06 75C1336.06 64.5066 1344.57 56 1355.06 56C1365.56 56 1374.06 64.5066 1374.06 75C1374.06 78.2563 1373.24 81.3212 1371.8 84L1371.8 84Z" clip-rule="evenodd" fill-rule="evenodd" fill="#FFF4D2" fill-opacity="0.500000"/>
	<path id="交集" d="M559.683 83.9998L535.627 83.9998C534.589 82.0864 534.001 79.8972 534.001 77.5713C534.001 70.076 540.114 64 547.655 64C555.196 64 561.309 70.076 561.309 77.5713C561.309 79.8972 560.721 82.0864 559.683 83.9998L559.683 83.9998Z" clip-rule="evenodd" fill-rule="evenodd" fill="#FFF4D2" fill-opacity="0.500000"/>
	<path id="交集" d="M282.683 83.9998L258.626 83.9998C257.589 82.0864 257 79.8972 257 77.5713C257 70.076 263.113 64 270.655 64C278.196 64 284.309 70.076 284.309 77.5713C284.309 79.8972 283.72 82.0864 282.683 83.9998L282.683 83.9998Z" clip-rule="evenodd" fill-rule="evenodd" fill="#FFF4D2" fill-opacity="0.500000"/>
	<path id="交集" d="M25.6824 83.9998L1.62604 83.9998C0.588684 82.0864 0 79.8972 0 77.5713C0 70.076 6.11322 64 13.6542 64C21.1953 64 27.3085 70.076 27.3085 77.5713C27.3085 79.8972 26.7198 82.0864 25.6824 83.9998L25.6824 83.9998Z" clip-rule="evenodd" fill-rule="evenodd" fill="#FFF4D2" fill-opacity="0.500000"/>
	<path id="交集" d="M710.6 0.000366211L751.402 0.000366211C751.793 1.60275 752.001 3.27722 752.001 5.00015C752.001 16.5981 742.599 26.0002 731.001 26.0002C719.403 26.0002 710.001 16.5981 710.001 5.00015C710.001 3.27722 710.208 1.60275 710.6 0.000366211L710.6 0.000366211Z" clip-rule="evenodd" fill-rule="evenodd" fill="#FFF4D2" fill-opacity="0.500000"/>
	<path id="交集" d="M383.015 0L421.986 0C421.996 0.260864 422.001 0.522949 422.001 0.786224C422.001 11.9499 413.27 20.9998 402.501 20.9998C391.731 20.9998 383.001 11.9499 383.001 0.786224C383.001 0.522949 383.006 0.260864 383.015 0L383.015 0Z" clip-rule="evenodd" fill-rule="evenodd" fill="#FFF4D2" fill-opacity="0.500000"/>
	<defs>
		<filter id="filter_3_1403_dd" x="-858.294189" y="-2.999756" width="1609.052612" height="63.321472" filterUnits="userSpaceOnUse" color-interpolation-filters="sRGB">
			<feFlood flood-opacity="0" result="BackgroundImageFix"/>
			<feColorMatrix in="SourceAlpha" type="matrix" values="0 0 0 0 0 0 0 0 0 0 0 0 0 0 0 0 0 0 127 0"/>
			<feOffset dx="0" dy="1"/>
			<feGaussianBlur stdDeviation="1.33333"/>
			<feColorMatrix type="matrix" values="0 0 0 0 0 0 0 0 0 0 0 0 0 0 0 0 0 0 0.047 0"/>
			<feBlend mode="normal" in2="BackgroundImageFix" result="effect_dropShadow_1"/>
			<feBlend mode="normal" in="SourceGraphic" in2="effect_dropShadow_1" result="shape"/>
		</filter>
		<filter id="filter_3_1406_dd" x="415.500854" y="38.285645" width="1280.631592" height="50.714294" filterUnits="userSpaceOnUse" color-interpolation-filters="sRGB">
			<feFlood flood-opacity="0" result="BackgroundImageFix"/>
			<feColorMatrix in="SourceAlpha" type="matrix" values="0 0 0 0 0 0 0 0 0 0 0 0 0 0 0 0 0 0 127 0"/>
			<feOffset dx="0" dy="1"/>
			<feGaussianBlur stdDeviation="1.33333"/>
			<feColorMatrix type="matrix" values="0 0 0 0 0 0 0 0 0 0 0 0 0 0 0 0 0 0 0.047 0"/>
			<feBlend mode="normal" in2="BackgroundImageFix" result="effect_dropShadow_1"/>
			<feBlend mode="normal" in="SourceGraphic" in2="effect_dropShadow_1" result="shape"/>
		</filter>
		<filter id="filter_3_1409_dd" x="7.000000" y="-3.000000" width="1568.000000" height="60.000000" filterUnits="userSpaceOnUse" color-interpolation-filters="sRGB">
			<feFlood flood-opacity="0" result="BackgroundImageFix"/>
			<feColorMatrix in="SourceAlpha" type="matrix" values="0 0 0 0 0 0 0 0 0 0 0 0 0 0 0 0 0 0 127 0"/>
			<feOffset dx="0" dy="1"/>
			<feGaussianBlur stdDeviation="1.33333"/>
			<feColorMatrix type="matrix" values="0 0 0 0 0 0 0 0 0 0 0 0 0 0 0 0 0 0 0.047 0"/>
			<feBlend mode="normal" in2="BackgroundImageFix" result="effect_dropShadow_1"/>
			<feBlend mode="normal" in="SourceGraphic" in2="effect_dropShadow_1" result="shape"/>
		</filter>
		<filter id="filter_3_1837_dd" x="781.062622" y="29.000000" width="1567.999878" height="60.000000" filterUnits="userSpaceOnUse" color-interpolation-filters="sRGB">
			<feFlood flood-opacity="0" result="BackgroundImageFix"/>
			<feColorMatrix in="SourceAlpha" type="matrix" values="0 0 0 0 0 0 0 0 0 0 0 0 0 0 0 0 0 0 127 0"/>
			<feOffset dx="0" dy="1"/>
			<feGaussianBlur stdDeviation="1.33333"/>
			<feColorMatrix type="matrix" values="0 0 0 0 0 0 0 0 0 0 0 0 0 0 0 0 0 0 0.047 0"/>
			<feBlend mode="normal" in2="BackgroundImageFix" result="effect_dropShadow_1"/>
			<feBlend mode="normal" in="SourceGraphic" in2="effect_dropShadow_1" result="shape"/>
		</filter>
		<filter id="filter_3_1412_dd" x="134.028015" y="43.857178" width="1129.084717" height="45.142532" filterUnits="userSpaceOnUse" color-interpolation-filters="sRGB">
			<feFlood flood-opacity="0" result="BackgroundImageFix"/>
			<feColorMatrix in="SourceAlpha" type="matrix" values="0 0 0 0 0 0 0 0 0 0 0 0 0 0 0 0 0 0 127 0"/>
			<feOffset dx="0" dy="1"/>
			<feGaussianBlur stdDeviation="1.33333"/>
			<feColorMatrix type="matrix" values="0 0 0 0 0 0 0 0 0 0 0 0 0 0 0 0 0 0 0.047 0"/>
			<feBlend mode="normal" in2="BackgroundImageFix" result="effect_dropShadow_1"/>
			<feBlend mode="normal" in="SourceGraphic" in2="effect_dropShadow_1" result="shape"/>
		</filter>
		<filter id="filter_3_1415_dd" x="-142.972778" y="43.857178" width="1129.084717" height="45.142532" filterUnits="userSpaceOnUse" color-interpolation-filters="sRGB">
			<feFlood flood-opacity="0" result="BackgroundImageFix"/>
			<feColorMatrix in="SourceAlpha" type="matrix" values="0 0 0 0 0 0 0 0 0 0 0 0 0 0 0 0 0 0 127 0"/>
			<feOffset dx="0" dy="1"/>
			<feGaussianBlur stdDeviation="1.33333"/>
			<feColorMatrix type="matrix" values="0 0 0 0 0 0 0 0 0 0 0 0 0 0 0 0 0 0 0.047 0"/>
			<feBlend mode="normal" in2="BackgroundImageFix" result="effect_dropShadow_1"/>
			<feBlend mode="normal" in="SourceGraphic" in2="effect_dropShadow_1" result="shape"/>
		</filter>
		<filter id="filter_3_1418_dd" x="-399.973022" y="43.857178" width="1129.084717" height="45.142532" filterUnits="userSpaceOnUse" color-interpolation-filters="sRGB">
			<feFlood flood-opacity="0" result="BackgroundImageFix"/>
			<feColorMatrix in="SourceAlpha" type="matrix" values="0 0 0 0 0 0 0 0 0 0 0 0 0 0 0 0 0 0 127 0"/>
			<feOffset dx="0" dy="1"/>
			<feGaussianBlur stdDeviation="1.33333"/>
			<feColorMatrix type="matrix" values="0 0 0 0 0 0 0 0 0 0 0 0 0 0 0 0 0 0 0.047 0"/>
			<feBlend mode="normal" in2="BackgroundImageFix" result="effect_dropShadow_1"/>
			<feBlend mode="normal" in="SourceGraphic" in2="effect_dropShadow_1" result="shape"/>
		</filter>
		<filter id="filter_3_1397_dd" x="-798.888672" y="-2.999451" width="1728.000000" height="64.332703" filterUnits="userSpaceOnUse" color-interpolation-filters="sRGB">
			<feFlood flood-opacity="0" result="BackgroundImageFix"/>
			<feColorMatrix in="SourceAlpha" type="matrix" values="0 0 0 0 0 0 0 0 0 0 0 0 0 0 0 0 0 0 127 0"/>
			<feOffset dx="0" dy="1"/>
			<feGaussianBlur stdDeviation="1.33333"/>
			<feColorMatrix type="matrix" values="0 0 0 0 0 0 0 0 0 0 0 0 0 0 0 0 0 0 0.047 0"/>
			<feBlend mode="normal" in2="BackgroundImageFix" result="effect_dropShadow_1"/>
			<feBlend mode="normal" in="SourceGraphic" in2="effect_dropShadow_1" result="shape"/>
		</filter>
		<filter id="filter_3_1400_dd" x="-616.293945" y="-2.999756" width="1609.052612" height="63.321472" filterUnits="userSpaceOnUse" color-interpolation-filters="sRGB">
			<feFlood flood-opacity="0" result="BackgroundImageFix"/>
			<feColorMatrix in="SourceAlpha" type="matrix" values="0 0 0 0 0 0 0 0 0 0 0 0 0 0 0 0 0 0 127 0"/>
			<feOffset dx="0" dy="1"/>
			<feGaussianBlur stdDeviation="1.33333"/>
			<feColorMatrix type="matrix" values="0 0 0 0 0 0 0 0 0 0 0 0 0 0 0 0 0 0 0.047 0"/>
			<feBlend mode="normal" in2="BackgroundImageFix" result="effect_dropShadow_1"/>
			<feBlend mode="normal" in="SourceGraphic" in2="effect_dropShadow_1" result="shape"/>
		</filter>
	</defs>
</svg>
