<svg width="74.999817" height="21.992676" viewBox="0 0 74.9998 21.9927" fill="none" xmlns="http://www.w3.org/2000/svg" xmlns:xlink="http://www.w3.org/1999/xlink">
	<desc>
			Created with Pixso.
	</desc>
	<path id="path" d="M8.07642 7.5542L12.4642 21.9927L16.8521 7.5542L8.07642 7.5542Z" fill-rule="evenodd" fill="url(#paint_linear_12_100_0)"/>
	<path id="path" d="M9.00183 0L3.94727 0L0 6.04419L6.43097 6.04419L9.00183 0Z" fill-rule="evenodd" fill="url(#paint_linear_12_101_0)"/>
	<path id="path" d="M16.7645 6.04346L14.1932 0L10.7307 0L8.16028 6.04419L16.7645 6.04346Z" fill-rule="evenodd" fill="url(#paint_linear_12_102_0)"/>
	<path id="path" d="M0.364319 7.55542L4.71729 12.751C4.72772 12.7465 10.3843 19.5146 10.3843 19.5146L6.38611 7.55542L0.364319 7.55542Z" fill-rule="evenodd" fill="url(#paint_linear_12_103_0)"/>
	<path id="path" d="M15.9233 0L18.4946 6.04346L25 6.04419L20.9783 0L15.9233 0Z" fill-rule="evenodd" fill="url(#paint_linear_12_104_0)"/>
	<path id="path" d="M14.637 19.4149L22.2009 10.4449C22.187 10.4386 24.6259 7.55542 24.6259 7.55542L18.538 7.55542L14.637 19.4149Z" fill-rule="evenodd" fill="url(#paint_linear_12_105_0)"/>
	<path id="path" d="M73.8262 19.5491L21.2039 19.5491C20.1539 19.5491 19.598 18.2622 20.3392 17.5267L28.986 8.02795C29.3566 7.599 29.4184 6.98621 29.0478 6.49597L25.7744 1.89978C25.2184 1.10303 25.7744 0 26.7626 0L73.8262 0C74.5056 0 74.9998 0.551514 74.9998 1.22571L74.9998 18.3848C74.9998 18.9976 74.4439 19.5491 73.8262 19.5491Z" fill-rule="evenodd" fill="#EFA209"/>
	<path id="矢量 986" d="M59.5178 9.23621C59.5178 9.50317 59.5178 9.79492 59.5057 10.0897L61.914 10.0897L61.914 15.8352L60.5818 15.8352L60.5818 11.4244L59.4575 11.4244C59.358 13.0758 59.0747 14.7427 58.3965 15.9376C58.1615 15.6583 57.6672 15.199 57.3718 14.9972C58.0861 13.4576 58.1735 11.0303 58.1735 9.23621L58.1735 4.32874L59.5178 4.32874L59.5178 7.34277L60.3587 7.34277L60.3587 3.99976L61.6789 3.99976L61.6789 7.34277L62.5319 7.34277L62.5319 8.67749L59.5178 8.67749L59.5178 9.23621ZM61.914 15.1616C62.2606 15.3386 62.8152 15.7452 63.0744 15.9998C63.2974 15.6335 63.4692 15.2393 63.6169 14.7924C63.8882 15.1121 64.2107 15.5931 64.3825 15.9253C65.124 15.4907 65.778 14.9445 66.3206 14.2832C66.8028 14.932 67.3694 15.4907 68.0114 15.9253C68.2465 15.531 68.6805 14.9847 69.0001 14.7178C68.2978 14.3236 67.6799 13.7494 67.1615 13.0634C67.9391 11.679 68.4575 9.89734 68.6926 7.67175L67.8156 7.44519L67.5804 7.49487L64.3222 7.49487L64.3222 5.98315C65.8895 5.88074 67.5563 5.68835 68.8885 5.38416L68.0747 4.06189C66.7274 4.38159 64.7291 4.63293 62.9267 4.76025L62.9267 9.02197C62.9267 10.8254 62.8152 13.4824 61.914 15.1616ZM43.9622 7.68726L43.9622 9.13379L37.4819 9.13379C37.3824 9.50317 37.2709 9.86011 37.1865 10.2046L42.0121 10.2046L42.2471 10.1271L43.3835 10.8005C42.5425 11.7163 41.4695 12.8213 40.4327 13.8643C41.0988 14.1311 41.7047 14.3981 42.1477 14.6403L41.2977 15.9625C40.0137 15.199 37.3583 14.184 35.4083 13.65L36.1859 12.5046C36.9997 12.7064 37.9642 12.9889 38.9136 13.3179C39.4802 12.7468 40.074 12.1602 40.5924 11.6138L35.1249 11.6138C35.3721 10.9154 35.6433 10.0494 35.9146 9.13379L33 9.13379L33 7.68726L36.3215 7.68726C36.421 7.31787 36.5174 6.97339 36.6048 6.604L34.0248 6.604L34.0248 5.16992L36.9755 5.16992C37.063 4.76025 37.1473 4.39392 37.2347 4.01221L38.79 4.01221C38.7026 4.39392 38.6061 4.77576 38.5067 5.16992L43.0881 5.16992L43.0881 6.604L38.1601 6.604L37.8768 7.68726L43.9622 7.68726ZM53.1973 13.7773L53.1973 11.3842L54.3215 11.9708C54.9635 10.751 55.7411 8.95679 56.2837 7.3551L54.9635 6.70642C54.5566 8.15601 53.8152 9.96252 53.1973 11.1699L53.1973 4.16431L51.6782 4.16431L51.6782 13.7773L50.0626 13.7773L50.0626 4.16431L48.5436 4.16431L48.5436 13.7773L45.3577 13.7773L45.3577 15.2889L56.3952 15.2889L56.3952 13.7773L53.1973 13.7773ZM48.4562 11.3593C48.1487 10.1519 47.4314 8.15601 46.8527 6.66919L45.5054 7.07581C46.075 8.64026 46.717 10.6733 46.9883 11.8932L48.4562 11.3593ZM66.2964 11.6511C66.6792 10.8379 66.9746 9.89734 67.1735 8.86682L65.3199 8.86682C65.555 9.86011 65.8895 10.8005 66.2964 11.6511ZM64.3222 9.50317C64.2951 11.1047 64.1715 13.0137 63.6802 14.5906C64.3945 14.2087 65.0004 13.65 65.5309 12.9609C65.0125 11.9459 64.6296 10.7758 64.3222 9.50317Z" fill-rule="evenodd" fill="#FFFFFF"/>
	<defs>
		<linearGradient id="paint_linear_12_100_0" x1="12.464277" y1="7.554199" x2="12.464277" y2="21.992720" gradientUnits="userSpaceOnUse">
			<stop stop-color="#EFA209"/>
			<stop offset="0.587786" stop-color="#FFCE6C"/>
			<stop offset="1.000000" stop-color="#FDE7BB"/>
		</linearGradient>
		<linearGradient id="paint_linear_12_101_0" x1="4.500915" y1="0.000000" x2="4.500915" y2="6.044233" gradientUnits="userSpaceOnUse">
			<stop stop-color="#EFA209"/>
			<stop offset="0.587786" stop-color="#FFCE6C"/>
			<stop offset="1.000000" stop-color="#FDE7BB"/>
		</linearGradient>
		<linearGradient id="paint_linear_12_102_0" x1="12.462370" y1="0.000000" x2="12.462370" y2="6.044233" gradientUnits="userSpaceOnUse">
			<stop stop-color="#EFA209"/>
			<stop offset="0.587786" stop-color="#FFCE6C"/>
			<stop offset="1.000000" stop-color="#FDE7BB"/>
		</linearGradient>
		<linearGradient id="paint_linear_12_103_0" x1="5.374292" y1="7.555420" x2="5.374292" y2="19.514635" gradientUnits="userSpaceOnUse">
			<stop stop-color="#EFA209"/>
			<stop offset="0.587786" stop-color="#FFCE6C"/>
			<stop offset="1.000000" stop-color="#FDE7BB"/>
		</linearGradient>
		<linearGradient id="paint_linear_12_104_0" x1="20.461685" y1="0.000000" x2="20.461685" y2="6.044233" gradientUnits="userSpaceOnUse">
			<stop stop-color="#EFA209"/>
			<stop offset="0.587786" stop-color="#FFCE6C"/>
			<stop offset="1.000000" stop-color="#FDE7BB"/>
		</linearGradient>
		<linearGradient id="paint_linear_12_105_0" x1="19.631393" y1="7.555420" x2="19.631393" y2="19.414875" gradientUnits="userSpaceOnUse">
			<stop stop-color="#EFA209"/>
			<stop offset="0.587786" stop-color="#FFCE6C"/>
			<stop offset="1.000000" stop-color="#FDE7BB"/>
		</linearGradient>
	</defs>
</svg>
