<svg width="117.999512" height="84.050781" viewBox="0 0 118 84.0508" fill="none" xmlns="http://www.w3.org/2000/svg" xmlns:xlink="http://www.w3.org/1999/xlink">
	<desc>
			Created with Pixso.
	</desc>
	<path id="矢量 605" d="M118 80.387L118 2C118 0.895508 117.104 0 116 0L103.663 0L103.5 26.5391L118 80.387Z" fill-rule="evenodd" fill="#A25B00" fill-opacity="0.300000"/>
	<path id="矢量 606" d="M92.6367 0.0505371L103.665 15.4053L99.2534 0.0505371L92.6367 0.0505371Z" fill-rule="evenodd" fill="#CA7200" fill-opacity="0.300000"/>
	<path id="矢量 607" d="M99.2515 0.0505371L103.663 15.4053L103.663 0.0505371L99.2515 0.0505371Z" fill-rule="evenodd" fill="#B16300" fill-opacity="0.300000"/>
	<path id="矢量 608" d="M118 80.051L118 84.0498L60.5 84.0393L48.5234 77.728L69.4766 72.3086L97.0464 62.3733L103.5 16.5393L103.584 26.2332L118 80.051Z" fill-rule="evenodd" fill="#EE8700" fill-opacity="0.300000"/>
	<path id="矢量 609" d="M38 84.0391L48.5229 77.7275L60.5 84.0391L38 84.0391Z" fill-rule="evenodd" fill="#FF9D06" fill-opacity="0.300000"/>
	<path id="矢量 610" d="M15.4399 84.0503L38 84.0388L48.5239 77.7275L25.3652 57.8567L8.82324 81.3406L15.4399 84.0503Z" fill-rule="evenodd" fill="#FFBD66" fill-opacity="0.300000"/>
	<path id="矢量 611" d="M8.82227 81.3411L25.3643 57.8572L20.9531 37.083L0 55.1475L8.82227 81.3411Z" fill-rule="evenodd" fill="#FFDBAC" fill-opacity="0.300000"/>
	<path id="矢量 612" d="M25.3652 57.8569L50.7295 44.3086L20.9541 37.0828L25.3652 57.8569Z" fill-rule="evenodd" fill="#FFCA86" fill-opacity="0.300000"/>
	<path id="矢量 613" d="M25.3643 57.8567L48.5229 77.7278L69.4761 72.3083L50.7285 44.3083L25.3643 57.8567Z" fill-rule="evenodd" fill="#FFAD42" fill-opacity="0.300000"/>
	<path id="矢量 614" d="M50.73 44.3083L69.4775 72.3083L97.0474 62.3728L50.73 44.3083Z" fill-rule="evenodd" fill="#FFA42D" fill-opacity="0.300000"/>
	<path id="矢量 615" d="M50.7295 44.3088L97.0469 62.3733L103.664 15.4055L50.7295 44.3088Z" fill-rule="evenodd" fill="#FF9812" fill-opacity="0.300000"/>
	<path id="矢量 616" d="M50.7285 44.3088L103.663 15.4058L33.084 14.5024L50.7285 44.3088Z" fill-rule="evenodd" fill="#FCAA3F" fill-opacity="0.300000"/>
	<path id="矢量 617" d="M50.729 44.3088L20.9536 37.083L19.8506 28.0508L33.084 14.5024L50.729 44.3088Z" fill-rule="evenodd" fill="#FFC375" fill-opacity="0.300000"/>
	<path id="矢量 618" d="M19.8506 9.98633L19.8506 28.0508L33.084 14.5024L19.8506 9.98633Z" fill-rule="evenodd" fill="#FFD49E" fill-opacity="0.300000"/>
	<path id="矢量 619" d="M19.8501 9.98633L33.0835 14.5024L38.5977 0.0507812L31.981 0.0507812L19.8501 9.98633Z" fill-rule="evenodd" fill="#FFC985" fill-opacity="0.300000"/>
	<path id="矢量 620" d="M33.084 14.5022L38.5981 0.0505371L59.5513 0.0505371L103.663 15.4053L33.084 14.5022Z" fill-rule="evenodd" fill="#FDB352" fill-opacity="0.300000"/>
	<path id="矢量 621" d="M59.5508 0.0505371L103.663 15.4053L92.6348 0.0505371L59.5508 0.0505371Z" fill-rule="evenodd" fill="#E89020" fill-opacity="0.300000"/>
	<path id="矢量 622" d="M15.4395 84.0508L1.95215 84.0508L8.82324 81.3411L15.4395 84.0508Z" fill-rule="evenodd" fill="#FFC985" fill-opacity="0.300000"/>
	<defs/>
</svg>
