<svg width="20.000000" height="18.000000" viewBox="0 0 20 18" fill="none" xmlns="http://www.w3.org/2000/svg" xmlns:xlink="http://www.w3.org/1999/xlink">
	<desc>
			Created with Pixso.
	</desc>
	<path id="矢量 739" d="M7.33331 6.375L9.11108 8.5625M9.11108 12.8755L9.11108 8.5625L10.8889 6.375" stroke="#966000" stroke-linejoin="round"/>
	<path id="矢量 740" d="M6.34863 9L11.6816 9" stroke="#966000" stroke-linecap="round"/>
	<path id="矢量 741" d="M6.34863 10.75L11.6816 10.75" stroke="#966000" stroke-linecap="round"/>
	<path id="椭圆 210" d="M16.7222 9C16.7222 7.98193 16.5224 7.00806 16.1228 6.07788C15.7371 5.18042 15.1929 4.38574 14.4902 3.69385C13.788 3.00269 12.9817 2.46753 12.0713 2.08862C11.129 1.69629 10.1422 1.5 9.11115 1.5C8.08002 1.5 7.09326 1.69629 6.15094 2.08862C5.24054 2.46753 4.43427 3.00269 3.73206 3.69385C3.0293 4.38574 2.48511 5.18042 2.09943 6.07788C1.69983 7.00806 1.5 7.98193 1.5 9C1.5 10.0181 1.69983 10.9919 2.09943 11.9221C2.48511 12.8196 3.0293 13.6143 3.73206 14.3062C4.43427 14.9973 5.24054 15.5325 6.15094 15.9114C7.09326 16.3037 8.08002 16.5 9.11115 16.5C10.1239 16.5 11.0944 16.3105 12.0225 15.9316L11.9965 15.9207L11.6336 15.0317L11.6445 15.0059C10.8375 15.3352 9.99304 15.5 9.11115 15.5C8.21326 15.5 7.35461 15.3293 6.53534 14.9883C5.74426 14.6589 5.04364 14.1941 4.43353 13.5935C3.82404 12.9934 3.35223 12.3047 3.01825 11.5273C2.67273 10.7234 2.5 9.88086 2.5 9C2.5 8.11914 2.67273 7.27661 3.01825 6.47266C3.35223 5.69531 3.82404 5.00659 4.43353 4.40649C5.04364 3.80591 5.74426 3.34106 6.53534 3.01172C7.35461 2.67065 8.21326 2.5 9.11115 2.5C10.009 2.5 10.8676 2.67065 11.6869 3.01172C12.478 3.34106 13.1786 3.80591 13.7887 4.40649C14.3982 5.00659 14.87 5.69531 15.204 6.47266C15.5495 7.27661 15.7222 8.11914 15.7222 9L15.7422 8.97998L16.7022 8.97998L16.7222 9ZM15.7222 9L16.7222 9C16.7222 9.28003 16.5023 9.5 16.2222 9.5C15.9422 9.5 15.7222 9.28003 15.7222 9ZM12.0225 15.9316L11.6445 15.0059C11.9037 14.8999 12.1906 15.0205 12.2964 15.2798C12.4023 15.5388 12.2817 15.8257 12.0225 15.9316Z" fill-rule="evenodd" fill="#966000"/>
	<path id="矢量 742" d="M14.4445 8.125L16.2222 9.875L18 8.125" stroke="#966000" stroke-linecap="round"/>
	<defs/>
</svg>
