<svg width="16.000000" height="16.000000" viewBox="0 0 16 16" fill="none" xmlns="http://www.w3.org/2000/svg" xmlns:xlink="http://www.w3.org/1999/xlink">
	<desc>
			Created with Pixso.
	</desc>
	<rect id="矩形 607" rx="4.000000" width="16.000000" height="16.000000" fill="#A88B56"/>
	<path id="path" d="M11.5 5.32605C11.4338 4.83362 11.1223 4.55847 10.5645 4.5C10.236 4.52917 9.98975 4.64539 9.82593 4.84778L8.00415 7.15222L6.18237 4.84778C5.98547 4.64539 5.73926 4.52917 5.44385 4.5C4.85303 4.55847 4.54065 4.83362 4.5083 5.32605C4.47522 5.52917 4.54065 5.68884 4.70532 5.80432L6.28088 7.76086L5.24695 7.76086C4.88525 7.81934 4.68835 7.97827 4.65601 8.23914C4.65601 8.55847 4.85303 8.71741 5.24695 8.71741L7.06873 8.71741L7.06873 9.45654L5.24695 9.45654C4.88525 9.51489 4.68835 9.67395 4.65601 9.93481C4.65601 10.254 4.85303 10.4131 5.24695 10.4131L7.06873 10.4131L7.06873 11.7609C7.06873 12.2542 7.38025 12.5 8.00415 12.5C8.59497 12.5 8.90662 12.254 8.9397 11.7609L8.9397 10.4131L10.7615 10.4131C11.1223 10.4131 11.3192 10.254 11.3523 9.93481C11.2861 9.67395 11.0892 9.51489 10.7615 9.45654L8.9397 9.45654L8.9397 8.71741L10.7615 8.71741C11.1223 8.71741 11.3192 8.55847 11.3523 8.23914C11.2861 7.97827 11.0892 7.81934 10.7615 7.76086L9.72742 7.76086L11.3031 5.80432C11.4338 5.68884 11.5 5.52917 11.5 5.32605Z" fill-rule="evenodd" fill="#FFFFFF"/>
	<defs/>
</svg>
