<svg width="64.000000" height="22.000000" viewBox="0 0 64 22" fill="none" xmlns="http://www.w3.org/2000/svg" xmlns:xlink="http://www.w3.org/1999/xlink">
	<desc>
			Created with Pixso.
	</desc>
	<path id="path" d="M8.46106 7.21558L11.9713 18.5601L15.4816 7.21558L8.46106 7.21558Z" fill-rule="evenodd" fill="url(#paint_linear_35_213_0)"/>
	<path id="path" d="M9.20135 1.28003L5.15771 1.28003L1.99988 6.02905L7.14465 6.02905L9.20135 1.28003Z" fill-rule="evenodd" fill="url(#paint_linear_35_214_0)"/>
	<path id="path" d="M15.4116 6.02832L13.3545 1.28003L10.5845 1.28003L8.5282 6.02905L15.4116 6.02832Z" fill-rule="evenodd" fill="url(#paint_linear_35_215_0)"/>
	<path id="path" d="M2.29138 7.21631L5.77374 11.2986C5.7821 11.2949 10.3073 16.6128 10.3073 16.6128L7.10883 7.21631L2.29138 7.21631Z" fill-rule="evenodd" fill="url(#paint_linear_35_216_0)"/>
	<path id="path" d="M14.7386 1.28003L16.7956 6.02832L21.9999 6.02905L18.7825 1.28003L14.7386 1.28003Z" fill-rule="evenodd" fill="url(#paint_linear_35_217_0)"/>
	<path id="path" d="M13.7095 16.5347L19.7606 9.48682C19.7495 9.48193 21.7006 7.21655 21.7006 7.21655L16.8303 7.21655L13.7095 16.5347Z" fill-rule="evenodd" fill="url(#paint_linear_35_218_0)"/>
	<path id="path" d="M61.061 16.6401L18.963 16.6401C18.123 16.6401 17.6783 15.6289 18.2713 15.051L25.1888 7.58765C25.4852 7.25073 25.5347 6.76929 25.2382 6.38403L22.6194 2.77271C22.1747 2.14673 22.6194 1.28003 23.41 1.28003L61.061 1.28003C61.6045 1.28003 61.9998 1.71338 61.9998 2.24292L61.9998 15.7251C61.9998 16.2068 61.5551 16.6401 61.061 16.6401L61.061 16.6401Z" fill-rule="evenodd" fill="#2C3138"/>
	<path id="企业版" d="M28.3198 8.01953C30.1289 7.30908 31.9307 6.02002 32.9194 4.521L33.7593 4.91895C33.6909 5.02881 33.6104 5.12891 33.5298 5.24121C34.7896 6.6499 36.2397 7.40918 37.729 8.00977C37.4995 8.20996 37.2407 8.52979 37.1309 8.82031C35.6807 8.13916 34.3306 7.34082 33.0098 5.88086C31.9209 7.10889 30.4609 8.12939 28.9595 8.81055C28.8203 8.56885 28.5591 8.23926 28.3198 8.01953ZM52.4189 8.11963L49.8799 8.11963L49.8799 8.72021C49.8799 8.94971 49.8799 9.1792 49.8701 9.4209L51.8599 9.4209L51.8599 13.7788L51.02 13.7788L51.02 10.251L49.8408 10.251C49.77 11.5498 49.5601 12.8608 48.9912 13.8301C48.8398 13.6592 48.5298 13.3809 48.3198 13.2588C48.9497 12.021 49.0303 10.1899 49.0303 8.72998L49.0303 4.84082L49.8799 4.84082L49.8799 7.29932L50.7905 7.29932L50.7905 4.59912L51.6304 4.59912L51.6304 7.29932L52.4189 7.29932L52.4189 8.11963ZM56.6206 7.44092L56.7793 7.40918L57.3311 7.55078C57.1089 9.2793 56.6499 10.6489 55.981 11.7109C56.4302 12.2896 56.9697 12.751 57.6094 13.0806C57.3994 13.2393 57.1211 13.5811 56.9795 13.8301C56.3789 13.481 55.8711 13.0195 55.439 12.4507C54.9409 13.0293 54.3794 13.481 53.73 13.8301C53.6104 13.5908 53.3711 13.2393 53.1807 13.0708C53.8398 12.7607 54.4209 12.2798 54.9189 11.6401C54.3892 10.6904 54.0107 9.55029 53.7495 8.28076L53.6909 8.28076L53.6909 8.62988C53.6909 10.3096 53.5688 12.4312 52.7095 13.8691C52.541 13.7104 52.1895 13.459 51.9697 13.3394C52.7095 12.0405 52.7998 10.0801 52.7998 8.62988L52.7998 5.25098C54.25 5.15088 55.9004 4.94092 56.9307 4.68945L57.4897 5.49023C56.4204 5.72949 54.9995 5.90039 53.6909 6.00049L53.6909 7.44092L56.6206 7.44092ZM44.709 4.75049L44.709 12.3799L47.3994 12.3799L47.3994 13.3003L38.6104 13.3003L38.6104 12.3799L41.3008 12.3799L41.3008 4.74072L42.2505 4.74072L42.2505 12.3799L43.7593 12.3799L43.7593 4.75049L44.709 4.75049ZM39.6504 6.79883C40.1509 7.93896 40.749 9.44043 41.0103 10.3389L40.0801 10.6807C39.8506 9.76025 39.2891 8.21973 38.8008 7.06982L39.6504 6.79883ZM44.8311 10.3511C45.3608 9.44043 46.0396 7.98047 46.4106 6.83057L47.2603 7.24072C46.7891 8.42969 46.1396 9.80908 45.6001 10.749L44.8311 10.3511ZM36.3496 10.3901L33.5688 10.3901L33.5688 12.6606L37.2603 12.6606L37.2603 13.5103L28.8105 13.5103L28.8105 12.6606L29.9995 12.6606L29.9995 9.0791L30.9102 9.0791L30.9102 12.6606L32.5898 12.6606L32.5898 7.37012L33.5688 7.37012L33.5688 9.56006L36.3496 9.56006L36.3496 10.3901ZM55.4292 10.8809C55.8491 10.1411 56.1592 9.26953 56.3594 8.28076L54.4795 8.28076C54.6992 9.23047 55.0093 10.1094 55.4292 10.8809Z" fill="url(#paint_linear_35_221_0)"/>
	<defs>
		<linearGradient id="paint_linear_35_213_0" x1="11.971349" y1="7.215576" x2="11.971349" y2="18.560127" gradientUnits="userSpaceOnUse">
			<stop stop-color="#9E6700"/>
			<stop offset="0.587786" stop-color="#E89A02"/>
			<stop offset="1.000000" stop-color="#FFB34C"/>
		</linearGradient>
		<linearGradient id="paint_linear_35_214_0" x1="5.600610" y1="1.280029" x2="5.600610" y2="6.029069" gradientUnits="userSpaceOnUse">
			<stop stop-color="#9E6700"/>
			<stop offset="0.587786" stop-color="#E89A02"/>
			<stop offset="1.000000" stop-color="#FFB34C"/>
		</linearGradient>
		<linearGradient id="paint_linear_35_215_0" x1="11.969872" y1="1.280029" x2="11.969872" y2="6.029069" gradientUnits="userSpaceOnUse">
			<stop stop-color="#9E6700"/>
			<stop offset="0.587786" stop-color="#E89A02"/>
			<stop offset="1.000000" stop-color="#FFB34C"/>
		</linearGradient>
		<linearGradient id="paint_linear_35_216_0" x1="6.299360" y1="7.216309" x2="6.299360" y2="16.612835" gradientUnits="userSpaceOnUse">
			<stop stop-color="#9E6700"/>
			<stop offset="0.587786" stop-color="#E89A02"/>
			<stop offset="1.000000" stop-color="#FFB34C"/>
		</linearGradient>
		<linearGradient id="paint_linear_35_217_0" x1="18.369263" y1="1.280029" x2="18.369263" y2="6.029069" gradientUnits="userSpaceOnUse">
			<stop stop-color="#9E6700"/>
			<stop offset="0.587786" stop-color="#E89A02"/>
			<stop offset="1.000000" stop-color="#FFB34C"/>
		</linearGradient>
		<linearGradient id="paint_linear_35_218_0" x1="17.705017" y1="7.216553" x2="17.705017" y2="16.534695" gradientUnits="userSpaceOnUse">
			<stop stop-color="#9E6700"/>
			<stop offset="0.587786" stop-color="#E89A02"/>
			<stop offset="1.000000" stop-color="#FFB34C"/>
		</linearGradient>
		<linearGradient id="paint_linear_35_221_0" x1="58.000000" y1="8.499998" x2="28.499981" y2="8.000004" gradientUnits="userSpaceOnUse">
			<stop offset="0.001834" stop-color="#D48823"/>
			<stop offset="0.508981" stop-color="#FAC240"/>
			<stop offset="0.969974" stop-color="#E8A936"/>
		</linearGradient>
	</defs>
</svg>
