<svg width="18.000000" height="20.000000" viewBox="0 0 18 20" fill="none" xmlns="http://www.w3.org/2000/svg" xmlns:xlink="http://www.w3.org/1999/xlink">
	<desc>
			Created with Pixso.
	</desc>
	<path id="矢量 751" d="M6.98389 10.7246C6.98389 11.427 6.35132 11.9988 5.31006 11.9988C4.65857 11.9988 4.05127 11.7603 3.61743 11.3557L4.05762 10.8787C4.3999 11.1943 4.86523 11.3979 5.32434 11.3979C5.89856 11.3979 6.22192 11.1479 6.22192 10.7783C6.22192 10.3784 5.89856 10.2534 5.45996 10.0745L4.80054 9.81274C4.34155 9.63379 3.83044 9.30078 3.83044 8.66235C3.83044 7.97144 4.48975 7.45361 5.39526 7.45361C5.95056 7.45361 6.47437 7.66748 6.83557 8.00781L6.44116 8.44849C6.14465 8.2041 5.81494 8.05566 5.39526 8.05566C4.91101 8.05566 4.59387 8.26953 4.59387 8.62158C4.59387 8.99683 4.97412 9.1394 5.36218 9.28174L6.01526 9.53931C6.5769 9.75879 6.98389 10.0803 6.98389 10.7246ZM9.12891 11.9988C10.17 11.9988 10.8026 11.427 10.8026 10.7246C10.8026 10.0803 10.3956 9.75879 9.83411 9.53931L9.18091 9.28174C8.79285 9.1394 8.41272 8.99683 8.41272 8.62158C8.41272 8.26953 8.72974 8.05566 9.21411 8.05566C9.63367 8.05566 9.96338 8.2041 10.26 8.44849L10.6544 8.00781C10.2931 7.66748 9.76941 7.45361 9.21411 7.45361C8.30859 7.45361 7.64917 7.97144 7.64917 8.66235C7.64917 9.30078 8.16028 9.63379 8.61938 9.81274L9.27881 10.0745C9.71729 10.2534 10.0408 10.3784 10.0408 10.7783C10.0408 11.1479 9.71729 11.3979 9.14307 11.3979C8.68408 11.3979 8.21863 11.1943 7.87634 10.8787L7.43628 11.3557C7.87 11.7603 8.47742 11.9988 9.12891 11.9988ZM14.46 11.9216L11.7009 11.9216L11.7009 7.53662L12.4502 7.53662L12.4502 11.3384L14.46 11.3384L14.46 11.9216Z" fill-rule="evenodd" fill="#F08900"/>
	<path id="矢量 743" d="M9 2C10.3995 3.33325 14.1329 4.22217 16 4.22217L16 11.6682C15.8446 13.1863 14.2268 16.5776 9 18C7.28918 17.7788 2 14.4443 2 11.6682L2 4.22217C3.8667 4.07397 7.59949 3.33325 9 2L9 2Z" stroke="#F08900" stroke-width="0.800000"/>
	<defs/>
</svg>
