<svg width="16.000000" height="16.000000" viewBox="0 0 16 16" fill="none" xmlns="http://www.w3.org/2000/svg" xmlns:xlink="http://www.w3.org/1999/xlink">
	<desc>
			Created with Pixso.
	</desc>
	<rect id="矩形 609" rx="4.000000" width="16.000000" height="16.000000" fill="#A88B56"/>
	<rect id="矩形 605" x="2.000000" y="3.000000" width="12.000000" height="10.000000" fill="#FFFFFF"/>
	<path id="path" d="M5.28699 5.31018C5.00879 5.31018 4.73047 5.49573 4.73047 5.77393C4.73047 6.05225 5.00879 6.23767 5.28699 6.23767C5.56531 6.23767 5.75073 6.05225 5.75073 5.77393C5.75073 5.48413 5.56531 5.31018 5.28699 5.31018ZM9.05505 8C8.86963 8 8.69568 8.19714 8.69568 8.37109C8.69568 8.56812 8.88123 8.74207 9.05505 8.74207C9.33337 8.74207 9.51892 8.55652 9.51892 8.37109C9.51892 8.18555 9.33337 8 9.05505 8ZM7.86096 6.23767C8.13916 6.23767 8.32471 6.04065 8.32471 5.77393C8.32471 5.49573 8.13916 5.31018 7.86096 5.31018C7.58264 5.31018 7.30444 5.49573 7.30444 5.77393C7.30444 6.05225 7.58264 6.23767 7.86096 6.23767ZM11.0725 8C10.887 8 10.7131 8.19714 10.7131 8.37109C10.7131 8.56812 10.8986 8.74207 11.0725 8.74207C11.3507 8.74207 11.5363 8.55652 11.5363 8.37109C11.5363 8.18555 11.3507 8 11.0725 8Z" fill-rule="evenodd" fill="#A88B56"/>
	<path id="path" d="M8 0C3.58264 0 0 3.58264 0 8C0 12.4174 3.58264 16 8 16C12.4174 16 16 12.4174 16 8C16 3.58264 12.4174 0 8 0ZM6.4812 10.0521C6.01733 10.0521 5.64636 9.95947 5.20581 9.8551L3.93042 10.5044L4.28979 9.37976C3.3739 8.73047 2.81738 7.88403 2.81738 6.87537C2.81738 5.10144 4.47534 3.71021 6.4812 3.71021C8.27832 3.71021 9.8667 4.82324 10.1797 6.31885C10.0637 6.30725 9.94788 6.29565 9.83191 6.29565C8.09277 6.31885 6.72461 7.62903 6.72461 9.2522C6.72461 9.5188 6.771 9.77393 6.84058 10.0289C6.72461 10.0405 6.59705 10.0521 6.4812 10.0521ZM11.9072 11.3507L12.1855 12.2783L11.1884 11.7217C10.829 11.8145 10.458 11.9072 10.0869 11.9072C8.33618 11.9072 6.95654 10.7014 6.95654 9.20581C6.94495 7.72168 8.32458 6.51599 10.0637 6.51599C11.7217 6.51599 13.1826 7.73328 13.1826 9.21741C13.1826 10.0521 12.6377 10.7942 11.9072 11.3507Z" fill-rule="evenodd" fill="#A88B56"/>
	<defs/>
</svg>
