<svg width="105.000000" height="52.000000" viewBox="0 0 105 52" fill="none" xmlns="http://www.w3.org/2000/svg" xmlns:xlink="http://www.w3.org/1999/xlink">
	<desc>
			Created with Pixso.
	</desc>
	<path id="矢量 937" d="M105 50L105 2.01099C105 0.90625 104.105 0.0109863 103 0.0109863L49.8077 0.0109863C45.0214 -0.192139 35.4487 2.36719 35.4487 14.2297C35.4487 26.092 25.8761 32.0371 21.0898 33.5266C14.5833 35.1516 1.25643 41.4373 0 52L103 52C104.105 52 105 51.1045 105 50Z" fill-rule="evenodd" fill="#FFCE07" fill-opacity="0.160000"/>
	<path id="矢量 938" d="M105 49.7969L105 2C105 0.895508 104.105 0 103 0L82.3397 0C79.3483 0.609375 71.8846 1.82812 65.9615 1.82812C58.5577 1.82812 52.5 0.8125 52.5 10.7656C52.5 20.7188 54.968 41.2344 37.4679 35.1406C32.9808 33.9219 24.4103 35.5469 26.0257 51.7969L103 51.7969C104.105 51.7969 105 50.9014 105 49.7969Z" fill-rule="evenodd" fill="#FDB320" fill-opacity="0.160000"/>
	<path id="矢量 939" d="M105 50L105 2C105 0.895508 104.105 0 103 0L91.3141 0C88.2479 0.067627 82.1154 2.39673 82.1154 11.1719C82.1154 22.1406 76.0577 27.219 67.3077 23.7659C60.3077 21.0034 57.6603 25.594 57.2115 28.2346C56.0897 35.4792 50.6603 49.0752 37.9167 45.5002C25.1731 41.925 16.1165 48.4114 13.125 52L103 52C104.105 52 105 51.1045 105 50Z" fill-rule="evenodd" fill="#F8982A" fill-opacity="0.160000"/>
	<path id="矢量 940" d="M105 50L105 18.3313C98.7927 16.9512 84.5385 19.1594 77.1795 39.0344C76.7308 39.9316 74.4872 41.7273 69.1026 41.7273C62.3718 41.7273 47.8718 36.6782 38 52L103 52C104.105 52 105 51.1045 105 50Z" fill-rule="evenodd" fill="#F58030" fill-opacity="0.160000"/>
	<path id="矢量 941" d="M53 52L103 52C104.105 52 105 51.1045 105 50L105 36C100.064 36.552 89.609 37.4907 87.2756 36.8281C84.359 36 75.8333 34.1367 70.4487 43.4531C66.141 50.9062 56.8141 51.793 53 52Z" fill-rule="evenodd" fill="#F05E34" fill-opacity="0.160000"/>
	<path id="矢量 942" d="M105 28C103.429 28.6211 100.154 31.9336 99.6154 40.2148C99.0769 48.4961 92.5107 48.22 89.2949 47.0469C84.2094 45.6667 73.2949 45.375 71.5 52L103 52C104.105 52 105 51.1045 105 50L105 28Z" fill-rule="evenodd" fill="#EE4038" fill-opacity="0.160000"/>
	<defs/>
</svg>
