<svg width="11.903809" height="16.000000" viewBox="0 0 11.9038 16" fill="none" xmlns="http://www.w3.org/2000/svg" xmlns:xlink="http://www.w3.org/1999/xlink">
	<desc>
			Created with Pixso.
	</desc>
	<path id="path" d="M3.37988 13.05L8.47449 13.05C8.74585 13.05 8.99255 13.2625 8.99255 13.575C8.99255 13.85 8.78284 14.1 8.47449 14.1L3.37988 14.1C3.10852 14.1 2.86182 13.8875 2.86182 13.575C2.86182 13.2625 3.07153 13.05 3.37988 13.05ZM8.05505 14.875L3.79932 14.875C3.72534 14.875 3.70068 14.975 3.76233 15.05L5.31653 15.8625C5.48926 15.9375 5.69897 16 5.94568 16C6.1554 16 6.32812 15.925 6.53784 15.8625L8.09204 15.05C8.16614 14.9875 8.12903 14.875 8.05505 14.875ZM5.84705 3.47498C6.47607 3.47498 7.01892 3.72498 7.57397 4.25C8.12903 4.73749 8.37573 5.375 8.37573 6.15002C8.37573 6.40002 8.58545 6.67499 8.89392 6.67499C9.16528 6.67499 9.41199 6.42499 9.41199 6.15002C9.41199 5.02502 9.06653 4.15002 8.33875 3.48749C7.61096 2.82501 6.78455 2.5 5.84705 2.5C5.57568 2.5 5.32886 2.71252 5.32886 3.02502C5.35364 3.22498 5.56323 3.47498 5.84705 3.47498Z" fill-rule="evenodd" fill="url(#paint_linear_16_217_0)"/>
	<path id="path" d="M8.1908 12.175L3.6637 12.175C3.14563 12.175 2.7262 11.7875 2.66455 11.2625C2.59045 11.1625 2.41785 10.9125 2.35608 10.8375C0.863525 9.67499 0 7.92499 0 6.02502C-0.0123291 2.70001 2.65222 0 5.9458 0C9.23938 0 11.9038 2.70001 11.9038 6.03748C11.9038 7.96252 11.0403 9.72498 9.51074 10.875C9.43665 10.95 9.26404 11.15 9.20227 11.3C9.1283 11.75 8.72119 12.175 8.1908 12.175ZM3.79932 10.9875L8.05518 10.9875C8.15381 10.5625 8.57324 10.075 8.78296 9.90002C9.99182 8.98749 10.6826 7.54999 10.6826 6C10.6826 3.33752 8.53625 1.16248 5.90869 1.16248C3.28125 1.16248 1.13489 3.33752 1.13489 6C1.13489 7.53748 1.82568 8.95001 3.03455 9.86249C3.24426 10.0375 3.68835 10.525 3.79932 10.9875Z" fill-rule="evenodd" fill="url(#paint_linear_16_218_0)"/>
	<defs>
		<linearGradient id="paint_linear_16_217_0" x1="2.861816" y1="9.249997" x2="9.411961" y2="9.249997" gradientUnits="userSpaceOnUse">
			<stop stop-color="#E8A833"/>
			<stop offset="1.000000" stop-color="#B48A52"/>
		</linearGradient>
		<linearGradient id="paint_linear_16_218_0" x1="0.000000" y1="6.087500" x2="11.903786" y2="6.087500" gradientUnits="userSpaceOnUse">
			<stop stop-color="#E8A833"/>
			<stop offset="1.000000" stop-color="#B48A52"/>
		</linearGradient>
	</defs>
</svg>
