<svg width="20.000000" height="18.000000" viewBox="0 0 20 18" fill="none" xmlns="http://www.w3.org/2000/svg" xmlns:xlink="http://www.w3.org/1999/xlink">
	<desc>
			Created with Pixso.
	</desc>
	<path id="path" d="M16.7573 3.31738C16.5596 3.10864 16.3446 2.92261 16.1123 2.75854C15.8801 2.59473 15.6349 2.45654 15.377 2.34351C15.1189 2.23071 14.853 2.14551 14.5792 2.08813C14.3054 2.03052 14.0289 2.00171 13.7498 2.00171C13.4706 2.00171 13.1941 2.03052 12.9203 2.08813C12.6464 2.14551 12.3805 2.23071 12.1226 2.34351C11.8645 2.45654 11.6194 2.59473 11.3871 2.75854C11.1548 2.92261 10.9398 3.10864 10.7422 3.31738L10.0022 4.10132L9.26013 3.31738C8.86218 2.89404 8.40259 2.56836 7.88135 2.33984C7.35999 2.11157 6.81726 1.99829 6.25305 2C5.68896 1.99829 5.14648 2.11157 4.62524 2.34009C4.10413 2.56836 3.64478 2.89404 3.24707 3.31738C2.44202 4.16797 2 5.29785 2 6.49976C2 7.7019 2.44202 8.83179 3.24597 9.6814L4.34509 10.8442L8.66418 15.4138C9.02112 15.7915 9.49512 16 10.0001 16C10.5042 16 10.9802 15.7927 11.3362 15.4138L16.7552 9.68042C16.9525 9.47144 17.1287 9.24414 17.2836 8.99829C17.4386 8.75269 17.5695 8.49341 17.6763 8.2207C17.7831 7.94775 17.8636 7.6665 17.9181 7.37671C17.9727 7.08716 17.9999 6.79468 18 6.49927C18.0001 6.20386 17.973 5.91138 17.9187 5.62158C17.8644 5.33203 17.7839 5.05054 17.6774 4.77759C17.5707 4.50464 17.4401 4.24536 17.2852 3.99951C17.1304 3.75391 16.9543 3.52637 16.7573 3.31738L16.7573 3.31738M3.96301 8.92163C3.65845 8.60107 3.42383 8.23071 3.25928 7.81079C3.09485 7.39087 3.01306 6.95337 3.01404 6.49878C3.01404 5.5835 3.35205 4.72339 3.96301 4.07593C5.18604 2.78198 7.31909 2.78198 8.54309 4.07593L9.24316 4.81543L7.56409 6.60986C7.4165 6.7666 7.29358 6.94263 7.19519 7.13794C7.0968 7.33301 7.02734 7.53931 6.98669 7.75635C6.94617 7.97339 6.93604 8.19189 6.95667 8.41211C6.97717 8.63232 7.02747 8.84448 7.10754 9.04907C7.1875 9.25342 7.29382 9.44116 7.42639 9.6123C7.55896 9.78345 7.71204 9.93042 7.88586 10.0537C8.05957 10.1768 8.24646 10.2705 8.44641 10.3352C8.64648 10.3997 8.85107 10.4321 9.06018 10.4326C9.60315 10.4326 10.1461 10.2136 10.5592 9.77661L12.2372 7.98438L14.5823 10.4653L10.6212 14.6562C10.6082 14.6689 10.5922 14.6743 10.5791 14.686C10.2432 14.9971 9.70117 14.9917 9.38208 14.6562L3.96301 8.92163M16.0403 8.92285L15.2982 9.70776L12.9502 7.22241L12.6532 6.9082L12.1902 6.4248L9.80017 8.97681C9.7019 9.08032 9.58875 9.16016 9.46045 9.21631C9.33228 9.27246 9.19885 9.30029 9.06018 9.30029C8.92139 9.30029 8.78796 9.27246 8.65979 9.21631C8.53162 9.16016 8.41833 9.08032 8.32007 8.97681C8.22205 8.87256 8.14648 8.75269 8.09338 8.6167C8.04041 8.48071 8.01404 8.33936 8.01416 8.19238C8.0144 8.04517 8.04114 7.90381 8.09448 7.76807C8.14783 7.63232 8.22375 7.51245 8.32214 7.40869L10.1902 5.41431L11.4592 4.07812C11.6097 3.91919 11.7734 3.77734 11.9503 3.65234C12.1272 3.52759 12.3138 3.42212 12.5104 3.33618C12.7069 3.25024 12.9094 3.1853 13.1179 3.1416C13.3265 3.09766 13.5371 3.07593 13.7498 3.07593C13.9624 3.07593 14.173 3.09766 14.3815 3.1416C14.5901 3.1853 14.7926 3.25024 14.989 3.33618C15.1855 3.42212 15.3722 3.52759 15.5492 3.65234C15.7261 3.77734 15.8898 3.91919 16.0403 4.07812C16.1903 4.2373 16.3243 4.4104 16.4423 4.59741C16.5602 4.78442 16.6597 4.98193 16.741 5.1897C16.8221 5.39746 16.8834 5.61182 16.9248 5.83228C16.9662 6.05273 16.9869 6.27563 16.9869 6.50049C16.9869 6.72534 16.9662 6.948 16.9248 7.16846C16.8834 7.38916 16.8221 7.60327 16.741 7.81104C16.6597 8.0188 16.5602 8.21631 16.4423 8.40332C16.3243 8.59033 16.1903 8.76367 16.0403 8.92285L16.0403 8.92285Z" fill-rule="evenodd" fill="#F08900"/>
	<defs/>
</svg>
