<svg width="18.000000" height="18.000000" viewBox="0 0 18 18" fill="none" xmlns="http://www.w3.org/2000/svg" xmlns:xlink="http://www.w3.org/1999/xlink">
	<desc>
			Created with Pixso.
	</desc>
	<path id="椭圆 211" d="M14.3033 14.3033C13.6115 14.9952 12.8169 15.5309 11.9194 15.9104C10.9902 16.3035 10.017 16.5 9 16.5C7.98303 16.5 7.00977 16.3035 6.08057 15.9104C5.18311 15.5309 4.38855 14.9951 3.69666 14.3033C3.00488 13.6115 2.46912 12.8168 2.0896 11.9195C1.69653 10.9902 1.5 10.017 1.5 9C1.5 7.98297 1.69653 7.0098 2.0896 6.08051C2.46912 5.18317 3.00488 4.38855 3.69666 3.69669C4.38855 3.00485 5.18311 2.46915 6.08057 2.0896C7.00977 1.69653 7.98303 1.5 9 1.5C10.017 1.5 10.9902 1.69653 11.9194 2.0896C12.8169 2.46915 13.6115 3.00485 14.3033 3.69669C14.9951 4.38855 15.5309 5.18317 15.9104 6.08051C16.3035 7.0098 16.5 7.98297 16.5 9C16.5 9.99863 16.3103 10.9555 15.9309 11.8706C15.8236 12.1292 15.5361 12.2482 15.2775 12.141C15.0189 12.0337 14.8999 11.7462 15.0071 11.4876C15.3357 10.6951 15.5 9.86591 15.5 9C15.5 8.11816 15.3298 7.27484 14.9894 6.47006C14.6605 5.69247 14.1962 5.00372 13.5962 4.40381C12.9963 3.80389 12.3075 3.33948 11.5299 3.01059C10.7251 2.6702 9.88184 2.5 9 2.5C8.11816 2.5 7.2749 2.6702 6.47009 3.01059C5.6925 3.33948 5.00366 3.80389 4.40381 4.40381C3.80383 5.00372 3.33948 5.69247 3.01062 6.47006C2.67017 7.27484 2.5 8.11816 2.5 9C2.5 9.88184 2.67017 10.7252 3.01062 11.5299C3.33948 12.3075 3.80383 12.9963 4.40381 13.5962C5.00366 14.1961 5.6925 14.6605 6.47009 14.9894C7.2749 15.3298 8.11816 15.5 9 15.5C9.88184 15.5 10.7251 15.3298 11.5299 14.9894C12.3075 14.6605 12.9963 14.1961 13.5962 13.5962C13.7942 13.3982 14.1053 13.3982 14.3033 13.5962C14.5013 13.7942 14.5013 14.1053 14.3033 14.3033Z" fill-rule="evenodd" fill="#EFA209"/>
	<path id="矢量 1008" d="M7.38428 10.7494L5 10.7494L5 10.2366L5.91431 10.2366L5.91431 7.47217L5.16492 7.47217L5.16492 7.078C5.55688 7.00684 5.83398 6.91586 6.07227 6.77481L6.56689 6.77481L6.56689 10.2366L7.38428 10.2366L7.38428 10.7494ZM9.26794 10.8193C9.99939 10.8193 10.6755 10.3223 10.6755 9.44299C10.6755 8.57294 10.1019 8.17877 9.40369 8.17877C9.17651 8.17877 9.0061 8.23282 8.8302 8.31982L8.92712 7.2995L10.476 7.2995L10.476 6.77481L8.35913 6.77481L8.2345 8.65994L8.5531 8.85901C8.79688 8.70874 8.95483 8.63226 9.22217 8.63226C9.69885 8.63226 10.016 8.93546 10.016 9.46411C10.016 9.99405 9.65857 10.3118 9.18762 10.3118C8.75122 10.3118 8.45056 10.1127 8.21228 9.88596L7.90063 10.2906C8.19568 10.5662 8.60986 10.8193 9.26794 10.8193ZM12.8488 10.1391L12.3486 10.1391L12.3486 8.97238L11.1974 8.97238L11.1974 8.51889L12.3486 8.51889L12.3486 7.35355L12.8488 7.35355L12.8488 8.51889L14 8.51889L14 8.97238L12.8488 8.97238L12.8488 10.1391Z" fill-rule="evenodd" fill="#EFA209"/>
	<defs/>
</svg>
