<svg width="69.733459" height="69.641846" viewBox="0 0 69.7335 69.6418" fill="none" xmlns="http://www.w3.org/2000/svg" xmlns:xlink="http://www.w3.org/1999/xlink">
	<desc>
			Created with Pixso.
	</desc>
	<path id="合并" d="M7.71149 27.728C7.7113 25.5564 9.45984 23.79 11.6171 23.7825C13.7743 23.7749 15.5232 25.5293 15.5234 27.7009C15.5235 28.4736 15.3021 29.1953 14.9196 29.8044L24.2938 35.8972L32.2849 19.7791C31.179 19.0886 30.4431 17.8555 30.4431 16.447C30.4431 14.2754 32.1918 12.509 34.3489 12.5015C36.5062 12.4941 38.2549 14.2483 38.255 16.4199C38.2551 17.8567 37.4896 19.116 36.3467 19.8062L44.8889 35.8257L52.9604 29.5344C52.6342 28.9612 52.4477 28.2964 52.4477 27.5874C52.4476 25.416 54.1964 23.6494 56.3536 23.6421C58.5108 23.6345 60.2596 25.3889 60.2596 27.5603C60.2596 29.7319 58.5109 31.4983 56.3537 31.5059C56.0156 31.5071 55.6876 31.4648 55.3748 31.3848L51.0448 53.2002L17.9033 53.3152L12.0198 31.6243C11.8876 31.6384 11.7536 31.6458 11.6179 31.6462C9.46069 31.6538 7.71173 29.8994 7.71149 27.728L7.71149 27.728Z" clip-rule="evenodd" fill-rule="evenodd" fill="#FF9200" fill-opacity="0.060000"/>
	<defs/>
</svg>
