<svg width="148.000000" height="84.000000" viewBox="0 0 148 84" fill="none" xmlns="http://www.w3.org/2000/svg" xmlns:xlink="http://www.w3.org/1999/xlink">
	<desc>
			Created with Pixso.
	</desc>
	<path id="矢量 712" d="M0 83.9839L0 18.27L14.8462 41.8447L0 83.9839Z" fill-rule="evenodd" fill="#FF9812" fill-opacity="0.350000"/>
	<path id="矢量 713" d="M0.00146484 83.9854L14.8477 41.8457L37.1167 55.9902L0.00146484 83.9854Z" fill-rule="evenodd" fill="#FFAB3E" fill-opacity="0.350000"/>
	<path id="矢量 714" d="M0.00146484 83.9849L37.1167 55.9902L71.4482 70.4297L0.00146484 83.9849Z" fill-rule="evenodd" fill="#FFBB62" fill-opacity="0.350000"/>
	<path id="矢量 715" d="M0.00146484 83.9854L71.4482 70.4302L56.1382 83.9854L0.00146484 83.9854Z" fill-rule="evenodd" fill="#FFAB3E" fill-opacity="0.350000"/>
	<path id="矢量 716" d="M54.748 84L85.3682 83.9839L71.45 70.4287L54.748 84Z" fill-rule="evenodd" fill="#FFC579" fill-opacity="0.350000"/>
	<path id="矢量 717" d="M31.0864 38.8979L67.7373 0L14.384 0L0.00195312 10.019L0.00195312 18.27L14.8484 41.8447L31.0864 38.8979Z" fill-rule="evenodd" fill="#FFB657" fill-opacity="0.350000"/>
	<path id="矢量 718" d="M14.8472 41.8447L31.0852 38.8979L43.1418 44.5879L37.1162 55.9893L14.8472 41.8447Z" fill-rule="evenodd" fill="#FFC983" fill-opacity="0.350000"/>
	<path id="矢量 719" d="M31.0859 38.8989L67.7373 0.000976562L83.9751 38.6045L31.0859 38.8989Z" fill-rule="evenodd" fill="#FCC071" fill-opacity="0.350000"/>
	<path id="矢量 720" d="M31.0859 38.8999L83.9751 38.605L37.1172 55.9912L42.6843 44.7935L31.0859 38.8999Z" fill-rule="evenodd" fill="#FFC983" fill-opacity="0.350000"/>
	<path id="矢量 721" d="M37.1177 55.9902L83.9756 38.604L101.153 58.915L71.4492 70.4297L37.1177 55.9902Z" fill-rule="evenodd" fill="#FFD296" fill-opacity="0.350000"/>
	<path id="矢量 722" d="M0.00170898 10.019L0.00170898 2C0.00170898 0.895508 0.897217 0 2.00171 0L45.3916 0L0.00170898 10.019Z" fill-rule="evenodd" fill="#FF9812" fill-opacity="0.350000"/>
	<path id="矢量 723" d="M71.45 70.4302L85.3682 83.9854L106.656 83.9854L148 83.9854L71.45 70.4302Z" fill-rule="evenodd" fill="#FFCD8C" fill-opacity="0.350000"/>
	<path id="矢量 724" d="M71.45 70.4287L148 83.9839L101.142 58.936L71.45 70.4287Z" fill-rule="evenodd" fill="#FFD9A7" fill-opacity="0.350000"/>
	<defs/>
</svg>
