<svg width="20.000000" height="18.000000" viewBox="0 0 20 18" fill="none" xmlns="http://www.w3.org/2000/svg" xmlns:xlink="http://www.w3.org/1999/xlink">
	<desc>
			Created with Pixso.
	</desc>
	<path id="path" d="M16.7573 4.12988C16.5596 3.91309 16.3446 3.71948 16.1124 3.54907C15.8801 3.37866 15.6349 3.23462 15.377 3.11743C15.119 3 14.853 2.91138 14.5792 2.85156C14.3054 2.79175 14.0289 2.76172 13.7497 2.76172C13.4706 2.76172 13.1941 2.79175 12.9202 2.85156C12.6464 2.91138 12.3805 3 12.1225 3.11743C11.8645 3.23462 11.6194 3.37866 11.3871 3.54907C11.1548 3.71948 10.9398 3.91309 10.7422 4.12988L10.0022 4.94531L9.26013 4.12988C8.86223 3.68994 8.40263 3.35107 7.88133 3.11353C7.36003 2.87598 6.81729 2.7583 6.25308 2.76001C5.68903 2.7583 5.14644 2.87598 4.62531 3.11353C4.10417 3.35107 3.64474 3.68994 3.24702 4.12988C2.442 5.01465 2 6.18994 2 7.43994C2 8.68994 2.442 9.86499 3.24602 10.7485L4.34505 11.958L8.66412 16.7104C9.02113 17.1033 9.49515 17.3201 10.0002 17.3201C10.5042 17.3201 10.9802 17.1042 11.3362 16.7104L16.7553 10.7476C16.9525 10.5303 17.1286 10.2937 17.2836 10.0383C17.4386 9.78296 17.5695 9.51318 17.6763 9.22949C17.783 8.94556 17.8637 8.65308 17.9181 8.35181C17.9726 8.05054 17.9999 7.74634 18 7.43921C18.0001 7.13208 17.973 6.82788 17.9187 6.52661C17.8644 6.22534 17.784 5.93262 17.6773 5.64868C17.5707 5.36499 17.44 5.09521 17.2852 4.8396C17.1304 4.58398 16.9544 4.34741 16.7573 4.12988L16.7573 4.12988M3.96304 9.9585C3.6584 9.62524 3.42384 9.23999 3.25932 8.80322C3.09482 8.36646 3.01305 7.91162 3.01402 7.43872C3.01402 6.48706 3.35202 5.59229 3.96304 4.91895C5.18607 3.57324 7.31911 3.57324 8.54312 4.91895L9.24313 5.68799L7.5641 7.5542C7.4165 7.71729 7.29353 7.90039 7.19519 8.10327C7.09686 8.3064 7.02737 8.52075 6.98676 8.74658C6.94612 8.97217 6.9361 9.19971 6.95667 9.42847C6.97723 9.65747 7.02751 9.87842 7.10751 10.0908C7.1875 10.3035 7.29379 10.4988 7.42635 10.6768C7.55891 10.8547 7.71207 11.0078 7.8858 11.1357C8.05956 11.2637 8.24643 11.3613 8.44644 11.4285C8.64645 11.4956 8.85103 11.5295 9.06013 11.53C9.60315 11.53 10.1461 11.3022 10.5592 10.8477L12.2372 8.98364L14.5822 11.564L10.6212 15.9226C10.6082 15.9358 10.5922 15.9412 10.5792 15.9534C10.2432 16.2769 9.70114 16.2715 9.38214 15.9226L3.96304 9.9585M16.0403 9.95972L15.2982 10.7761L12.9502 8.19141L12.6532 7.8645L12.1902 7.36182L9.80016 10.0159C9.70192 10.1235 9.58871 10.2065 9.46051 10.2649C9.33231 10.3232 9.19885 10.3525 9.06013 10.3525C8.92142 10.3525 8.78796 10.3232 8.65976 10.2649C8.53156 10.2065 8.41835 10.1235 8.32011 10.0159C8.222 9.90747 8.14644 9.78271 8.09343 9.64136C8.04044 9.5 8.01402 9.35278 8.01421 9.19995C8.0144 9.04712 8.04117 8.90015 8.09451 8.75879C8.14786 8.61768 8.22372 8.49316 8.32211 8.38501L10.1902 6.31079L11.4592 4.92114C11.6097 4.75586 11.7734 4.6084 11.9503 4.47852C12.1272 4.34863 12.3139 4.23901 12.5104 4.14966C12.7069 4.0603 12.9094 3.99292 13.118 3.94727C13.3265 3.90161 13.5371 3.87891 13.7497 3.87891C13.9624 3.87891 14.1729 3.90161 14.3815 3.94727C14.5901 3.99292 14.7926 4.0603 14.9891 4.14966C15.1855 4.23901 15.3722 4.34863 15.5491 4.47852C15.726 4.6084 15.8897 4.75586 16.0403 4.92114C16.1904 5.08667 16.3244 5.26685 16.4423 5.46143C16.5602 5.65601 16.6597 5.86133 16.7409 6.07739C16.8221 6.29346 16.8834 6.51611 16.9248 6.74561C16.9662 6.97485 16.9869 7.20654 16.9869 7.44043C16.9869 7.67432 16.9662 7.90576 16.9248 8.13525C16.8834 8.36475 16.8221 8.5874 16.7409 8.80347C16.6597 9.01953 16.5602 9.22485 16.4423 9.41943C16.3244 9.61401 16.1904 9.79419 16.0403 9.95972L16.0403 9.95972Z" fill-rule="evenodd" fill="#966000"/>
	<defs/>
</svg>
