<svg width="20.000000" height="16.000000" viewBox="0 0 20 16" fill="none" xmlns="http://www.w3.org/2000/svg" xmlns:xlink="http://www.w3.org/1999/xlink">
	<desc>
			Created with Pixso.
	</desc>
	<path id="path" d="M14.0039 3.1145L17.7832 7.08276C17.8552 7.1582 17.9099 7.24194 17.9471 7.33325C17.9843 7.4248 18.0018 7.5188 17.9998 7.61548C17.9979 7.71191 17.9764 7.80542 17.9354 7.89575C17.8944 7.98608 17.8364 8.06812 17.7613 8.1416L10.7582 14.988C10.7114 15.0337 10.6593 15.075 10.6018 15.1111C10.5443 15.1475 10.4828 15.1782 10.4173 15.2036C10.3518 15.2288 10.2839 15.2478 10.2134 15.2607C10.143 15.2737 10.0717 15.28 9.99963 15.28C9.92749 15.28 9.8562 15.2737 9.78577 15.2607C9.71533 15.2478 9.6474 15.2288 9.58191 15.2036C9.51642 15.1782 9.4549 15.1475 9.3974 15.1111C9.3399 15.075 9.28778 15.0337 9.24097 14.988L2.23895 8.1416C2.16376 8.06812 2.10565 7.98608 2.06464 7.89575C2.02368 7.80542 2.00214 7.71191 2.00018 7.61523C1.99817 7.51855 2.01575 7.42456 2.05298 7.33301C2.09021 7.24146 2.1449 7.15796 2.21698 7.08228L5.99634 3.1145C6.09106 3.01489 6.20697 2.93774 6.34406 2.88257C6.48114 2.82739 6.62573 2.80005 6.77789 2.80005L13.2223 2.80005C13.3744 2.80005 13.5189 2.82764 13.6559 2.88257C13.7929 2.93774 13.9092 3.01514 14.0039 3.1145L14.0039 3.1145M13.2223 3.63281L6.77789 3.63281L2.99707 7.60107L10.0001 14.4468L17.0026 7.60107L13.2223 3.63281Z" fill-rule="evenodd" fill="#966000"/>
	<path id="path" d="M10.0007 10.99C9.72021 10.99 9.45813 10.8455 9.29785 10.605L7.40662 8.53687C7.28174 8.34839 7.32025 8.08618 7.49292 7.9502C7.66553 7.81396 7.90601 7.85596 8.03082 8.04419L9.92059 10.1123C9.94373 10.146 9.98376 10.1511 9.99921 10.1511C10.0146 10.1511 10.0547 10.1477 10.0778 10.1123L11.9691 8.04419C12.0939 7.85596 12.3344 7.81396 12.507 7.9502C12.6797 8.08618 12.7182 8.34839 12.5933 8.53687L10.7036 10.6033C10.5433 10.8455 10.2797 10.99 10.0007 10.99L10.0007 10.99Z" fill-rule="evenodd" fill="#966000"/>
	<defs/>
</svg>
