<svg width="14.400024" height="14.400024" viewBox="0 0 14.4 14.4" fill="none" xmlns="http://www.w3.org/2000/svg" xmlns:xlink="http://www.w3.org/1999/xlink">
	<desc>
			Created with Pixso.
	</desc>
	<path id="path" d="M7.19904 14.2C3.33307 14.2 0.200012 11.0663 0.200012 7.20001C0.200012 3.33368 3.33496 0.200012 7.19904 0.200012C11.0651 0.200012 14.2 3.33368 14.2 7.20001C14.2 11.0663 11.0651 14.2 7.19904 14.2ZM7.20099 0.866943C3.70245 0.866943 0.867249 3.70291 0.867249 7.20001C0.867249 10.6971 3.70245 13.5331 7.20099 13.5331C10.6995 13.5331 13.5347 10.6971 13.5347 7.20001C13.5328 3.70291 10.6976 0.866943 7.20099 0.866943ZM8.8642 8.86835L8.53351 8.86835C8.021 8.86835 7.55298 8.67694 7.19904 8.35992L7.19904 10.8692L6.5318 10.8692L6.5318 3.53473L7.19904 3.53473L7.19904 4.04507C7.55298 3.72806 8.021 3.53473 8.53351 3.53473L8.8642 3.53473C9.9704 3.53473 10.8658 4.42786 10.8658 5.53555L10.8658 6.86752C10.8658 7.97134 9.96851 8.86835 8.8642 8.86835ZM10.2006 5.53168C10.2006 4.79901 9.60297 4.19974 8.86804 4.19974L8.5354 4.19974C7.80243 4.19974 7.20294 4.79517 7.20294 5.53168L7.20294 6.86752C7.20294 7.60019 7.80054 8.19946 8.5354 8.19946L8.86804 8.19946C9.60101 8.19946 10.2006 7.60403 10.2006 6.86752L10.2006 5.53168ZM4.53406 3.53473L5.20123 3.53473L5.20123 10.8672L4.53406 10.8672L4.53406 3.53473Z" fill-rule="evenodd" fill="#EFA209"/>
	<path id="path" d="M0.200012 7.20001C0.200012 3.33368 3.33496 0.200012 7.19904 0.200012C11.0651 0.200012 14.2 3.33368 14.2 7.20001C14.2 11.0663 11.0651 14.2 7.19904 14.2C3.33307 14.2 0.200012 11.0663 0.200012 7.20001ZM0.867249 7.20001C0.867249 10.6971 3.70245 13.5331 7.20099 13.5331C10.6995 13.5331 13.5347 10.6971 13.5347 7.20001C13.5328 3.70291 10.6976 0.866943 7.20099 0.866943C3.70245 0.866943 0.867249 3.70291 0.867249 7.20001ZM8.53351 8.86835C8.021 8.86835 7.55298 8.67694 7.19904 8.35992L7.19904 10.8692L6.5318 10.8692L6.5318 3.53473L7.19904 3.53473L7.19904 4.04507C7.55298 3.72806 8.021 3.53473 8.53351 3.53473L8.8642 3.53473C9.9704 3.53473 10.8658 4.42786 10.8658 5.53555L10.8658 6.86752C10.8658 7.97134 9.96851 8.86835 8.8642 8.86835L8.53351 8.86835ZM8.86804 4.19974L8.5354 4.19974C7.80243 4.19974 7.20294 4.79517 7.20294 5.53168L7.20294 6.86752C7.20294 7.60019 7.80054 8.19946 8.5354 8.19946L8.86804 8.19946C9.60101 8.19946 10.2006 7.60403 10.2006 6.86752L10.2006 5.53168C10.2006 4.79901 9.60297 4.19974 8.86804 4.19974ZM5.20123 3.53473L5.20123 10.8672L4.53406 10.8672L4.53406 3.53473L5.20123 3.53473Z" stroke="#EFA209" stroke-width="0.400000"/>
	<defs/>
</svg>
