<svg width="16.000000" height="16.000000" viewBox="0 0 16 16" fill="none" xmlns="http://www.w3.org/2000/svg" xmlns:xlink="http://www.w3.org/1999/xlink">
	<desc>
			Created with Pixso.
	</desc>
	<rect id="矩形 606" rx="4.000000" width="16.000000" height="16.000000" fill="#999999"/>
	<path id="path" d="M8.25586 9.27185C6.53271 11.522 4.4812 10.8188 4.15295 10.6781C3.33228 10.4531 3.05884 8.90625 4.0708 8.42822C5.79419 7.8656 7.29858 8.51245 8.39258 9.07495C8.31055 9.1875 8.25586 9.27185 8.25586 9.27185ZM10.0338 8.625C10.7998 7.21875 11.0732 5.86865 11.0732 5.86865L8.52942 5.86865L8.52942 4.91248L11.5382 4.91248L11.5382 4.4906L8.52942 4.4906L8.52942 3L7.16174 3L7.16174 4.4906L4.42639 4.4906L4.42639 4.91248L7.16174 4.91248L7.16174 5.89685L4.80933 5.89685L4.80933 6.31873L9.5415 6.31873C9.5415 6.40308 9.5415 6.40308 9.50037 6.68433C9.45935 6.96558 9.10388 7.6687 8.83032 8.23132C5.32898 6.82507 4.31689 7.66882 4.04346 7.80933C1.9729 9.50403 3.34167 11.4504 5.05347 11.7114C6.76526 11.9724 8.31055 11.0438 9.40466 9.72192C9.62341 9.80627 10.0063 10.0172 11.1005 10.5657C12.1947 11.114 14 12 14 12L14 9.89075C13.453 9.83447 11.4562 9.13135 10.0338 8.625Z" fill-rule="nonzero" fill="#FFFFFF"/>
	<defs/>
</svg>
