<svg width="442.731445" height="69.641907" viewBox="0 0 442.731 69.6419" fill="none" xmlns="http://www.w3.org/2000/svg" xmlns:xlink="http://www.w3.org/1999/xlink">
	<desc>
			Created with Pixso.
	</desc>
	<path id="矢量 712" d="M0 50.9914L0 11.8763L8.67444 25.9086L0 50.9914Z" fill-rule="evenodd" fill="#FF9812" fill-opacity="0.600000"/>
	<path id="矢量 713" d="M0.000823975 50.9921L8.67526 25.9094L21.687 34.3287L0.000823975 50.9921Z" fill-rule="evenodd" fill="#FFAB3E" fill-opacity="0.600000"/>
	<path id="矢量 714" d="M0.000793457 50.9918L21.6869 34.3284L41.7466 42.9232L0.000793457 50.9918Z" fill-rule="evenodd" fill="#FFBB62" fill-opacity="0.600000"/>
	<path id="矢量 715" d="M0.000793457 50.9921L41.7466 42.9235L32.8011 50.9921L0.000793457 50.9921Z" fill-rule="evenodd" fill="#FFAB3E" fill-opacity="0.600000"/>
	<path id="矢量 716" d="M31.9888 51.0009L49.8799 50.9915L41.7476 42.9229L31.9888 51.0009Z" fill-rule="evenodd" fill="#FFC579" fill-opacity="0.600000"/>
	<path id="矢量 717" d="M18.1636 24.1548L39.5784 1.00146L8.40457 1.00146L0.00119019 6.96521L0.00119019 11.8765L8.6759 25.9088L18.1636 24.1548Z" fill-rule="evenodd" fill="#FFB657" fill-opacity="0.600000"/>
	<path id="矢量 718" d="M8.67502 25.9086L18.1627 24.1546L25.2073 27.5414L21.6867 34.328L8.67502 25.9086Z" fill-rule="evenodd" fill="#FFC983" fill-opacity="0.600000"/>
	<path id="矢量 719" d="M18.1633 24.1552L39.5783 1.00183L49.066 23.9797L18.1633 24.1552Z" fill-rule="evenodd" fill="#FCC071" fill-opacity="0.600000"/>
	<path id="矢量 720" d="M18.1633 24.1556L49.066 23.9802L21.6873 34.3289L24.9402 27.6636L18.1633 24.1556Z" fill-rule="evenodd" fill="#FFC983" fill-opacity="0.600000"/>
	<path id="矢量 721" d="M21.6876 34.3286L49.0663 23.9798L59.1029 36.0696L41.7473 42.9234L21.6876 34.3286Z" fill-rule="evenodd" fill="#FFD296" fill-opacity="0.600000"/>
	<path id="矢量 722" d="M0.0010376 6.96515L0.0010376 3.0014C0.0010376 1.89685 0.896454 1.0014 2.00104 1.0014L26.5219 1.0014L0.0010376 6.96515Z" fill-rule="evenodd" fill="#FF9812" fill-opacity="0.600000"/>
	<path id="矢量 723" d="M41.7476 42.9235L49.8799 50.9921L62.3184 50.9921L86.4752 50.9921L41.7476 42.9235Z" fill-rule="evenodd" fill="#FFCD8C" fill-opacity="0.600000"/>
	<path id="矢量 724" d="M41.7476 42.9229L86.4752 50.9914L59.0964 36.0821L41.7476 42.9229Z" fill-rule="evenodd" fill="#FFD9A7" fill-opacity="0.600000"/>
	<path id="合并" d="M380.709 27.728C380.709 25.5565 382.458 23.79 384.615 23.7825C386.772 23.7751 388.521 25.5294 388.521 27.7009C388.521 28.4738 388.3 29.1954 387.918 29.8046L397.292 35.8973L405.283 19.7792C404.177 19.0887 403.441 17.8557 403.441 16.447C403.441 14.2755 405.19 12.509 407.347 12.5016C409.504 12.4941 411.253 14.2484 411.253 16.42C411.253 17.8567 410.488 19.1161 409.345 19.8061L417.887 35.8259L425.958 29.5344C425.632 28.9612 425.446 28.2966 425.446 27.5875C425.446 25.416 427.194 23.6495 429.352 23.6421C431.509 23.6346 433.258 25.3889 433.258 27.5604C433.258 29.732 431.509 31.4984 429.352 31.5059C429.014 31.5071 428.686 31.465 428.373 31.3848L424.043 53.2004L390.901 53.3152L385.018 31.6245C384.886 31.6385 384.752 31.6459 384.616 31.6464C382.459 31.6539 380.71 29.8995 380.709 27.728L380.709 27.728Z" clip-rule="evenodd" fill-rule="evenodd" fill="#FF9200" fill-opacity="0.060000"/>
	<defs/>
</svg>
