<svg width="22.000000" height="22.000000" viewBox="0 0 22 22" fill="none" xmlns="http://www.w3.org/2000/svg" xmlns:xlink="http://www.w3.org/1999/xlink">
	<desc>
			Created with Pixso.
	</desc>
	<path id="path" d="M8.65442 9.65234L2 16.3435L5.67615 16.8552L3.23792 21.48L9.64587 14.8923L6.58752 14.2498L8.65442 9.65234Z" fill-rule="evenodd" fill="#966000"/>
	<path id="椭圆 209" d="M5.1001 9.04907C5.10278 8.02881 5.30493 7.05225 5.70667 6.11963C6.09692 5.21387 6.64758 4.41187 7.35864 3.71362C8.06897 3.01611 8.88477 2.47632 9.80579 2.09375C10.7589 1.698 11.7571 1.5 12.8 1.5C13.843 1.5 14.8412 1.698 15.7943 2.09375C16.7153 2.47632 17.531 3.01611 18.2415 3.71362C18.9525 4.41187 19.5032 5.21387 19.8933 6.11963C20.2977 7.05835 20.5 8.0415 20.5 9.06909C20.5 10.0967 20.2977 11.0798 19.8933 12.0186C19.5032 12.9243 18.9525 13.7263 18.2415 14.4243C17.531 15.1218 16.7153 15.6619 15.7943 16.0444C14.8412 16.4402 13.843 16.6382 12.8 16.6382C11.7823 16.6382 10.8069 16.4495 9.87354 16.072L9.87354 16.0723L9.8551 16.0647L9.85498 16.0647L9.39197 15.876L9.76904 14.95L10.2322 15.1384L10.2324 15.1384C11.0503 15.4717 11.9062 15.6382 12.8 15.6382C13.7101 15.6382 14.5804 15.4656 15.4108 15.1208C16.2125 14.7878 16.9226 14.3179 17.5409 13.7109C18.1584 13.1045 18.6365 12.4084 18.975 11.6228C19.325 10.8103 19.5 9.95898 19.5 9.06909C19.5 8.17896 19.325 7.32764 18.975 6.51538C18.6365 5.72974 18.1584 5.03369 17.5409 4.42725C16.9226 3.82031 16.2125 3.35034 15.4108 3.01733C14.5804 2.67236 13.7101 2.5 12.8 2.5C11.8899 2.5 11.0197 2.67236 10.1892 3.01733C9.38745 3.35034 8.67749 3.82031 8.0592 4.42725C7.44153 5.03369 6.9635 5.72974 6.62512 6.51538C6.27515 7.32764 6.1001 8.17896 6.1001 9.06909L6.1001 9.56909L5.1001 9.56909L5.1001 9.04907L5.1001 9.04907Z" fill-rule="evenodd" fill="#966000"/>
	<path id="矢量 738" d="M11.9001 5.97632L11.9001 9.89453C11.9001 10.1707 12.124 10.3945 12.4001 10.3945L15.5001 10.3945" stroke="#966000" stroke-linecap="round"/>
	<defs/>
</svg>
