<svg width="12.000000" height="14.000000" viewBox="0 0 12 14" fill="none" xmlns="http://www.w3.org/2000/svg" xmlns:xlink="http://www.w3.org/1999/xlink">
	<desc>
			Created with Pixso.
	</desc>
	<path id="path" d="M11.9984 2.49088L11.9984 1.99799L10.9518 1.98239C10.8323 1.97772 9.7475 1.92938 8.64996 1.4942C7.42334 1.00757 6.638 0.452332 6.63159 0.447632L5.99762 0L5.37317 0.444519C5.34131 0.467926 4.57825 1.00601 3.35162 1.4942C2.17761 1.96213 1.06091 1.98239 1.0498 1.98239L0 1.99799L0 7.90619C0 9.26471 0.794922 10.787 2.18237 12.0847C2.77979 12.643 3.44562 13.1188 4.10834 13.4603C4.79651 13.8144 5.44965 14 6.00079 14C6.54877 14 7.20831 13.8097 7.90601 13.451C8.5639 13.111 9.22504 12.6384 9.81763 12.0847C10.4484 11.4966 10.9773 10.8338 11.35 10.1678C11.7817 9.39417 12 8.63458 12 7.90619L11.9984 2.49088ZM5.97052 1.254C6.06293 1.31952 6.97412 1.90753 8.26123 2.42068C9.52289 2.92136 10.7081 2.97592 10.9327 2.98218L10.9773 7.90775C10.9789 8.99176 10.2987 10.2505 9.11194 11.3625C8.06531 12.342 6.81482 13.0002 6.00079 13.0002C5.62323 13.0002 5.11511 12.8458 4.5719 12.5666C4.00159 12.2734 3.42017 11.857 2.88971 11.361C1.70288 10.2505 1.02271 8.99176 1.02271 7.90619L1.02271 2.98218C1.07526 2.98218 2.38153 2.95721 3.73718 2.41913C5.01154 1.9122 5.87653 1.31952 5.97052 1.254Z" fill-rule="nonzero" fill="#EFA209"/>
	<defs/>
</svg>
