<svg width="14.000000" height="14.000000" viewBox="0 0 14 14" fill="none" xmlns="http://www.w3.org/2000/svg" xmlns:xlink="http://www.w3.org/1999/xlink">
	<desc>
			Created with Pixso.
	</desc>
	<path id="path" d="M13.5058 11.4737L11.2231 11.4737C10.9501 11.4737 10.7289 11.2444 10.7289 10.9612L10.7238 4.92676C10.6927 2.81613 9.039 1.20538 7 1.19461C4.961 1.20538 3.30731 2.81613 3.27448 4.92676L3.27106 10.1621C3.27106 10.1621 3.90869 12.4448 5.42755 12.1796C5.54333 11.7801 5.95111 11.6296 6.21375 11.6296L7.81384 11.6296C8.35992 11.6296 8.80225 12.0882 8.80225 12.6544L8.80225 12.9751C8.80225 13.5413 8.35992 14 7.81384 14L6.34161 14C5.92346 14 5.5675 13.7277 5.42236 13.346C5.39819 13.3317 5.20117 13.3496 5.00763 13.3066C3.50952 12.7512 2.85291 11.4665 2.85291 11.4665L0.494202 11.4755C0.221191 11.4755 0 11.2461 0 10.963L0 5.70975C0 5.42667 0.221191 5.19733 0.494202 5.19733L2.12543 5.19733C2.12543 4.76373 2.12366 4.92496 2.12366 4.92496C2.18243 0.0174561 6.91876 0.00134277 6.91876 0.00134277C6.95679 -0.000457764 7.04492 -0.000457764 7.08124 0.00134277C7.08124 0.00134277 11.8176 0.0192566 11.8763 4.92496C11.8763 4.92496 11.8763 4.76193 11.8746 5.19733L13.5058 5.19733C13.7788 5.19733 14 5.42667 14 5.70975L14 10.9612C14 11.2444 13.7788 11.4737 13.5058 11.4737ZM2.22736 6.69876C2.22736 6.52496 2.13751 6.38342 2.02692 6.38342L1.18365 6.38342C1.07306 6.38342 0.983215 6.52496 0.983215 6.69876L0.983215 9.9328C0.983215 10.1084 1.07306 10.2481 1.18365 10.2481L2.02692 10.2481C2.13751 10.2481 2.22736 10.1066 2.22736 9.9328L2.22736 6.69876ZM13.0168 6.69876C13.0168 6.52496 12.9269 6.38342 12.8163 6.38342L11.9748 6.38342C11.8643 6.38342 11.7726 6.52496 11.7726 6.69876L11.7726 9.9328C11.7726 10.1084 11.8643 10.2481 11.9748 10.2481L12.8163 10.2481C12.9269 10.2481 13.0168 10.1066 13.0168 9.9328L13.0168 6.69876Z" fill-rule="nonzero" fill="#EFA209"/>
	<defs/>
</svg>
