<svg width="18.000000" height="20.000000" viewBox="0 0 18 20" fill="none" xmlns="http://www.w3.org/2000/svg" xmlns:xlink="http://www.w3.org/1999/xlink">
	<desc>
			Created with Pixso.
	</desc>
	<path id="矢量 751" d="M6.98401 10.7246C6.98401 11.427 6.35138 11.9988 5.31024 11.9988C4.65869 11.9988 4.05139 11.7603 3.61755 11.3557L4.05768 10.8787C4.40002 11.1943 4.86536 11.3979 5.32446 11.3979C5.89868 11.3979 6.22205 11.1479 6.22205 10.7783C6.22205 10.3784 5.89868 10.2534 5.46008 10.0745L4.80072 9.81274C4.34161 9.63379 3.83051 9.30078 3.83051 8.66235C3.83051 7.97144 4.48993 7.45361 5.39545 7.45361C5.95068 7.45361 6.47443 7.66748 6.83569 8.00781L6.44135 8.44849C6.14478 8.2041 5.81506 8.05566 5.39545 8.05566C4.91113 8.05566 4.59406 8.26953 4.59406 8.62158C4.59406 8.99683 4.97424 9.1394 5.3623 9.28174L6.01538 9.53931C6.57697 9.75879 6.98401 10.0803 6.98401 10.7246ZM9.12903 11.9988C10.1702 11.9988 10.8028 11.427 10.8028 10.7246C10.8028 10.0803 10.3958 9.75879 9.83417 9.53931L9.18109 9.28174C8.79303 9.1394 8.41284 8.99683 8.41284 8.62158C8.41284 8.26953 8.72992 8.05566 9.21423 8.05566C9.63385 8.05566 9.96356 8.2041 10.2601 8.44849L10.6545 8.00781C10.2932 7.66748 9.76953 7.45361 9.21423 7.45361C8.30872 7.45361 7.64929 7.97144 7.64929 8.66235C7.64929 9.30078 8.1604 9.63379 8.61951 9.81274L9.27887 10.0745C9.71747 10.2534 10.0408 10.3784 10.0408 10.7783C10.0408 11.1479 9.71747 11.3979 9.14325 11.3979C8.68414 11.3979 8.21881 11.1943 7.87646 10.8787L7.43634 11.3557C7.87018 11.7603 8.47754 11.9988 9.12903 11.9988ZM14.4601 11.9216L11.701 11.9216L11.701 7.53662L12.4503 7.53662L12.4503 11.3384L14.4601 11.3384L14.4601 11.9216Z" fill-rule="evenodd" fill="#966000"/>
	<path id="矢量 743" d="M9 2C10.3995 3.33325 14.1329 4.22217 16 4.22217L16 11.6682C15.8446 13.1863 14.2267 16.5776 9 18C7.28918 17.7788 2 14.4443 2 11.6682L2 4.22217C3.86664 4.07397 7.59955 3.33325 9 2L9 2Z" stroke="#966000" stroke-width="0.800000"/>
	<defs/>
</svg>
