<svg width="18.000000" height="18.000000" viewBox="0 0 18 18" fill="none" xmlns="http://www.w3.org/2000/svg" xmlns:xlink="http://www.w3.org/1999/xlink">
	<desc>
			Created with Pixso.
	</desc>
	<path id="椭圆 211" d="M14.3033 14.3032C13.6115 14.9951 12.8169 15.5308 11.9194 15.9104C10.9902 16.3035 10.017 16.5 9 16.5C7.98303 16.5 7.00977 16.3035 6.08057 15.9104C5.18311 15.5308 4.38855 14.9951 3.69666 14.3032C3.00488 13.6113 2.46912 12.8169 2.0896 11.9194C1.69653 10.9902 1.5 10.0171 1.5 9C1.5 7.98291 1.69653 7.00977 2.0896 6.08057C2.46912 5.18311 3.00488 4.38867 3.69666 3.69678C4.38855 3.00488 5.18311 2.46924 6.08057 2.0896C7.00977 1.69653 7.98303 1.5 9 1.5C10.017 1.5 10.9902 1.69653 11.9194 2.0896C12.8169 2.46924 13.6115 3.00488 14.3033 3.69678C14.9951 4.38867 15.5309 5.18311 15.9104 6.08057C16.3035 7.00977 16.5 7.98291 16.5 9C16.5 9.99854 16.3103 10.9556 15.9309 11.8706L15.92 11.8445L15.0333 11.4768L15.0071 11.4875C15.3357 10.6951 15.5 9.86597 15.5 9C15.5 8.11816 15.3298 7.2749 14.9894 6.46997C14.6605 5.69238 14.1962 5.00366 13.5962 4.40381C12.9963 3.80396 12.3075 3.3396 11.5299 3.0105C10.7251 2.67017 9.88184 2.5 9 2.5C8.11816 2.5 7.2749 2.67017 6.47009 3.0105C5.6925 3.3396 5.00366 3.80396 4.40381 4.40381C3.80383 5.00366 3.33948 5.69238 3.01062 6.46997C2.67017 7.2749 2.5 8.11816 2.5 9C2.5 9.88184 2.67017 10.7251 3.01062 11.53C3.33948 12.3076 3.80383 12.9963 4.40381 13.5962C5.00366 14.196 5.6925 14.6604 6.47009 14.9895C7.2749 15.3298 8.11816 15.5 9 15.5C9.88184 15.5 10.7251 15.3298 11.5299 14.9895C12.3075 14.6604 12.9963 14.196 13.5962 13.5962L13.5962 13.6245L14.275 14.3032L14.3033 14.3032ZM13.5962 13.5962L14.3033 14.3032C14.5013 14.1052 14.5013 13.7942 14.3033 13.5962C14.1053 13.3982 13.7942 13.3982 13.5962 13.5962ZM15.9309 11.8706L15.0071 11.4875C14.8999 11.7463 15.0189 12.0337 15.2775 12.1409C15.5361 12.2483 15.8236 12.1292 15.9309 11.8706Z" fill-rule="evenodd" fill="#F08900"/>
	<path id="矢量 750" d="M6.91455 10.312C6.91455 11.1104 6.24951 11.5776 5.43945 11.5776C4.74365 11.5776 4.29248 11.3022 3.99951 10.9727L4.33496 10.5273C4.59277 10.7925 4.92236 11.0137 5.37939 11.0137C5.87744 11.0137 6.21875 10.7383 6.21875 10.2827C6.21875 9.79053 5.90674 9.47266 4.91064 9.47266L4.91064 8.96143C5.78076 8.96143 6.06934 8.63184 6.06934 8.18799C6.06934 7.79834 5.81152 7.55225 5.39111 7.54639C5.04834 7.55225 4.76123 7.7207 4.50928 7.96533L4.14893 7.53467C4.49756 7.22266 4.90479 7 5.41455 7C6.20703 7 6.76514 7.40869 6.76514 8.13965C6.76514 8.64941 6.4707 9.00391 6.00342 9.17822L6.00342 9.20752C6.51318 9.3335 6.91455 9.71729 6.91455 10.312ZM8.96057 11.5776C9.82483 11.5776 10.3888 10.8101 10.3888 9.27344C10.3888 7.75 9.82483 7 8.96057 7C8.09045 7 7.53381 7.74414 7.53381 9.27344C7.53381 10.8101 8.09045 11.5776 8.96057 11.5776ZM8.96057 11.0327C8.51086 11.0327 8.19299 10.5522 8.19299 9.27344C8.19299 8.00781 8.51086 7.54639 8.96057 7.54639C9.41174 7.54639 9.72961 8.00781 9.72961 9.27344C9.72961 10.5522 9.41174 11.0327 8.96057 11.0327ZM12.6458 10.8218L12.1169 10.8218L12.1169 9.52539L10.8997 9.52539L10.8997 9.02148L12.1169 9.02148L12.1169 7.72656L12.6458 7.72656L12.6458 9.02148L13.863 9.02148L13.863 9.52539L12.6458 9.52539L12.6458 10.8218Z" fill-rule="evenodd" fill="#F08900"/>
	<defs/>
</svg>
