<svg width="169.000000" height="84.000000" viewBox="0 0 169 84" fill="none" xmlns="http://www.w3.org/2000/svg" xmlns:xlink="http://www.w3.org/1999/xlink">
	<desc>
			Created with Pixso.
	</desc>
	<path id="矢量 937" d="M0 82L0 2.01758C0 0.913086 0.895508 0.0175781 2 0.0175781L88.8335 0.0175781C96.5371 -0.310547 111.944 3.82373 111.944 22.9863C111.944 42.1489 127.352 51.7524 135.056 54.1587C145.528 56.7832 166.978 66.937 169 84L2 84C0.895508 84 0 83.1045 0 82Z" fill-rule="evenodd" fill="#FFCE07" fill-opacity="0.100000"/>
	<path id="矢量 938" d="M0 81.6719L0 2C0 0.895508 0.895508 0 2 0L36.4722 0C41.2871 0.984375 53.2998 2.95312 62.8335 2.95312C74.75 2.95312 84.5 1.3125 84.5 17.3906C84.5 33.4688 80.5278 66.6094 108.694 56.7656C115.917 54.7969 129.711 57.4219 127.111 83.6719L2 83.6719C0.895508 83.6719 0 82.7764 0 81.6719Z" fill-rule="evenodd" fill="#FDB320" fill-opacity="0.100000"/>
	<path id="矢量 939" d="M0 82L0 2C0 0.895508 0.895508 0 2 0L22.0278 0C26.9629 0.109375 36.8335 3.87158 36.8335 18.0469C36.8335 35.7656 46.5835 43.9692 60.6665 38.3911C71.9331 33.9282 76.1943 41.3442 76.9165 45.6099C78.7222 57.3125 87.4609 79.2754 107.972 73.5C128.483 67.7251 143.06 78.2031 147.875 84L2 84C0.895508 84 0 83.1045 0 82Z" fill-rule="evenodd" fill="#F8982A" fill-opacity="0.100000"/>
	<path id="矢量 940" d="M0 81.9995L0 29.6118C9.99072 27.3823 32.9331 30.9497 44.7778 63.0557C45.5 64.5049 49.1113 67.4053 57.7778 67.4053C68.6113 67.4053 91.9492 59.249 107.838 83.9995L2 83.9995C0.895508 83.9995 0 83.1045 0 81.9995Z" fill-rule="evenodd" fill="#F58030" fill-opacity="0.100000"/>
	<path id="矢量 941" d="M83.6953 84L2 84C0.895508 84 0 83.1045 0 82L0 58.1538C7.94434 59.0454 24.772 60.562 28.5278 59.4917C33.2222 58.1538 46.9443 55.144 55.6113 70.1934C62.5444 82.2329 77.5562 83.6655 83.6953 84Z" fill-rule="evenodd" fill="#F05E34" fill-opacity="0.100000"/>
	<path id="矢量 942" d="M0 45.2305C2.52783 46.2339 7.7998 51.585 8.6665 64.9619C9.5332 78.3394 20.1021 77.8936 25.2778 75.9985C33.4629 73.769 51.0303 73.2979 53.9189 83.9995L2 83.9995C0.895508 83.9995 0 83.1045 0 81.9995L0 45.2305Z" fill-rule="evenodd" fill="#EE4038" fill-opacity="0.100000"/>
	<defs/>
</svg>
