<svg width="20.000000" height="16.000000" viewBox="0 0 20 16" fill="none" xmlns="http://www.w3.org/2000/svg" xmlns:xlink="http://www.w3.org/1999/xlink">
	<desc>
			Created with Pixso.
	</desc>
	<path id="path" d="M16.7368 2.80005L3.26315 2.80005C2.54736 2.80005 2 3.34082 2 4.0481L2 14.032C2 14.7393 2.54736 15.28 3.26315 15.28L16.7368 15.28C17.4526 15.28 18 14.7393 18 14.032L18 4.0481C18 3.34082 17.4526 2.80005 16.7368 2.80005L16.7368 2.80005M16.7368 3.63208C16.821 3.63208 16.8632 3.67358 16.9474 3.67358L9.78946 8.66553L3.05264 3.67358C3.13684 3.67358 3.17896 3.63208 3.26315 3.63208L16.7368 3.63208M16.7368 14.448L3.26315 14.448C3.01053 14.448 2.8421 14.2817 2.8421 14.032L2.8421 4.50562L9.53683 9.45605C9.62106 9.49756 9.70526 9.53931 9.78946 9.53931C9.87369 9.53931 9.95789 9.49756 10.0421 9.45605L17.2 4.46411L17.2 14.032C17.1579 14.2817 16.9895 14.448 16.7368 14.448L16.7368 14.448Z" fill-rule="evenodd" fill="#966000"/>
	<defs/>
</svg>
