<svg width="16.000000" height="16.000000" viewBox="0 0 16 16" fill="none" xmlns="http://www.w3.org/2000/svg" xmlns:xlink="http://www.w3.org/1999/xlink">
	<desc>
			Created with Pixso.
	</desc>
	<rect id="矩形 608" rx="4.000000" width="16.000000" height="16.000000" fill="#FF8F00"/>
	<path id="path" d="M11.3757 9.27417C11.5104 9.27417 11.6351 9.32019 11.7362 9.39917L11.7531 9.4126C11.8246 9.46973 11.8817 9.54004 11.9244 9.62378C11.9673 9.70752 11.9919 9.79688 11.9983 9.89209C12.0048 9.98718 11.9924 10.0795 11.9613 10.1688C11.9302 10.2583 11.8832 10.3368 11.8201 10.4042L10.5161 11.7992C10.4589 11.8627 10.3923 11.9117 10.3167 11.9467C10.2408 11.9814 10.1619 11.9993 10.0793 12C9.99695 12.0007 9.9176 11.9844 9.84131 11.951C9.76501 11.9176 9.69775 11.8698 9.6394 11.8074C9.58118 11.745 9.53638 11.6731 9.50513 11.5914C9.474 11.5098 9.45874 11.4249 9.45935 11.3367C9.46008 11.2485 9.47681 11.1639 9.50928 11.0829C9.54187 11.0018 9.58777 10.9307 9.64709 10.8695L9.9082 10.5894L4.61462 10.5894C4.53308 10.5894 4.45471 10.5726 4.37939 10.5393C4.30408 10.5059 4.23767 10.4584 4.18005 10.3967C4.12244 10.3351 4.078 10.2639 4.04675 10.1833C4.01562 10.1028 4 10.0189 4 9.93176C4 9.8446 4.01562 9.76062 4.04675 9.68018C4.078 9.59961 4.12244 9.52844 4.18005 9.4668C4.23767 9.40515 4.30408 9.35767 4.37939 9.32422C4.45471 9.29089 4.53308 9.27417 4.61462 9.27417L11.3757 9.27417ZM6.35315 5.19275C6.41077 5.25439 6.4552 5.32544 6.48633 5.40601C6.51758 5.48657 6.53308 5.57043 6.53308 5.65759C6.53308 5.74475 6.51758 5.82861 6.48633 5.90918C6.4552 5.98975 6.41077 6.06079 6.35315 6.12244L6.09131 6.40222L11.3853 6.40222C11.4668 6.40222 11.5452 6.41895 11.6205 6.45239C11.6958 6.48572 11.7622 6.5332 11.8198 6.59485C11.8774 6.65649 11.9219 6.72766 11.9531 6.80823C11.9843 6.88879 11.9999 6.97266 11.9999 7.05981C11.9999 7.14709 11.9843 7.23096 11.9531 7.31152C11.9219 7.39209 11.8774 7.46313 11.8198 7.52478C11.7622 7.58643 11.6958 7.63403 11.6205 7.66736C11.5452 7.70068 11.4668 7.71741 11.3853 7.71741L4.62415 7.71741C4.47974 7.71741 4.34692 7.66443 4.24219 7.57507C4.17163 7.51758 4.11548 7.44702 4.07349 7.36353C4.03149 7.28003 4.00757 7.19092 4.00159 7.09631C3.99573 7.00171 4.0083 6.90991 4.03943 6.82117C4.07056 6.73242 4.11743 6.65442 4.18005 6.5874L5.48376 5.19275C5.54138 5.13098 5.60791 5.0835 5.68323 5.05005C5.75854 5.01672 5.83691 5 5.91846 5C6 5 6.07837 5.01672 6.15369 5.05005C6.229 5.0835 6.29553 5.13098 6.35315 5.19275Z" fill-rule="nonzero" fill="#FFFFFF"/>
	<defs/>
</svg>
