<svg width="118.000000" height="84.050781" viewBox="0 0 118 84.0508" fill="none" xmlns="http://www.w3.org/2000/svg" xmlns:xlink="http://www.w3.org/1999/xlink">
	<desc>
			Created with Pixso.
	</desc>
	<path id="矢量 605" d="M118 80.3872L118 2C118 0.895508 117.104 0 116 0L103.663 0L103.5 26.5391L118 80.3872Z" fill-rule="evenodd" fill="#A25B00" fill-opacity="0.350000"/>
	<path id="矢量 606" d="M92.6367 0.0507812L103.665 15.4058L99.2534 0.0507812L92.6367 0.0507812Z" fill-rule="evenodd" fill="#CA7200" fill-opacity="0.350000"/>
	<path id="矢量 607" d="M99.2515 0.0507812L103.663 15.4058L103.663 0.0507812L99.2515 0.0507812Z" fill-rule="evenodd" fill="#B16300" fill-opacity="0.350000"/>
	<path id="矢量 608" d="M118 80.0508L118 84.0493L60.5 84.0391L48.5234 77.728L69.4766 72.3086L97.0464 62.373L103.5 16.5391L103.584 26.2329L118 80.0508Z" fill-rule="evenodd" fill="#EFCB9C"/>
	<path id="矢量 609" d="M38 84.0391L48.5229 77.7275L60.5 84.0391L38 84.0391Z" fill-rule="evenodd" fill="#FF9D06" fill-opacity="0.350000"/>
	<path id="矢量 610" d="M15.4399 84.0503L38 84.0391L48.5239 77.728L25.3652 57.8569L8.82324 81.3408L15.4399 84.0503Z" fill-rule="evenodd" fill="#FFBD66" fill-opacity="0.350000"/>
	<path id="矢量 611" d="M8.82227 81.3413L25.3643 57.8579L20.9531 37.0835L0 55.1479L8.82227 81.3413Z" fill-rule="evenodd" fill="#FFDBAC" fill-opacity="0.350000"/>
	<path id="矢量 612" d="M25.3652 57.8574L50.7295 44.3086L20.9541 37.083L25.3652 57.8574Z" fill-rule="evenodd" fill="#FFCA86" fill-opacity="0.350000"/>
	<path id="矢量 613" d="M25.3638 57.8569L48.5225 77.728L69.4756 72.3086L50.728 44.3086L25.3638 57.8569Z" fill-rule="evenodd" fill="#FFAD42" fill-opacity="0.350000"/>
	<path id="矢量 614" d="M50.73 44.3086L69.4775 72.3086L97.0474 62.373L50.73 44.3086Z" fill-rule="evenodd" fill="#FFA42D" fill-opacity="0.350000"/>
	<path id="矢量 615" d="M50.7295 44.3086L97.0469 62.373L103.664 15.4053L50.7295 44.3086Z" fill-rule="evenodd" fill="#FF9812" fill-opacity="0.350000"/>
	<path id="矢量 616" d="M50.7285 44.3091L103.663 15.4058L33.084 14.5024L50.7285 44.3091Z" fill-rule="evenodd" fill="#FCAA3F" fill-opacity="0.350000"/>
	<path id="矢量 617" d="M50.729 44.3091L20.9536 37.083L19.8506 28.0508L33.084 14.5024L50.729 44.3091Z" fill-rule="evenodd" fill="#FFC375" fill-opacity="0.350000"/>
	<path id="矢量 618" d="M19.8506 9.98633L19.8506 28.0508L33.084 14.5024L19.8506 9.98633Z" fill-rule="evenodd" fill="#FFD49E" fill-opacity="0.350000"/>
	<path id="矢量 619" d="M19.8506 9.98633L33.084 14.5024L38.5981 0.0507812L31.9814 0.0507812L19.8506 9.98633Z" fill-rule="evenodd" fill="#FFC985" fill-opacity="0.350000"/>
	<path id="矢量 620" d="M33.084 14.5024L38.5981 0.0507812L59.5513 0.0507812L103.663 15.4058L33.084 14.5024Z" fill-rule="evenodd" fill="#FDB352" fill-opacity="0.350000"/>
	<path id="矢量 621" d="M59.5503 0.0507812L103.662 15.4058L92.6343 0.0507812L59.5503 0.0507812Z" fill-rule="evenodd" fill="#E89020" fill-opacity="0.350000"/>
	<path id="矢量 622" d="M15.439 84.0503L1.95166 84.0503L8.82275 81.3408L15.439 84.0503Z" fill-rule="evenodd" fill="#FFC985" fill-opacity="0.350000"/>
	<defs/>
</svg>
