<svg width="94.566895" height="15.360352" viewBox="0 0 94.5669 15.3604" fill="none" xmlns="http://www.w3.org/2000/svg" xmlns:xlink="http://www.w3.org/1999/xlink">
	<desc>
			Created with Pixso.
	</desc>
	<path id="path" d="M6.01367 5.27637L9.28076 15.3604L12.5479 5.27637L6.01367 5.27637Z" fill-rule="evenodd" fill="#9E6700"/>
	<path id="path" d="M6.70264 0L2.93896 0L0 4.22119L4.78857 4.22119L6.70264 0Z" fill-rule="evenodd" fill="#9E6700"/>
	<path id="path" d="M12.4824 4.2207L10.5679 0L7.98975 0L6.07568 4.22119L12.4824 4.2207Z" fill-rule="evenodd" fill="#9E6700"/>
	<path id="path" d="M0.270996 5.27686L3.51221 8.90527C3.52002 8.90234 7.73145 13.6294 7.73145 13.6294L4.75488 5.27686L0.270996 5.27686Z" fill-rule="evenodd" fill="#9E6700"/>
	<path id="path" d="M11.856 0L13.7705 4.2207L18.6143 4.22119L15.6196 0L11.856 0Z" fill-rule="evenodd" fill="#9E6700"/>
	<path id="path" d="M10.8984 13.5596L16.5303 7.29492C16.52 7.29053 18.3359 5.27686 18.3359 5.27686L13.8032 5.27686L10.8984 13.5596Z" fill-rule="evenodd" fill="#9E6700"/>
	<path id="矢量 1011" d="M25.2949 4.76074C27.8003 3.7832 30.3638 2.11523 31.7617 0.0166016L33.2622 0.758301C33.1631 0.884766 33.064 1.0249 32.9683 1.15137C34.8003 3.08252 36.7485 4.03271 38.7344 4.7334C38.3276 5.08545 37.8799 5.67334 37.6851 6.17578C35.7539 5.33496 33.9048 4.31299 32.001 2.28271C30.4458 3.93701 28.46 5.25293 26.4297 6.17578C26.1904 5.7417 25.7153 5.14014 25.2949 4.76074ZM55.814 5.90918C55.814 6.20312 55.814 6.52441 55.8003 6.84912L58.5312 6.84912L58.5312 13.1758L57.0205 13.1758L57.0205 8.31885L55.7456 8.31885C55.6328 10.1372 55.3115 11.9727 54.5425 13.2886C54.2759 12.981 53.7153 12.4751 53.3804 12.2529C54.1904 10.5576 54.2896 7.88477 54.2896 5.90918L54.2896 0.505371L55.814 0.505371L55.814 3.82422L56.7676 3.82422L56.7676 0.143066L58.2646 0.143066L58.2646 3.82422L59.2319 3.82422L59.2319 5.29395L55.814 5.29395L55.814 5.90918ZM58.5312 12.4341C59.5532 10.585 59.6797 7.65918 59.6797 5.67334L59.6797 0.980469C61.7236 0.840332 63.9897 0.563477 65.5176 0.211426L66.4404 1.66748C64.9297 2.00244 63.0396 2.21436 61.2622 2.32715L61.2622 3.9917L64.957 3.9917L65.2236 3.93701L66.2183 4.18652C65.9517 6.63721 65.3638 8.59912 64.4819 10.1235C65.0698 10.8789 65.7705 11.5112 66.5669 11.9453C66.2046 12.2393 65.7124 12.8408 65.4458 13.2749C64.7178 12.7964 64.0752 12.1812 63.5283 11.4668C62.9131 12.1948 62.1714 12.7964 61.3306 13.2749C61.1357 12.9092 60.77 12.3794 60.4624 12.0273C60.2949 12.5195 60.1001 12.9536 59.8472 13.3569C59.5532 13.0767 58.9243 12.6289 58.5312 12.4341ZM80.4985 5.62891L80.4985 4.09082L77.4326 4.09082L77.4326 2.90137L79.9106 2.90137L79.9106 1.38721L77.4326 1.38721L77.4326 0.143066L75.8364 0.143066L75.8364 1.38721L73.4268 1.38721L73.4268 2.90137L75.8364 2.90137L75.8364 4.09082L72.6133 4.09082L72.6133 5.62891L77.4155 5.62891L77.4155 6.89014L72.8936 6.89014L72.8936 8.43164L74.5479 8.43164L73.3857 9.17334C73.9736 9.84326 74.6436 10.7695 74.9238 11.3711L76.1987 10.5166C75.8774 9.91504 75.1768 9.04688 74.5889 8.43164L77.4155 8.43164L77.4155 11.3267C77.4155 11.5112 77.3608 11.5522 77.1353 11.5659C76.9131 11.5659 76.1714 11.5659 75.5117 11.5386C75.71 12 75.9185 12.7144 75.9902 13.1895C76.9985 13.1895 77.7812 13.1621 78.3145 12.9092C78.8579 12.6426 78.998 12.1948 78.998 11.3574L78.998 8.43164L80.3721 8.43164L80.3721 6.89014L78.998 6.89014L78.998 5.62891L80.4985 5.62891ZM85.3281 5.12646C85.8716 5.57422 87.3413 6.98926 87.6523 7.32422L86.7124 8.84863C86.4048 8.35986 85.8579 7.61816 85.3281 6.9585L85.3281 13.2168L83.6875 13.2168L83.6875 7.61816C83.2397 8.93408 82.6963 10.1372 82.0913 10.9507C81.9102 10.4756 81.4761 9.67578 81.1548 9.22803C82.0913 8.12061 82.9458 6.16211 83.3799 4.43945L81.6025 4.43945L81.6025 2.90137L83.6875 2.90137L83.6875 0.143066L85.3281 0.143066L85.3281 2.90137L86.938 2.90137L86.938 4.43945L85.3281 4.43945L85.3281 5.12646ZM72.4766 6.69531L71.3965 7.00293L71.3965 4.45312L72.4595 4.45312L72.4595 2.87061L71.3965 2.87061L71.3965 0.156738L69.814 0.156738L69.814 2.87061L69.2534 2.87061C69.3115 2.40918 69.3525 1.94775 69.3799 1.48633L68.0776 1.24707C67.9819 2.94238 67.7427 4.76074 67.3804 5.88184C67.7017 6.02197 68.3169 6.30225 68.5972 6.49707C68.751 5.95361 68.9048 5.23926 69.0449 4.45312L69.814 4.45312L69.814 7.43701C68.9595 7.65918 68.1904 7.84033 67.5752 7.98047L67.9238 9.67578L69.814 9.10156L69.814 13.2168L71.3965 13.2168L71.3965 8.61279L72.5996 8.2334L72.4766 6.69531ZM48.6465 10.9097L48.6465 8.27441L49.9214 8.92041C50.6494 7.57715 51.5312 5.60156 52.1465 3.83789L50.6494 3.12354C50.188 4.71973 49.3472 6.70898 48.6465 8.03857L48.6465 0.324219L46.9238 0.324219L46.9238 10.9097L45.0918 10.9097L45.0918 0.324219L43.3691 0.324219L43.3691 10.9097L39.7563 10.9097L39.7563 12.5742L52.2729 12.5742L52.2729 10.9097L48.6465 10.9097ZM92.8579 1.31885L93.1245 1.24707L94.1875 1.58545C93.7705 4.90088 92.8853 7.47803 91.542 9.42285C92.3281 10.3765 93.3057 11.1592 94.5669 11.8735C94.1328 12.1948 93.6133 12.7964 93.3774 13.2886C92.188 12.5195 91.2344 11.7061 90.4517 10.7832C89.5254 11.7915 88.4487 12.5742 87.2183 13.1895C86.979 12.7554 86.5312 12.1128 86.1655 11.8052C87.4131 11.272 88.5342 10.4585 89.457 9.39551C88.4624 7.73096 87.8472 5.68701 87.3857 3.01074L87.8062 2.92871L87.0918 2.92871L87.0918 1.31885L92.8579 1.31885ZM90.52 7.93945C91.3882 6.55518 92.0034 4.87354 92.3828 2.92871L88.9375 2.92871C89.3169 4.97266 89.8057 6.59619 90.52 7.93945ZM43.27 8.24707C42.9214 6.91748 42.1079 4.71973 41.4517 3.08252L39.9238 3.53027C40.5698 5.25293 41.2979 7.4917 41.6055 8.83496L43.27 8.24707ZM36.7041 8.54102L32.9683 8.54102L32.9683 11.3403L37.979 11.3403L37.979 12.8408L26.0776 12.8408L26.0776 11.3403L27.5918 11.3403L27.5918 6.45605L29.2427 6.45605L29.2427 11.3403L31.2046 11.3403L31.2046 4.15918L32.9683 4.15918L32.9683 7.04395L36.7041 7.04395L36.7041 8.54102ZM63.501 8.56836C63.9351 7.67285 64.27 6.63721 64.4956 5.50244L62.3936 5.50244C62.6602 6.59619 63.0396 7.63184 63.501 8.56836ZM61.2622 6.20312C61.2314 7.9668 61.0913 10.0688 60.5342 11.8052C61.3442 11.3848 62.0312 10.7695 62.6328 10.0107C62.0449 8.89307 61.6108 7.60449 61.2622 6.20312Z" fill-rule="evenodd" fill="#9E6700"/>
	<defs/>
</svg>
