<svg width="105.000000" height="52.000000" viewBox="0 0 105 52" fill="none" xmlns="http://www.w3.org/2000/svg" xmlns:xlink="http://www.w3.org/1999/xlink">
	<desc>
			Created with Pixso.
	</desc>
	<path id="矢量 937" d="M0 50L0 2.01099C0 0.90625 0.895386 0.0109863 2 0.0109863L55.1923 0.0109863C59.9786 -0.192139 69.5513 2.36719 69.5513 14.2297C69.5513 26.092 79.1239 32.0371 83.9103 33.5266C90.4166 35.1516 103.744 41.4373 105 52L2 52C0.895386 52 0 51.1045 0 50Z" fill-rule="evenodd" fill="#FFCE07" fill-opacity="0.160000"/>
	<path id="矢量 938" d="M0 49.7969L0 2C0 0.895508 0.895386 0 2 0L22.6603 0C25.6517 0.609375 33.1154 1.82812 39.0385 1.82812C46.4423 1.82812 52.5 0.8125 52.5 10.7656C52.5 20.7188 50.0321 41.2344 67.5321 35.1406C72.0192 33.9219 80.5897 35.5469 78.9744 51.7969L2 51.7969C0.895386 51.7969 0 50.9014 0 49.7969Z" fill-rule="evenodd" fill="#FDB320" fill-opacity="0.160000"/>
	<path id="矢量 939" d="M0 50L0 2C0 0.895508 0.895386 0 2 0L13.6859 0C16.7521 0.067627 22.8846 2.39673 22.8846 11.1719C22.8846 22.1406 28.9423 27.219 37.6923 23.7659C44.6923 21.0034 47.3397 25.594 47.7885 28.2346C48.9103 35.4792 54.3397 49.0752 67.0834 45.5002C79.8269 41.925 88.8835 48.4114 91.875 52L2 52C0.895386 52 0 51.1045 0 50Z" fill-rule="evenodd" fill="#F8982A" fill-opacity="0.160000"/>
	<path id="矢量 940" d="M0 50L0 18.3313C6.20728 16.9512 20.4615 19.1594 27.8206 39.0344C28.2693 39.9316 30.5128 41.7273 35.8975 41.7273C42.6282 41.7273 57.1282 36.6782 67 52L2 52C0.895386 52 0 51.1045 0 50Z" fill-rule="evenodd" fill="#F58030" fill-opacity="0.160000"/>
	<path id="矢量 941" d="M52 52L2 52C0.895386 52 0 51.1045 0 50L0 36C4.93591 36.552 15.391 37.4907 17.7244 36.8281C20.641 36 29.1666 34.1367 34.5513 43.4531C38.859 50.9062 48.1859 51.793 52 52Z" fill-rule="evenodd" fill="#F05E34" fill-opacity="0.160000"/>
	<path id="矢量 942" d="M0 28C1.57056 28.6211 4.84619 31.9336 5.38464 40.2148C5.9231 48.4961 12.4893 48.22 15.7051 47.0469C20.7906 45.6667 31.7051 45.375 33.5 52L2 52C0.895386 52 0 51.1045 0 50L0 28Z" fill-rule="evenodd" fill="#EE4038" fill-opacity="0.160000"/>
	<defs/>
</svg>
