<svg width="15.871704" height="13.000000" viewBox="0 0 15.8717 13" fill="none" xmlns="http://www.w3.org/2000/svg" xmlns:xlink="http://www.w3.org/1999/xlink">
	<desc>
			Created with Pixso.
	</desc>
	<path id="path" d="M12.4209 7.17145C12.7081 7.27032 12.9846 7.39459 13.2502 7.54425C14.2584 8.12286 14.9982 8.95349 15.4619 10.0385C15.7843 10.7909 15.9056 11.5815 15.8638 12.4007C15.8497 12.6599 15.7217 12.839 15.5111 12.8895C15.204 12.9641 14.9292 12.7172 14.9508 12.3848C15.0103 11.4727 14.8158 10.6219 14.3394 9.84991C13.7045 8.81964 12.8014 8.17432 11.6344 7.92358C11.4536 7.88483 11.2704 7.87183 11.089 7.84283C10.8838 7.80927 10.7244 7.63702 10.7091 7.43579C10.6917 7.20691 10.8124 7.01251 11.0188 6.94415C11.5591 6.76343 11.9955 6.42969 12.3488 5.97937C12.7195 5.50659 12.9344 4.96344 12.9792 4.35913C13.0425 3.50342 12.8036 2.74249 12.248 2.09387C11.8237 1.59796 11.293 1.28473 10.6669 1.13885C10.4061 1.07825 10.1399 1.0672 9.87341 1.06659C9.63428 1.06976 9.48987 0.951477 9.44019 0.711609C9.38171 0.433228 9.57837 0.188049 9.87537 0.175659C10.443 0.152588 10.9928 0.24408 11.5125 0.480164C12.6892 1.01349 13.4644 1.91577 13.7562 3.2016C14.0649 4.55707 13.7305 5.76123 12.8163 6.79242C12.7572 6.85919 12.6927 6.92072 12.6289 6.98193C12.5651 7.04346 12.498 7.10205 12.4209 7.17145ZM6.18127 8.70667L6.81433 9.81049C7.10107 10.3096 7.38696 10.8094 7.67542 11.308C7.19849 11.7863 6.70886 12.3852 6.23523 12.867C5.7594 12.3837 5.17285 11.9038 4.6947 11.4229C5.18604 10.5705 5.69116 9.56012 6.18127 8.70667ZM12.2064 12.4336C12.1451 12.053 12.0575 11.6789 11.9257 11.3171C11.3114 9.62915 10.2057 8.40778 8.60791 7.65527C8.44397 7.57977 8.27686 7.51221 8.10669 7.45245C9.14575 6.77161 9.79333 5.82898 9.96643 4.57825C10.1399 3.32861 9.79968 2.22351 8.9679 1.29584C8.78516 1.09082 8.58374 0.90741 8.36365 0.745667C8.14355 0.583862 7.90955 0.447144 7.6615 0.335571C7.41357 0.223999 7.15698 0.139954 6.89172 0.0834351C6.62659 0.0268555 6.35864 -0.000915527 6.08777 0C5.81689 0.000976562 5.54907 0.0306396 5.2843 0.0890503C5.01953 0.147461 4.76355 0.233337 4.51624 0.346619C4.26904 0.459961 4.03589 0.598267 3.81689 0.761597C3.5979 0.924927 3.39771 1.10974 3.21643 1.31598C2.42456 2.21045 2.09033 3.27618 2.2301 4.47504C2.38171 5.76904 3.03699 6.74585 4.1001 7.44562C3.94189 7.50226 3.71545 7.60254 3.56323 7.67352C2.36768 8.23682 1.43445 9.09839 0.766479 10.2598C0.383545 10.9286 0.131104 11.6456 0.00891113 12.4108C-0.0301514 12.6482 0.0604248 12.8563 0.254761 12.9468C0.485962 13.0536 0.72168 12.9963 0.869751 12.8055C0.947266 12.7058 0.967285 12.587 0.989502 12.4691C1.20386 11.3389 1.70349 10.3615 2.5293 9.58093C3.90442 8.28076 5.52429 7.83472 7.34253 8.27197C8.81189 8.62463 9.91125 9.52039 10.6595 10.8635C10.9633 11.4086 11.1427 11.9989 11.2545 12.6136C11.3011 12.8725 11.5585 13.0373 11.8228 12.9881C12.0708 12.9426 12.248 12.6886 12.2064 12.4336ZM6.10754 7.09521C5.70728 7.09619 5.32227 7.01831 4.95239 6.86163C4.58252 6.70496 4.25623 6.48145 3.97339 6.19116C3.69067 5.90088 3.47302 5.56604 3.32068 5.18671C3.16833 4.80731 3.0929 4.41254 3.09448 4.00226C3.09949 2.29181 4.45068 0.912903 6.10779 0.916809C7.76843 0.920715 9.11877 2.30713 9.1178 4.00714C9.11646 5.70941 7.76782 7.09949 6.10754 7.09521Z" fill-rule="evenodd" fill="url(#paint_linear_16_208_0)"/>
	<defs>
		<linearGradient id="paint_linear_16_208_0" x1="0.000000" y1="6.499999" x2="15.871715" y2="6.499999" gradientUnits="userSpaceOnUse">
			<stop stop-color="#E8A833"/>
			<stop offset="1.000000" stop-color="#B48A52"/>
		</linearGradient>
	</defs>
</svg>
