<svg width="147.999756" height="84.000244" viewBox="0 0 148 84.0002" fill="none" xmlns="http://www.w3.org/2000/svg" xmlns:xlink="http://www.w3.org/1999/xlink">
	<desc>
			Created with Pixso.
	</desc>
	<path id="矢量 712" d="M0 83.9839L0 18.27L14.8462 41.8445L0 83.9839Z" fill-rule="evenodd" fill="#FF9812" fill-opacity="0.300000"/>
	<path id="矢量 713" d="M0.0012207 83.9854L14.8474 41.8459L37.1165 55.9907L0.0012207 83.9854Z" fill-rule="evenodd" fill="#FFAB3E" fill-opacity="0.300000"/>
	<path id="矢量 714" d="M0.00146484 83.9846L37.1167 55.99L71.4482 70.4294L0.00146484 83.9846Z" fill-rule="evenodd" fill="#FFBB62" fill-opacity="0.300000"/>
	<path id="矢量 715" d="M0.00146484 83.9854L71.4482 70.4299L56.1382 83.9854L0.00146484 83.9854Z" fill-rule="evenodd" fill="#FFAB3E" fill-opacity="0.300000"/>
	<path id="矢量 716" d="M54.7478 84.0002L85.3679 83.9846L71.4497 70.4292L54.7478 84.0002Z" fill-rule="evenodd" fill="#FFC579" fill-opacity="0.300000"/>
	<path id="矢量 717" d="M31.0867 38.8979L67.7375 0L14.3843 0L0.00219727 10.0193L0.00219727 18.2703L14.8486 41.8447L31.0867 38.8979Z" fill-rule="evenodd" fill="#FFB657" fill-opacity="0.300000"/>
	<path id="矢量 718" d="M14.8472 41.8447L31.0852 38.8979L43.1418 44.5879L37.1162 55.9895L14.8472 41.8447Z" fill-rule="evenodd" fill="#FFC983" fill-opacity="0.300000"/>
	<path id="矢量 719" d="M31.0864 38.8987L67.7378 0.000732422L83.9756 38.604L31.0864 38.8987Z" fill-rule="evenodd" fill="#FCC071" fill-opacity="0.300000"/>
	<path id="矢量 720" d="M31.0864 38.8994L83.9756 38.6047L37.1177 55.991L42.6848 44.793L31.0864 38.8994Z" fill-rule="evenodd" fill="#FFC983" fill-opacity="0.300000"/>
	<path id="矢量 721" d="M37.1174 55.9902L83.9753 38.604L101.153 58.915L71.449 70.4297L37.1174 55.9902Z" fill-rule="evenodd" fill="#FFD296" fill-opacity="0.300000"/>
	<path id="矢量 722" d="M0.00170898 10.0193L0.00170898 2C0.00170898 0.895508 0.897217 0 2.00171 0L45.3916 0L0.00170898 10.0193Z" fill-rule="evenodd" fill="#FF9812" fill-opacity="0.300000"/>
	<path id="矢量 723" d="M71.4497 70.4299L85.3679 83.9854L106.656 83.9854L148 83.9854L71.4497 70.4299Z" fill-rule="evenodd" fill="#FFCD8C" fill-opacity="0.300000"/>
	<path id="矢量 724" d="M71.4497 70.429L148 83.9841L101.142 58.9363L71.4497 70.429Z" fill-rule="evenodd" fill="#FFD9A7" fill-opacity="0.300000"/>
	<defs/>
</svg>
