<?xml version="1.0" encoding="iso-8859-1"?>
<!-- Generator: Adobe Illustrator 25.2.0, SVG Export Plug-In . SVG Version: 6.00 Build 0)  -->
<svg version="1.1" id="&#x56FE;&#x5C42;_1" xmlns="http://www.w3.org/2000/svg" xmlns:xlink="http://www.w3.org/1999/xlink" x="0px"
	 y="0px" viewBox="0 0 30 30" style="enable-background:new 0 0 30 30;" xml:space="preserve">
<g>
	<g>
		<path style="fill:#02A9F1;" d="M30,20.417l-9.65-3.245c0,0,0.741-1.11,1.533-3.287c0.792-2.177,0.905-3.372,0.905-3.372
			l-6.247-0.051V8.328l7.565-0.053V6.766H16.54V3.333h-3.705v3.433H5.777v1.508l7.058-0.05v2.288H7.173v1.195h11.654
			c0,0-0.128,0.97-0.575,2.177c-0.447,1.207-0.907,2.263-0.907,2.263s-5.472-1.915-8.355-1.915s-6.39,1.158-6.73,4.52
			c-0.339,3.36,1.633,5.18,4.411,5.85c2.778,0.673,5.343-0.007,7.577-1.1c2.233-1.092,4.425-3.574,4.425-3.574l11.247,5.462
			c-0.459,2.665-2.771,4.611-5.475,4.608H5.555C2.49,30.003,0.003,27.521,0,24.455v-18.9C-0.003,2.49,2.48,0.003,5.545,0h18.9
			C27.51-0.003,29.997,2.48,30,5.545V20.417z M15.936,18.537c0,0-3.511,4.432-7.647,4.432c-4.138,0-5.007-2.106-5.007-3.62
			c0-1.513,0.86-3.159,4.381-3.397c3.519-0.237,8.275,2.585,8.275,2.585H15.936z M15.936,18.537"/>
	</g>
</g>
</svg>
