<?xml version="1.0" encoding="utf-8"?>
<!-- Generator: Adobe Illustrator 25.2.0, SVG Export Plug-In . SVG Version: 6.00 Build 0)  -->
<svg version="1.1" id="图层_1" xmlns="http://www.w3.org/2000/svg" xmlns:xlink="http://www.w3.org/1999/xlink" x="0px" y="0px"
	 viewBox="0 0 100 100" style="enable-background:new 0 0 100 100;" xml:space="preserve">
<style type="text/css">
	.st0{clip-path:url(#SVGID_2_);fill:#969696;}
</style>
<g>
	<g>
		<defs>
			<rect id="SVGID_1_" x="9.8" y="6" width="80.4" height="88"/>
		</defs>
		<clipPath id="SVGID_2_">
			<use xlink:href="#SVGID_1_"  style="overflow:visible;"/>
		</clipPath>
		<path class="st0" d="M65.3,52.7c6.4-4.7,10.5-12.3,10.5-20.8C75.8,17.7,64.2,6.1,50,6.1c-14.2,0-25.8,11.6-25.8,25.8
			c0,8.5,4.1,16.1,10.5,20.8c-14.6,6-24.9,20.4-24.9,37.2c0,2.2,1.8,4,4,4c2.2,0,4-1.8,4-4c0-17.7,14.4-32.1,32.1-32.1
			c17.7,0,32.1,14.4,32.1,32.1c0,2.2,1.8,4,4,4c2.2,0,4-1.8,4-4C90.2,73.1,79.9,58.7,65.3,52.7L65.3,52.7z M32.2,31.9
			c0-9.8,8-17.8,17.8-17.8c9.8,0,17.8,8,17.8,17.8c0,9.8-8,17.8-17.8,17.8C40.2,49.6,32.2,41.7,32.2,31.9L32.2,31.9z M32.2,31.9"/>
	</g>
</g>
</svg>
