<?xml version="1.0" encoding="utf-8"?>
<!-- Generator: Adobe Illustrator 25.2.0, SVG Export Plug-In . SVG Version: 6.00 Build 0)  -->
<svg version="1.1" id="图层_1" xmlns="http://www.w3.org/2000/svg" xmlns:xlink="http://www.w3.org/1999/xlink" x="0px" y="0px"
	 viewBox="0 0 100 100" style="enable-background:new 0 0 100 100;" xml:space="preserve">
<style type="text/css">
	.st0{fill:#F6B246;}
	.st1{fill:#F5A517;}
	.st2{fill:#E6246B;}
</style>
<g>
	<path class="st0" d="M84.1,86c0,4.4-3.6,8-8,8H24c-4.4,0-8-3.6-8-8V14c0-4.4,3.6-8,8-8H76c4.4,0,8,3.6,8,8V86z M84.1,86"/>
	<path class="st1" d="M24,6c-4.4,0-8,3.6-8,8V86c0,4.4,3.6,8,8,8h52.1"/>
	<path class="st2" d="M50,35.4c16.3,0,30.1-7.8,34.1-18.4v-3c0-4.4-3.6-8-8-8H24c-4.4,0-8,3.6-8,8v3.1C20,27.7,33.7,35.4,50,35.4
		L50,35.4z M58.4,58.6H41.6c-1.5,0-2.7-1.2-2.7-2.7c0-1.5,1.2-2.7,2.7-2.7h16.8c1.5,0,2.7,1.2,2.7,2.7
		C61.1,57.4,59.9,58.6,58.4,58.6L58.4,58.6z M58.4,67.7H41.6c-1.5,0-2.7-1.2-2.7-2.7c0-1.5,1.2-2.7,2.7-2.7h16.8
		c0.7,0,1.4,0.3,1.9,0.8c0.5,0.5,0.8,1.2,0.8,1.9c0,0.7-0.3,1.4-0.8,1.9C59.8,67.4,59.1,67.7,58.4,67.7L58.4,67.7z M58.4,67.7"/>
	<path class="st2" d="M50,82.6c-0.7,0-1.4-0.3-1.9-0.8c-0.5-0.5-0.8-1.2-0.8-1.9V56c0-0.7,0.3-1.4,0.8-1.9c0.5-0.5,1.2-0.8,1.9-0.8
		c0.7,0,1.4,0.3,1.9,0.8c0.5,0.5,0.8,1.2,0.8,1.9v23.9c0,0.7-0.3,1.4-0.8,1.9C51.4,82.3,50.7,82.6,50,82.6L50,82.6z M50,82.6"/>
	<path class="st2" d="M47.9,58.1c-1,0-1.9-0.5-2.4-1.3l-4.2-7.1c-0.8-1.3-0.4-3,0.9-3.8c0.6-0.4,1.4-0.5,2.1-0.3
		c0.7,0.2,1.3,0.6,1.7,1.3l4.2,7.1c0.5,0.8,0.5,1.9,0,2.8S48.9,58.1,47.9,58.1L47.9,58.1z M47.9,58.1"/>
	<path class="st2" d="M52.1,58.1c-1,0-1.9-0.5-2.4-1.4c-0.5-0.9-0.5-1.9,0-2.8l4.2-7.1c0.4-0.6,1-1.1,1.7-1.3
		c0.7-0.2,1.5-0.1,2.1,0.3c0.6,0.4,1.1,1,1.3,1.7c0.2,0.7,0.1,1.5-0.3,2.1l-4.2,7.1C53.9,57.6,53,58.1,52.1,58.1L52.1,58.1z
		 M52.1,58.1"/>
</g>
</svg>
