<?xml version="1.0" encoding="iso-8859-1"?>
<!-- Generator: Adobe Illustrator 25.2.0, SVG Export Plug-In . SVG Version: 6.00 Build 0)  -->
<svg version="1.1" id="&#x56FE;&#x5C42;_1" xmlns="http://www.w3.org/2000/svg" xmlns:xlink="http://www.w3.org/1999/xlink" x="0px"
	 y="0px" viewBox="0 0 50 50" style="enable-background:new 0 0 50 50;" xml:space="preserve">
<g>
	<circle style="fill:#FFFFFF;" cx="25" cy="25" r="25"/>
</g>
<g>
	<circle style="fill:#787878;" cx="25" cy="25" r="20.5"/>
</g>
<path style="fill:#FFFFFF;" d="M32.071,34.899L15.101,17.929c-0.781-0.781-0.781-2.047,0-2.828l0,0c0.781-0.781,2.047-0.781,2.828,0
	l16.971,16.971c0.781,0.781,0.781,2.047,0,2.828l0,0C34.118,35.681,32.852,35.681,32.071,34.899z"/>
<path style="fill:#FFFFFF;" d="M34.899,17.929L17.929,34.899c-0.781,0.781-2.047,0.781-2.828,0l0,0
	c-0.781-0.781-0.781-2.047,0-2.828l16.971-16.971c0.781-0.781,2.047-0.781,2.828,0l0,0C35.681,15.882,35.681,17.148,34.899,17.929z"
	/>
</svg>
