<?xml version="1.0" encoding="utf-8"?>
<!-- Generator: Adobe Illustrator 25.2.0, SVG Export Plug-In . SVG Version: 6.00 Build 0)  -->
<svg version="1.1" id="图层_1" xmlns="http://www.w3.org/2000/svg" xmlns:xlink="http://www.w3.org/1999/xlink" x="0px" y="0px"
	 viewBox="0 0 93 100" style="enable-background:new 0 0 93 100;" xml:space="preserve">
<style type="text/css">
	.st0{fill:#20A43A;}
	.st1{fill:#18842D;}
	.st2{fill:#18852D;}
	.st3{fill:#20A53A;}
	.st4{fill:#24A53E;}
</style>
<path class="st0" d="M46.6,99.9c-0.2-0.4-0.2-0.9-0.3-1.4c0-3.5,0-7,0-10.5c0-18.2,0-36.5,0-54.7c0-0.7,0-1.4-0.1-2.1
	c0-0.1,0-0.2,0.2-0.2c0.2,0,0.4,0,0.6,0.1c2.1,0.6,4.1,1.2,6.2,1.7c0.5,0.1,0.7,0.4,0.6,0.9c0,1.6,0,3.2,0,4.8c0,0.6,0.2,0.9,0.8,1
	c1.3,0.3,2.6,0.7,3.9,0.9c0,0,0.1,0,0.1,0c0.5-0.2,0.8,0.1,1.2,0.3c0,0,0.1,0,0.1,0c0.9,0,0.1-0.4,0.3-0.6c-0.1-1.4,0-2.7,0-4.1
	c0-0.3,0-0.7,0.3-0.9c0.1,0,0.1,0,0.2,0c2.1,0.6,4.1,1.2,6.2,1.8c0.4,0.1,0.4,0.4,0.4,0.7c0,1.6,0,3.1,0,4.7c0,0.5,0.1,0.8,0.6,0.9
	c1.2,0.3,2.5,0.6,3.7,1c0,0,0.1,0,0.1,0c0.6-0.2,1.1,0.3,1.7,0.2c0.1,0,0.2-0.1,0.2-0.2c0.2-0.7,0-1.4,0.1-2.1c0.1-0.9,0-1.8,0-2.6
	c0-0.1,0-0.1,0-0.2c0-0.3,0.1-0.2,0.3-0.2c2,0.6,4.1,1.2,6.1,1.8c0.5,0.2,0.4,0.5,0.4,0.9c0,5.1,0.1,10.2,0.1,15.3
	c0,6.3,0,12.6,0.1,18.9c0,0.7-0.2,1.5-0.5,2.1c-1.7,3.3-4,6-6.8,8.5c-5,4.5-10.8,7.6-17,10.2c-2.9,1.2-5.8,2-8.7,3.1
	c-0.2,0.1-0.3,0.1-0.3,0.1l-0.1,0c-0.2,0.1-0.4,0.2-0.6,0.2"/>
<path class="st1" d="M46.2,31.1c0.2,0,0.4,0.2,0.4,0.4v0c0,0.3,0,0.5,0,0.8v67.8l-0.2-0.1c0,0-4-1.3-6-2c-6.9-2.5-13.4-5.6-19-10.3
	c-3.2-2.6-5.9-5.5-7.9-9.1c-0.6-1-0.9-2.2-0.9-3.3c0.1-11.2,0.1-22.4,0.1-33.6c0-0.7,0.2-0.9,0.8-1.1c2-0.5,3.9-1.1,5.9-1.7l0,0
	c0.3,0.3,0.2,0.7,0.2,1c0,1.1,0,2.2,0,3.3c0,0.8,0.1,0.9,0.9,0.7c0.3-0.1,0.6-0.1,0.9,0l0,0c1.3-0.3,2.6-0.7,4-1
	c0.5-0.1,0.5-0.4,0.5-0.8c0-1.6,0-3.2,0-4.8c0-0.3,0-0.6,0.4-0.7c2.1-0.6,4.2-1.2,6.3-1.8l0,0c0.3,0.3,0.2,0.7,0.2,1.1
	c0,1.4-0.1,2.8,0.1,4.3l0,0c0.5,0.4,0.9-0.1,1.4-0.1c0.2-0.1,0.4,0,0.7,0c1.2-0.3,2.4-0.7,3.6-1c0.6-0.1,0.8-0.4,0.8-1
	c-0.1-1.6,0-3.2,0-4.9c0-0.3,0-0.6,0.4-0.7C41.9,32.2,44.1,31.6,46.2,31.1z"/>
<path class="st0" d="M46.6,15.6c1,0.1,1.7,0.5,1.8,1.6c0.1,0.9,0.2,2.1,0.8,2.7c0.6,0.6,1.8,0.6,2.7,0.9c11.3,3.2,22.6,6.4,33.9,9.5
	c0.6,0.2,1,0.2,1.5-0.3c0,0,0.1-0.1,0.1-0.1c1.6-1.6,3.4-2.1,5.6-1.2c0.1,0.2-0.2,0.3-0.3,0.5c-1.8,2.4-3.6,4.7-5.4,7.1
	c-0.3,0.5-0.6,0.6-1.2,0.4c-12.9-3.8-25.9-7.5-38.8-11.2c-0.4-0.1-0.8-0.2-1.3-0.1c0.3-1,0.2-2.1,0.2-3.1c0-1.8,0-3.6,0-5.4
	C46.3,16.3,46.3,15.9,46.6,15.6z"/>
<path class="st1" d="M46.6,15.6c0,2.9,0,5.8,0,8.7c0,0.5,0,0.8-0.5,1c-3.6,1-7.1,2.1-10.6,3.1c-9.5,2.7-19,5.5-28.4,8.2
	c-0.3,0.1-0.7,0.3-1-0.1c-2-2.6-4-5.2-6.1-7.9l3.1-0.4c0.2,0,0.3,0,0.5,0.1s0.3,0.2,0.4,0.3c1.6,1.7,3.4,1.7,5.6,1.1
	c11.2-3.3,22.5-6.4,33.7-9.5c0.5-0.2,0.9-0.4,1-1c0.1-0.7,0.4-1.4,0.5-2.1C44.9,16,45.6,15.6,46.6,15.6z"/>
<path class="st0" d="M46.6,0.2c1.6-0.1,1.6-0.1,1.9,1.4c0.4,1.9,0.7,3.9,1.1,5.8c0,0.4,0.3,0.7,0.7,0.8c10.5,3.2,21,6.3,31.5,9.5
	c0.3,0.1,0.7,0.1,0.9-0.2c0,0,0.1-0.1,0.1-0.1c1.7-1.5,3.6-2.3,5.9-1.2c0,0.2-0.3,0.3-0.4,0.4c-2,2-4.1,3.9-6,5.9
	c-0.5,0.5-0.9,0.6-1.6,0.4c-11.1-3.1-22.3-6.2-33.4-9.3c-0.3-0.1-0.6-0.1-0.8-0.2c-0.1-0.3-0.2-0.6-0.1-0.8c0-3.7,0-7.4,0-11.1
	C46.3,1.1,46.2,0.6,46.6,0.2z"/>
<path class="st1" d="M46.6,0.2c0,4.1,0,8.2,0,12.3c0,0.3,0,0.7-0.2,1C40.9,15,35.5,16.6,30,18.1c-5.8,1.6-11.6,3.2-17.4,4.9
	c-0.8,0.2-1.2,0.1-1.8-0.5c-2-2.2-4.1-4.4-6-6.5c0.6-0.1,1.6-0.2,2.6-0.4c0.4-0.1,0.7,0.2,0.9,0.4c1.7,1.7,3.4,1.6,5.6,0.9
	c9.5-3,19.2-5.8,28.7-8.7c0.6-0.2,0.9-0.5,1-1.1c0.3-2,0.8-3.9,1.1-5.9c0.1-0.9,0.4-1.3,1.4-1.1C46.3,0.2,46.4,0.2,46.6,0.2z"/>
<path class="st0" d="M21.5,44.1c-0.5,0.2-1.1,0.4-1.7,0.5c-0.5,0.1-0.4-0.4-0.4-0.6c0-1.6,0-3.3,0-4.9c0,0,0.1,0,0.1,0
	c2,0.3,2,0.3,2,2.3C21.4,42.2,21.5,43.1,21.5,44.1z"/>
<path class="st2" d="M73.7,39v0.3c0.1,1.8,0.1,3.5,0,5.3c-0.7-0.1-1.4-0.4-2.1-0.5c0-1.3,0-2.6,0-3.8c0-0.6,0.2-0.9,0.8-1
	C72.9,39.2,73.3,38.9,73.7,39z"/>
<path class="st2" d="M59.7,40.7c-0.4-0.1-0.8-0.2-1.2-0.3c0-1.4,0-2.8,0-4.2c0-0.6,0.2-0.9,0.8-0.9c0.4,0,0.8-0.3,1.3-0.2
	c-0.3,0.7-0.1,1.5-0.2,2.2c0,1,0,2.1,0,3.1C60.5,40.8,60.5,40.9,59.7,40.7z"/>
<path class="st3" d="M34.3,40.5c0.2,0,0.5-0.1,0.7-0.1c-0.5,0-0.3-0.4-0.3-0.6c0-1.2,0-2.5,0-3.7c0-0.3,0.1-0.6-0.3-0.6
	c-0.6-0.1-1.1-0.4-1.7-0.3c0,1.7,0,3.3,0,5c0,0.1,0,0.8,0.2,0.9c0.1,0,0.2,0,0.3,0c0.1,0,0.2,0,0.3-0.1"/>
<path class="st4" d="M73.7,44.6c0-1.8,0-3.5,0-5.3c0.3,0.2,0.2,0.6,0.2,0.9c0.1,1.4-0.1,2.9,0.1,4.3c0,0.1-0.1,0.1-0.1,0.2
	C73.9,44.7,73.8,44.6,73.7,44.6z"/>
</svg>
