<?xml version="1.0" encoding="iso-8859-1"?>
<!-- Generator: Adobe Illustrator 25.2.0, SVG Export Plug-In . SVG Version: 6.00 Build 0)  -->
<svg version="1.1" id="&#x56FE;&#x5C42;_1" xmlns="http://www.w3.org/2000/svg" xmlns:xlink="http://www.w3.org/1999/xlink" x="0px"
	 y="0px" viewBox="0 0 50 50" style="enable-background:new 0 0 50 50;" xml:space="preserve">
<polygon style="fill:#FF0000;" points="25,25 0,50 0,25 25,0 50,0 "/>
<g>
	<path style="fill:#FFFFFF;" d="M22.239,23.001l-4.524,4.524l0.604,0.604l-0.95,0.95l-5.227-5.227
		c0.019,0.086,0.039,0.177,0.059,0.277c0.019,0.099,0.037,0.195,0.05,0.287l-1.445-0.059c-0.026-0.211-0.058-0.417-0.094-0.619
		s-0.084-0.404-0.143-0.609l-0.684,0.684l1.574,1.574c0.079-0.145,0.155-0.291,0.228-0.436c0.073-0.145,0.139-0.28,0.199-0.406
		l1.099,0.861c-0.139,0.31-0.303,0.647-0.495,1.01l2.614,2.614c0.211,0.211,0.359,0.399,0.445,0.564
		c0.086,0.164,0.12,0.331,0.104,0.5c-0.017,0.168-0.082,0.343-0.198,0.525c-0.116,0.181-0.273,0.397-0.47,0.648l-0.376,0.474
		L13.35,31.08l0.455-0.535c0.165-0.204,0.253-0.358,0.263-0.46c0.01-0.102-0.071-0.239-0.243-0.411l-2-2
		c-0.158,0.303-0.315,0.589-0.47,0.857c-0.155,0.267-0.289,0.496-0.402,0.687l-1.177-0.802c0.131-0.238,0.287-0.508,0.465-0.812
		c0.178-0.303,0.359-0.627,0.544-0.97l-1.754-1.754c-0.059-0.059-0.156-0.059-0.215,0l-0.932,0.932l-0.96-0.96l0.932-0.932
		c0.059-0.059,0.059-0.156,0-0.215L6.39,22.24l1-0.92l1.534,1.534l0.891-0.891l0.594,0.594c-0.323-1.063-0.822-2.095-1.494-3.099
		l1.138-0.782c0.313,0.526,0.6,1.057,0.86,1.593c0.045,0.093,0.166,0.113,0.239,0.04l1.345-1.345
		c-0.257-0.152-0.533-0.312-0.826-0.481c-0.293-0.169-0.533-0.298-0.717-0.392l0.772-1.029c0.099,0.047,0.219,0.105,0.357,0.178
		c0.137,0.074,0.286,0.153,0.445,0.238c0.158,0.086,0.318,0.174,0.48,0.262c0.161,0.089,0.315,0.174,0.46,0.253l1.663-1.663
		l0.891,0.891l-1.704,1.704c-0.059,0.059-0.059,0.156,0,0.215l0.854,0.854c0.059,0.059,0.156,0.059,0.215,0l1.526-1.526l0.881,0.881
		l-1.526,1.526c-0.059,0.059-0.059,0.156,0,0.215l0.844,0.844c0.059,0.059,0.156,0.059,0.215,0l1.526-1.526l0.901,0.901
		l-1.526,1.526c-0.059,0.059-0.059,0.156,0,0.215l0.963,0.963c0.059,0.059,0.156,0.059,0.215,0l1.923-1.923L22.239,23.001z
		 M13.143,20.1l-1.319,1.319c-0.059,0.059-0.059,0.156,0,0.215l0.854,0.854c0.059,0.059,0.156,0.059,0.215,0l1.319-1.319
		c0.059-0.059,0.059-0.156,0-0.215L13.358,20.1C13.299,20.041,13.203,20.041,13.143,20.1z M15.093,22.05l-1.319,1.319
		c-0.059,0.059-0.059,0.156,0,0.215l0.844,0.844c0.059,0.059,0.156,0.059,0.215,0l1.319-1.319c0.059-0.059,0.059-0.156,0-0.215
		l-0.844-0.844C15.249,21.991,15.153,21.991,15.093,22.05z M16.913,26.508l1.319-1.319c0.059-0.059,0.059-0.156,0-0.215
		l-0.963-0.963c-0.059-0.059-0.156-0.059-0.215,0l-1.319,1.319c-0.059,0.059-0.059,0.156,0,0.215l0.963,0.963
		C16.757,26.568,16.853,26.568,16.913,26.508z"/>
	<path style="fill:#FFFFFF;" d="M21.617,13.826c0.169,0.668,0.286,1.324,0.35,1.969c0.003,0.033,0.017,0.063,0.041,0.086
		l4.281,4.281l-0.91,0.91l-3.336-3.336c-0.008,0.376-0.028,0.758-0.065,1.144c-0.037,0.386-0.081,0.784-0.133,1.193l-1.281-0.53
		c-0.062-0.026-0.097-0.09-0.087-0.157c0.12-0.754,0.183-1.502,0.189-2.243c0.007-0.779-0.056-1.538-0.187-2.277l-1.901,1.901
		l-0.861-0.861l2.415-2.415c-0.059-0.204-0.135-0.419-0.228-0.643l-0.584,0.584l-0.534-0.534l-2.138,2.138l-0.861-0.861l2.138-2.138
		l-0.713-0.713l0.99-0.912l0.673,0.673l2.148-2.148l-0.713-0.713l0.98-0.901l0.673,0.673l2.079-2.079l0.861,0.861l-2.079,2.079
		l0.564,0.564l-0.941,0.941l-0.564-0.564l-2.148,2.148l0.188,0.188l0.93-0.574l0.337,0.871l4.742-4.742l0.861,0.861l-5.139,5.139
		C21.618,13.724,21.604,13.777,21.617,13.826z M30.337,11.697l-2.391,2.391c-0.057,0.057-0.057,0.151,0,0.208l0.935,0.935
		c0.218,0.218,0.383,0.416,0.495,0.595c0.113,0.177,0.167,0.358,0.164,0.539s-0.059,0.376-0.168,0.584
		c-0.109,0.207-0.282,0.45-0.52,0.727L28.328,18.3l-1.208-0.633l0.514-0.595c0.224-0.263,0.343-0.479,0.356-0.644
		c0.014-0.164-0.066-0.332-0.238-0.504l-0.822-0.822l-2.455,2.455l-0.831-0.831l2.455-2.455l-0.376-0.376l0.604-1.97l-3.228,3.228
		l-0.822-0.822l4.861-4.861l0.762,0.762l-0.851,3.089l2.456-2.456L30.337,11.697z"/>
</g>
</svg>
