<?xml version="1.0" encoding="utf-8"?>
<!-- Generator: Adobe Illustrator 25.2.0, SVG Export Plug-In . SVG Version: 6.00 Build 0)  -->
<svg version="1.1" id="图层_1" xmlns="http://www.w3.org/2000/svg" xmlns:xlink="http://www.w3.org/1999/xlink" x="0px" y="0px"
	 viewBox="0 0 100 100" style="enable-background:new 0 0 100 100;" xml:space="preserve">
<style type="text/css">
	.st0{fill:#FFFFFF;}
	.st1{fill:#020204;}
	.st2{fill:#D99A03;}
	.st3{fill:#604405;}
	.st4{fill:#F5BD0C;}
	.st5{fill:#CD8907;}
</style>
<path class="st0" d="M51.3,19.4c-0.8,0.5-1.5,1.3-1.8,2.3c-0.4,1.2-0.3,2.5,0.1,3.7c0.4,1.2,1.1,2.3,2.2,3.1
	c0.5,0.4,1.1,0.6,1.8,0.7c0.6,0.1,1.3,0,1.9-0.3c0.7-0.4,1.2-1,1.6-1.7c0.3-0.7,0.5-1.5,0.5-2.3c0.1-1-0.1-2-0.4-2.9
	c-0.3-1-1-1.9-1.9-2.5c-0.5-0.3-1-0.5-1.5-0.6s-1.1,0-1.6,0.2C51.8,19.1,51.5,19.2,51.3,19.4"/>
<path class="st1" d="M79.1,59.2c-0.5-2.8-1.3-5.5-2.3-8.1c-0.7-1.9-1.7-3.8-2.9-5.4c-1.2-1.6-2.7-3-3.9-4.6
	c-0.6-0.8-1.2-1.8-1.8-2.6c-0.3-0.5-0.5-1.1-0.8-1.6c-0.8-1.7-1.5-3.5-2.4-5.1c-0.1-0.3-0.3-0.5-0.4-0.8c-0.1-1.6-0.3-3.1-0.4-4.7
	c0.1-3.1-0.2-6.3-0.8-9.4c-0.4-1.5-1-2.9-1.9-4.2c-1-1.5-2.2-2.9-3.6-3.9c-2.4-1.7-5.2-2.6-8-2.6c-2.1,0-4.2,0.4-6.1,1.4
	c-2,1.1-3.6,2.8-4.6,4.8c-0.9,2-1.4,4.2-1.5,6.5c-0.1,2.2,0.1,4.4,0.2,6.6c0.1,2.3,0,4.6,0.2,6.9c0.1,0.7,0.1,1.5,0.1,2.2
	c0,0.4,0,0.7,0,1.1l0,0.1c-1,1.7-2.1,3.3-3.3,4.9c-0.8,1.1-1.7,2.1-2.5,3.2c-1.1,1.2-2,2.6-2.8,4.1c-0.5,1.3-0.9,2.6-1.2,4l0,0.1
	c-0.5,1.6-1.1,3.1-1.8,4.5c-0.1,0.1-0.1,0.3-0.2,0.4c-0.4,0.9-0.9,1.7-1.3,2.6l-0.5,1c-0.3,0.6-0.6,1.2-0.9,1.8
	c-0.1,0.4-0.3,0.8-0.3,1.2c-0.1,0.8-0.1,1.7,0.2,2.5c0,0.2,0.1,0.4,0.2,0.6c0.2,0.6,0.5,1.2,0.8,1.8c0.1,0.3,0.3,0.5,0.4,0.8
	l0.1,0.2c0.1,0.2,0.3,0.5,0.4,0.7l0,0c0.2,0.3,0.4,0.5,0.5,0.8l0,0c0.2,0.3,0.4,0.5,0.6,0.8c0.7,2.8,2.1,5.4,3.9,7.7
	c-0.3,0.5-0.5,1-0.8,1.5c-1,1.4-1.8,3-2.5,4.6c-0.3,0.8-0.3,1.7-0.2,2.6c0.1,0.9,0.6,1.7,1.3,2.2c0.5,0.4,1,0.6,1.5,0.7
	c0.6,0.1,1.1,0.2,1.7,0.1c2.2-0.2,4.3-0.6,6.4-1.3c1.2-0.3,2.5-0.6,3.8-0.9c1.3-0.3,2.7-0.5,4-0.5c0.3,0,0.7,0,1,0
	c0.9,0.1,1.8,0.1,2.8,0.1l0.3,0c0.2,0,0.5,0,0.7,0.1c1.6,0.1,3.2,0.3,4.8,0.5c1.4,0.2,2.8,0.5,4.2,0.8c2.1,0.6,4.3,1.1,6.6,1.3
	c0.6,0,1.2,0,1.8-0.1c0.6-0.1,1.1-0.4,1.6-0.7c0.7-0.6,1.1-1.4,1.3-2.2c0.1-0.9,0.1-1.8-0.2-2.6c-0.6-1.6-1.5-3.2-2.5-4.6
	c-0.4-0.6-0.7-1.2-1-1.8c1.5-1.7,2.9-3.5,4-5.5c0.7,0,1.4,0,2-0.3c1.7-0.6,3.2-1.7,4.2-3.2c0.3-0.4,0.6-0.9,0.7-1.4
	c0.7-1,1.1-2.2,1.3-3.4C79.6,63.3,79.6,61.2,79.1,59.2L79.1,59.2z"/>
<path class="st0" d="M41.6,31.6c-0.3,0.4-0.5,0.8-0.6,1.3c-0.1,0.5-0.2,1-0.2,1.5c0,1,0,2-0.2,2.9c-0.3,1-0.9,1.9-1.5,2.8
	c-1.1,1.4-2,3-2.7,4.8C36,45.9,35.9,47,36,48.1c-1.2,1.7-2.2,3.6-3.1,5.5c-1.3,2.9-2.1,6-2.5,9.2c-0.4,3.9,0.2,7.9,1.7,11.5
	c1.1,2.6,2.8,5,4.9,6.8c1.1,0.9,2.3,1.7,3.6,2.4c4.6,2.2,9.9,2.2,14.4-0.1c2.3-1.3,4.3-2.9,6.1-4.8c1.2-1.1,2.2-2.2,3.1-3.5
	c1.5-2.6,2.4-5.6,2.6-8.6c0.9-5.2,0.4-10.6-1.7-15.5c-0.8-1.6-1.8-3.1-3.1-4.5c-0.3-2.3-1-4.5-2-6.6c-0.7-1.5-1.6-3-2.2-4.5
	c-0.3-0.6-0.5-1.3-0.8-1.9c-0.3-0.6-0.7-1.2-1.2-1.7c-0.5-0.5-1.1-0.8-1.8-1c-0.7-0.2-1.4-0.3-2.1-0.4c-1.4-0.1-2.8,0.1-4.2,0.1
	c-1.1,0-2.2-0.2-3.3-0.2c-0.6,0-1.1,0.1-1.6,0.3C42.4,30.8,41.9,31.1,41.6,31.6 M42,19.4c-0.5,0-1,0.3-1.4,0.6
	c-0.4,0.4-0.7,0.8-0.8,1.3c-0.3,1-0.3,2.1-0.2,3.1c0,0.9,0.2,1.9,0.5,2.8c0.2,0.4,0.4,0.8,0.8,1.2c0.3,0.3,0.8,0.6,1.2,0.7
	c0.4,0.1,0.9,0.1,1.3,0c0.4-0.1,0.8-0.4,1.1-0.7c0.5-0.5,0.8-1,1-1.7c0.2-0.6,0.2-1.3,0.2-1.9c0-0.8-0.1-1.6-0.4-2.4
	s-0.7-1.5-1.2-2.1c-0.3-0.3-0.6-0.5-0.9-0.7C42.8,19.4,42.4,19.3,42,19.4 M51.3,19.4c-0.8,0.5-1.5,1.3-1.8,2.3
	c-0.4,1.2-0.3,2.5,0.1,3.7c0.4,1.2,1.1,2.3,2.2,3.1c0.5,0.4,1.1,0.6,1.8,0.7c0.6,0.1,1.3,0,1.9-0.3c0.7-0.4,1.2-1,1.6-1.7
	c0.3-0.7,0.5-1.5,0.5-2.3c0.1-1-0.1-2-0.4-2.9c-0.3-1-1-1.9-1.9-2.5c-0.5-0.3-1-0.5-1.5-0.6s-1.1,0-1.6,0.2
	C51.8,19.1,51.5,19.2,51.3,19.4"/>
<path class="st1" d="M53.2,21.8c-0.3,0-0.6,0.1-0.9,0.3c-0.3,0.2-0.5,0.4-0.7,0.6c-0.3,0.5-0.5,1.1-0.5,1.7c0,0.5,0,0.9,0.2,1.4
	s0.4,0.8,0.8,1.1c0.4,0.3,0.8,0.5,1.3,0.5c0.5,0,0.9-0.1,1.3-0.4c0.3-0.2,0.6-0.5,0.7-0.8c0.2-0.3,0.3-0.7,0.3-1.1
	c0.1-0.7,0-1.3-0.3-1.9c-0.3-0.6-0.8-1.1-1.4-1.3C53.8,21.8,53.5,21.8,53.2,21.8"/>
<path class="st0" d="M42,19.4c-0.5,0-1,0.3-1.4,0.6c-0.4,0.4-0.7,0.8-0.8,1.3c-0.3,1-0.3,2.1-0.2,3.1c0,0.9,0.2,1.9,0.5,2.8
	c0.2,0.4,0.4,0.8,0.8,1.2c0.3,0.3,0.8,0.6,1.2,0.7c0.4,0.1,0.9,0.1,1.3,0c0.4-0.1,0.8-0.4,1.1-0.7c0.5-0.5,0.8-1,1-1.7
	c0.2-0.6,0.2-1.3,0.2-1.9c0-0.8-0.1-1.6-0.4-2.4s-0.7-1.5-1.2-2.1c-0.3-0.3-0.6-0.5-0.9-0.7C42.8,19.4,42.4,19.3,42,19.4"/>
<path class="st1" d="M40.8,23.7c-0.1,0.7-0.1,1.3,0.1,2c0.2,0.4,0.4,0.8,0.7,1.1c0.2,0.2,0.4,0.4,0.7,0.5c0.3,0.1,0.6,0.2,0.8,0.1
	c0.3-0.1,0.5-0.2,0.7-0.4c0.2-0.2,0.3-0.5,0.4-0.7c0.2-0.8,0.2-1.6,0-2.3c-0.2-0.6-0.5-1.1-0.9-1.4c-0.2-0.2-0.5-0.3-0.7-0.4
	c-0.3-0.1-0.6,0-0.8,0.1c-0.3,0.1-0.5,0.4-0.6,0.6C40.9,23.1,40.8,23.4,40.8,23.7"/>
<path class="st2" d="M39.5,31.9c0,0.1,0,0.2,0.1,0.2c0.1,0.1,0.2,0.2,0.3,0.3c0.1,0.1,0.3,0.2,0.4,0.2c0.7,0.5,1.3,1,1.7,1.7
	c0.6,0.9,1.3,1.7,2.1,2.4c0.6,0.4,1.4,0.7,2.1,0.8c0.9,0.1,1.8,0,2.7-0.3c0.8-0.2,1.6-0.6,2.3-1c1.2-1,2.6-1.9,4-2.6
	c0.3-0.1,0.7-0.2,1-0.4c0.3-0.1,0.6-0.4,0.8-0.7c0.1-0.3,0.2-0.6,0.2-1c0-0.4,0.2-0.7,0.2-1c0.1-0.4,0-0.7-0.1-1.1
	c-0.1-0.3-0.4-0.5-0.6-0.6c-0.3-0.1-0.6-0.2-0.8-0.2c-0.6,0-1.2,0.1-1.8,0.2c-0.8,0.1-1.6,0-2.3,0c-1,0-1.9,0.2-2.9,0.3
	c-1.1,0.1-2.2-0.1-3.3-0.2c-0.5,0-1,0-1.4,0.1c-0.5,0.1-0.9,0.2-1.3,0.5c-0.4,0.3-0.7,0.6-1,0.9c-0.2,0.2-0.4,0.3-0.6,0.4
	c-0.2,0.1-0.4,0.2-0.7,0.2c-0.1,0-0.2,0-0.4,0c-0.1,0-0.1,0.1-0.2,0.1l-0.1,0.2C39.7,31.6,39.6,31.7,39.5,31.9"/>
<path class="st3" d="M42,29.5c-0.4,0.2-0.8,0.5-1.2,0.8c-0.2,0.1-0.4,0.3-0.5,0.5c-0.1,0.2-0.1,0.3-0.1,0.5c0,0.2,0,0.3,0,0.5
	c0,0.1,0,0.2,0,0.3c0,0.1,0,0.1,0,0.2c0,0.1,0,0.1,0.1,0.1c0,0,0.1,0.1,0.2,0.1c0.1,0,0.1,0,0.2,0c0.3,0.1,0.7,0.3,0.9,0.5
	c0.3,0.2,0.5,0.5,0.8,0.7c0.8,0.6,1.7,0.9,2.7,0.9c1,0,1.9-0.2,2.9-0.4c0.7-0.2,1.5-0.4,2.2-0.6c1.1-0.4,2.1-1,3-1.8
	c0.4-0.4,0.8-0.7,1.2-1c0.4-0.2,0.8-0.4,1.2-0.6c0,0,0.1,0,0.1-0.1c0,0,0.1-0.1,0.1-0.1c0-0.1,0-0.1,0-0.2c0-0.1,0-0.1-0.1-0.2
	c0-0.1-0.1-0.1-0.2-0.2c-0.4-0.3-1-0.5-1.5-0.5c-0.6,0-1.1,0-1.7-0.1c-0.5-0.1-1-0.3-1.5-0.4c-0.5-0.2-1-0.3-1.6-0.4
	c-1.3-0.2-2.6-0.2-3.8,0.1C44.2,28.4,43,28.9,42,29.5"/>
<path class="st4" d="M41.8,28.1c-0.6,0.4-1.1,0.8-1.5,1.4c-0.3,0.3-0.5,0.6-0.6,1c-0.1,0.3-0.1,0.6-0.2,0.9c0,0.1,0,0.2,0,0.3
	c0,0.1,0,0.1,0,0.2c0,0.1,0,0.1,0.1,0.1c0.1,0.1,0.2,0.1,0.3,0.1c0.1,0,0.2,0,0.3,0c0.4,0.1,0.8,0.2,1.2,0.5c0.4,0.2,0.7,0.5,1,0.8
	c0.8,0.5,1.8,0.8,2.7,0.8c1,0,1.9-0.1,2.8-0.3c0.7-0.1,1.5-0.3,2.2-0.6c1.1-0.5,2.1-1.1,3-1.8c0.4-0.3,0.8-0.6,1.2-1
	c0.1-0.1,0.3-0.3,0.4-0.4c0.1-0.1,0.3-0.2,0.5-0.3c0.3-0.1,0.5-0.1,0.8,0c0.2,0,0.4,0.1,0.6,0.1c0.1,0,0.2,0,0.3,0
	c0.1,0,0.2-0.1,0.2-0.2c0.1-0.1,0.1-0.2,0.1-0.4s0-0.3-0.1-0.4c-0.1-0.2-0.4-0.4-0.6-0.5c-0.3-0.1-0.7-0.2-1.1-0.3
	c-1.1-0.3-2.2-0.7-3.2-1.2c-0.5-0.3-1-0.5-1.5-0.8c-0.5-0.3-1-0.5-1.6-0.7c-1.3-0.3-2.6-0.3-3.8,0.2C44,26.2,42.8,27,41.8,28.1"/>
<path class="st5" d="M48.2,26.6c0.1,0.2,0.4,0.2,0.6,0.3s0.3,0.3,0.5,0.3c0.2,0,0.5-0.1,0.5-0.3c0-0.3-0.3-0.4-0.6-0.5
	c-0.3-0.1-0.7-0.2-1,0C48.2,26.4,48.2,26.5,48.2,26.6z M44.8,26.5c-0.3-0.1-0.7,0.4-0.6,0.6c0,0.1,0.2,0.1,0.2,0.1
	c0.1,0,0.2-0.3,0.4-0.4C45,26.7,44.9,26.5,44.8,26.5z"/>
<path class="st4" d="M86.7,81c-0.2,0.5-0.5,1-0.8,1.4C85,83.3,84,84,82.9,84.5c-1.9,0.9-3.7,1.8-5.4,2.9c-1.1,0.8-2.2,1.6-3.2,2.6
	c-0.8,0.8-1.7,1.6-2.6,2.4c-1,0.7-2.1,1.2-3.2,1.4c-1.4,0.2-2.9,0-4.2-0.6c-0.9-0.4-1.8-1-2.3-1.8c-0.5-0.9-0.7-1.9-0.7-2.9
	c0.1-1.8,0.3-3.6,0.6-5.3c0.3-1.5,0.5-2.9,0.7-4.4c0.3-2.7,0.3-5.4,0.1-8.1c0-0.4,0-0.9,0-1.4c0.1-0.9,0.8-1.6,1.8-1.6
	c0.4,0,0.8,0,1.2,0.1c1,0.1,2,0.3,2.9,0.5c0.6,0.2,1.2,0.4,1.8,0.5c1,0.3,2.1,0.4,3.1,0.3c1.1-0.3,2.2-0.4,3.3-0.5
	c0.5,0,0.9,0.1,1.3,0.2c0.4,0.1,0.9,0.4,1.2,0.7c0.2,0.3,0.4,0.6,0.6,0.9c0.2,0.5,0.3,1,0.3,1.5c0,0.5,0.1,0.9,0.1,1.4
	c0.2,0.8,0.5,1.5,1,2c0.5,0.6,1.1,1.1,1.7,1.6c0.6,0.5,1.2,1,1.8,1.4c0.3,0.2,0.6,0.4,0.9,0.6c0.3,0.2,0.5,0.5,0.7,0.8
	C86.7,80,86.8,80.5,86.7,81"/>
<path class="st4" d="M86.7,81c-0.2,0.5-0.5,1-0.8,1.4C85,83.3,84,84,82.9,84.5c-1.9,0.9-3.7,1.8-5.4,2.9c-1.1,0.8-2.2,1.6-3.2,2.6
	c-0.8,0.8-1.7,1.6-2.6,2.4c-1,0.7-2.1,1.2-3.2,1.4c-1.4,0.2-2.9,0-4.2-0.6c-0.9-0.4-1.8-1-2.3-1.8c-0.5-0.9-0.7-1.9-0.7-2.9
	c0.1-1.8,0.3-3.6,0.6-5.3c0.3-1.5,0.5-2.9,0.7-4.4c0.3-2.7,0.3-5.4,0.1-8.1c0-0.4,0-0.9,0-1.4c0.1-0.9,0.8-1.6,1.8-1.6
	c0.4,0,0.8,0,1.2,0.1c1,0.1,2,0.3,2.9,0.5c0.6,0.2,1.2,0.4,1.8,0.5c1,0.3,2.1,0.4,3.1,0.3c1.1-0.3,2.2-0.4,3.3-0.5
	c0.5,0,0.9,0.1,1.3,0.2c0.4,0.1,0.9,0.4,1.2,0.7c0.2,0.3,0.4,0.6,0.6,0.9c0.2,0.5,0.3,1,0.3,1.5c0,0.5,0.1,0.9,0.1,1.4
	c0.2,0.8,0.5,1.5,1,2c0.5,0.6,1.1,1.1,1.7,1.6c0.6,0.5,1.2,1,1.8,1.4c0.3,0.2,0.6,0.4,0.9,0.6c0.3,0.2,0.5,0.5,0.7,0.8
	C86.7,80,86.8,80.5,86.7,81 M25.3,66c0.5-0.2,1-0.2,1.5-0.1c0.5,0.1,1,0.3,1.4,0.6c0.8,0.6,1.5,1.4,2.1,2.2c1.4,1.9,2.7,3.8,3.9,5.8
	c1,1.6,1.9,3.3,3,4.8c0.7,1,1.6,1.9,2.3,2.9c0.8,1,1.4,2.1,1.7,3.3c0.4,1.6,0.3,3.2-0.5,4.7c-0.5,1-1.3,1.9-2.3,2.5
	c-1,0.6-2.1,0.9-3.2,0.8c-1.8-0.2-3.5-0.8-5.1-1.6c-3.4-1.4-7.1-1.8-10.6-2.8c-1.1-0.3-2.1-0.7-3.2-1c-0.5-0.1-1-0.3-1.4-0.5
	c-0.5-0.2-0.9-0.5-1.1-0.9c-0.2-0.3-0.3-0.7-0.3-1.1c0-0.4,0.1-0.8,0.2-1.1c0.3-0.7,0.7-1.4,1-2.1c0.4-1.2,0.6-2.5,0.5-3.7
	c-0.1-1.3-0.3-2.5-0.4-3.8c-0.1-0.6,0-1.1,0.1-1.7c0.1-1.1,1-2,2.1-2.2c0.5-0.1,1-0.1,1.6-0.1c0.5,0,1,0,1.6,0s1-0.2,1.5-0.4
	c0.4-0.3,0.8-0.6,1.1-1c0.3-0.4,0.5-0.8,0.8-1.3s0.5-0.8,0.8-1.2C24.5,66.6,24.9,66.3,25.3,66"/>
<path class="st4" d="M25.3,66.1c0.5-0.2,1-0.2,1.5-0.1c0.5,0.1,1,0.3,1.4,0.6c0.8,0.6,1.5,1.4,2.1,2.2c1.4,1.9,2.7,3.8,3.9,5.8
	c1,1.6,1.9,3.3,3,4.8c0.7,1,1.6,1.9,2.3,2.9c0.8,1,1.4,2.1,1.7,3.3c0.4,1.6,0.3,3.2-0.5,4.7c-0.5,1-1.3,1.9-2.3,2.5
	c-1,0.6-2.1,0.9-3.2,0.8c-1.8-0.2-3.5-0.8-5.1-1.6c-3.4-1.4-7.1-1.8-10.6-2.8c-1.1-0.3-2.1-0.7-3.2-1c-0.5-0.1-1-0.3-1.4-0.5
	c-0.5-0.2-0.9-0.5-1.1-0.9c-0.2-0.3-0.3-0.7-0.3-1.1c0-0.4,0.1-0.8,0.2-1.1c0.3-0.7,0.7-1.4,1-2.1c0.4-1.2,0.6-2.5,0.5-3.7
	c-0.1-1.3-0.3-2.5-0.4-3.8c-0.1-0.6,0-1.1,0.1-1.7c0.1-1.1,1-2,2.1-2.2c0.5-0.1,1-0.1,1.6-0.1c0.5,0,1,0,1.6,0c0.5,0,1-0.2,1.5-0.4
	c0.4-0.3,0.8-0.6,1.1-1c0.3-0.4,0.5-0.8,0.8-1.3s0.5-0.8,0.8-1.2C24.5,66.6,24.9,66.3,25.3,66.1"/>
<path class="st4" d="M26.1,66.9c0.4-0.2,0.9-0.2,1.4-0.1c0.4,0.1,0.9,0.3,1.2,0.6c0.7,0.6,1.3,1.3,1.7,2.1c1.2,1.9,2.3,3.8,3.4,5.8
	c0.8,1.5,1.6,2.9,2.6,4.3c0.7,0.9,1.4,1.7,2.1,2.6c0.7,0.9,1.2,1.9,1.6,2.9c0.4,1.4,0.2,2.9-0.4,4.2c-0.5,0.9-1.2,1.7-2.1,2.2
	c-0.9,0.5-1.9,0.8-3,0.7c-1.6-0.3-3.2-0.7-4.7-1.5c-3-1.1-6.2-1.2-9.2-2.1c-1.1-0.3-2.2-0.7-3.3-1c-0.5-0.1-1-0.2-1.4-0.4
	c-0.5-0.2-0.9-0.5-1.2-0.9c-0.2-0.3-0.3-0.7-0.2-1.1c0-0.4,0.1-0.7,0.2-1.1c0.3-0.7,0.7-1.3,0.9-2c0.4-1.1,0.5-2.2,0.4-3.3
	c-0.1-1.1-0.3-2.2-0.3-3.4c0-0.5,0-1,0.1-1.5c0.1-0.5,0.3-1,0.7-1.3c0.4-0.4,0.9-0.6,1.5-0.7c0.5-0.1,1.1-0.1,1.6,0
	c0.5,0.1,1.1,0.1,1.6,0.1c1.1,0,2.1-0.6,2.5-1.6c0.2-0.4,0.4-0.9,0.6-1.4c0.2-0.5,0.4-0.9,0.7-1.3C25.2,67.4,25.6,67,26.1,66.9"/>
</svg>
