<?xml version="1.0" encoding="utf-8"?>
<!-- Generator: Adobe Illustrator 25.2.0, SVG Export Plug-In . SVG Version: 6.00 Build 0)  -->
<svg version="1.1" id="图层_1" xmlns="http://www.w3.org/2000/svg" xmlns:xlink="http://www.w3.org/1999/xlink" x="0px" y="0px"
	 viewBox="0 0 100 100" style="enable-background:new 0 0 100 100;" xml:space="preserve">
<style type="text/css">
	.st0{clip-path:url(#SVGID_2_);fill:#A81D33;}
</style>
<g>
	<g>
		<defs>
			<rect id="SVGID_1_" x="14.7" y="6" width="70.6" height="88"/>
		</defs>
		<clipPath id="SVGID_2_">
			<use xlink:href="#SVGID_1_"  style="overflow:visible;"/>
		</clipPath>
		<path class="st0" d="M56.9,52.5c-1.5,0,0.3,0.7,2.2,1c0.5-0.4,1-0.8,1.4-1.2c-0.8,0.2-1.6,0.3-2.4,0.3
			C57.7,52.6,57.2,52.5,56.9,52.5L56.9,52.5L56.9,52.5z M64.7,50.5c0.8-1.2,1.5-2.5,1.7-3.9c-0.2,1-0.7,1.8-1.2,2.7
			c-2.7,1.7-0.3-1,0-2.1C62.3,51,64.8,49.5,64.7,50.5L64.7,50.5z M67.6,43c0.2-2.6-0.5-1.8-0.7-0.8C67.1,42.4,67.3,44.1,67.6,43
			L67.6,43z M51.4,7.2c0.7,0.1,1.6,0.3,1.5,0.4C53.8,7.4,53.9,7.3,51.4,7.2L51.4,7.2z M52.9,7.6l-0.5,0.1L52.9,7.6L52.9,7.6
			L52.9,7.6z M77.1,44c0.1,2.3-0.7,3.5-1.4,5.5l-1.3,0.7c-1,2,0.1,1.3-0.6,2.9c-1.6,1.4-4.9,4.5-5.9,4.8c-0.7,0,0.5-0.9,0.7-1.2
			c-2.2,1.5-1.8,2.2-5,3.1l-0.1-0.2c-8.1,3.8-19.4-3.7-19.2-14.1c-0.1,0.6-0.3,0.5-0.4,0.7c0-0.3,0-0.7,0-1.1c0-5,2.8-9.5,7.3-11.7
			l0.1,0c4.5-2.3,9.9-1.6,13.7,1.8l0,0c-2.3-3-5.9-4.8-9.7-4.8c-0.1,0-0.2,0-0.3,0h0c-4.3,0-8.3,2.8-9.7,5.7
			c-2.2,1.4-2.5,5.4-3.4,6.1c-1.3,9.5,2.4,13.6,8.7,18.5c1,0.7,0.3,0.8,0.4,1.3c-2.1-1-4-2.5-5.6-4.2l0,0c0.8,1.2,1.7,2.4,2.9,3.3
			c-2-0.7-4.6-4.8-5.4-4.9c3.4,6.1,13.8,10.7,19.3,8.4c-0.5,0-1,0.1-1.6,0.1c-2.4,0-4.8-0.4-7.1-1.1l0.2,0c-1.2-0.6-2.8-1.9-2.6-2.1
			c2.6,1.1,5.4,1.7,8.2,1.7c4.9,0,9.6-1.7,13.4-4.8l0,0c1.6-1.3,3.4-3.4,3.9-3.5c-0.7,1.2,0.1,0.6-0.4,1.6c1.6-2.6-0.7-1.1,1.7-4.5
			l0.9,1.2c-0.3-2.2,2.7-4.8,2.4-8.3c0.7-1.1,0.7,1.1,0,3.6c1.1-2.7,0.3-3.1,0.5-5.3c0.3,0.7,0.7,1.5,0.8,2.3
			c-0.7-2.6,0.7-4.4,1-5.9c-0.3-0.2-1,1.1-1.2-1.9c0-1.4,0.4-0.7,0.5-1c-0.3-0.2-1-1.2-1.4-3.1c0.3-0.5,0.8,1.2,1.2,1.2
			c-0.3-1.5-0.7-2.7-0.7-4c-1.2-2.5-0.4,0.4-1.5-1.1c-1.2-4,1.1-0.9,1.2-2.7c2,2.8,3.1,7.2,3.6,9c-0.4-2.2-1-4.4-1.8-6.4
			c0.6,0.3-1-4.5,0.8-1.4c-2.4-7-7.1-12.6-13.3-16l-0.1-0.1c0.7,0.6,1.5,1.4,1.2,1.5c-2.7-1.6-2.3-1.8-2.7-2.5
			c-2.2-0.9-2.4,0.1-3.9,0c-4.2-2.3-5.1-2-8.9-3.5l0.2,0.8c-2.8-0.9-3.3,0.4-6.3,0c-0.2-0.1,1-0.5,1.9-0.7c-2.7,0.4-2.6-0.5-5.2,0.1
			c0.6-0.5,1.3-0.8,2-1.2c-2.2,0.1-5.3,1.3-4.3,0.3c-3.6,1.6-10,3.9-13.6,7.3l-0.1-0.8c-1.6,2-7.2,5.9-7.6,8.5L23,22
			c-0.8,1.5-1.4,3.1-2.1,4.6c-1.1,1.9-1.6,0.7-1.5,1c-2.2,4.5-3.3,8.2-4.2,11.3c0.7,1,0,6,0.3,10.1C14.4,69,29.5,88.5,46.1,93
			c2.5,0.8,6,0.8,9.1,0.9c-3.6-1-4.1-0.5-7.6-1.8c-2.6-1.2-3.1-2.6-4.9-4.1l0.7,1.3c-3.6-1.2-2.1-1.5-5-2.5l0.8-1
			c-1.1-0.1-3-1.9-3.6-3l-1.2,0c-1.5-1.8-2.3-3.2-2.2-4.2l-0.4,0.7c-0.5-0.8-5.6-7-2.9-5.5c-0.5-0.4-1.1-0.7-1.8-2l0.5-0.6
			c-1.3-1.6-2.3-3.7-2.3-4.4c0.7,0.9,1.2,1.1,1.6,1.2c-3.2-7.9-3.4-0.4-5.9-8.1l0.5-0.1c-0.4-0.6-0.7-1.2-1-1.9l0.2-2.2
			c-2.3-2.7-0.7-11.3-0.3-16.1c0.3-2,1.9-4,3.2-7.2L23,32.3c1.5-2.6,8.6-10.5,11.9-10.1c1.6-2-0.3,0-0.7-0.5c3.5-3.6,4.6-2.6,7-3.2
			c2.6-1.5-2.2,0.6-1-0.5c4.4-1.1,3.1-2.6,8.9-3.1c0.6,0.4-1.4,0.5-1.9,1c3.7-1.8,11.5-1.4,16.7,1c6,2.8,12.7,11,12.9,18.8l0.3,0.1
			c-0.1,3.1,0.5,6.7-0.6,9.9L77.1,44L77.1,44z M41,54.5l-0.2,1c1,1.3,1.7,2.7,2.9,3.7C42.8,57.5,42.2,56.8,41,54.5L41,54.5z
			 M43.2,54.4c-0.5-0.5-0.8-1.2-1.1-1.9c0.3,1.2,1,2.2,1.6,3.2L43.2,54.4z M83.3,45.7L83,46.2c-0.4,2.8-1.2,5.5-2.5,8.1
			C82,51.6,82.9,48.7,83.3,45.7L83.3,45.7z M51.6,6.5c1-0.4,2.4-0.2,3.5-0.4c-1.4,0.1-2.7,0.2-4,0.4L51.6,6.5L51.6,6.5z M17.1,24.9
			c0.3,2.1-1.6,2.9,0.4,1.5C18.6,24,17.1,25.8,17.1,24.9L17.1,24.9z M14.8,34.6c0.4-1.4,0.5-2.3,0.7-3.1
			C14.2,33.2,14.9,33.5,14.8,34.6L14.8,34.6z M14.8,34.6"/>
	</g>
</g>
</svg>
