<?xml version="1.0" encoding="utf-8"?>
<!-- Generator: Adobe Illustrator 25.2.0, SVG Export Plug-In . SVG Version: 6.00 Build 0)  -->
<svg version="1.1" id="图层_1" xmlns="http://www.w3.org/2000/svg" xmlns:xlink="http://www.w3.org/1999/xlink" x="0px" y="0px"
	 viewBox="0 0 100 100" style="enable-background:new 0 0 100 100;" xml:space="preserve">
<style type="text/css">
	.st0{fill:#FB9200;}
	.st1{fill:#FAC400;}
	.st2{fill:#E9000C;}
</style>
<g>
	<path class="st0" d="M15.4,40.6c5.2,0,9.4,4.1,9.4,9.2c0,5.1-4.2,9.2-9.4,9.2c-5.2,0-9.4-4.1-9.4-9.2C6,44.7,10.2,40.6,15.4,40.6
		L15.4,40.6z M57.5,13.4c2.3,0,4.6,0.2,6.8,0.6c0,0.4-0.1,0.8-0.1,1.2c0,7.1,5.9,12.8,13.2,12.8c2.9,0,5.5-0.9,7.6-2.4
		c5,5.6,8.3,12.7,8.9,20.5l-14.9,0.4C77.8,36,68.6,27.8,57.5,27.8c-3,0-6,0.6-8.8,1.8l-7.4-12.6C46.3,14.6,51.9,13.4,57.5,13.4
		L57.5,13.4z M57.5,13.4"/>
	<path class="st1" d="M77.9,75.6c5.2,0,9.4,4.1,9.4,9.2c0,5.1-4.2,9.2-9.4,9.2c-5.2,0-9.4-4.1-9.4-9.2
		C68.5,79.8,72.7,75.6,77.9,75.6L77.9,75.6z M36.6,78.2c-6.4-4.3-11.3-10.6-13.8-17.8c3.5-2.3,5.8-6.2,5.8-10.6
		c0-4.6-2.5-8.6-6.2-10.8c2.3-7.7,7.3-14.3,13.9-18.9l7.9,12.3c-5.1,3.9-8.3,9.9-8.3,16.6c0,6.7,3.2,12.7,8.2,16.5L36.6,78.2z
		 M36.6,78.2"/>
	<path class="st2" d="M94,51.5c-0.6,8.5-4.3,16.2-10,22c-1.9-1-4-1.5-6.1-1.5c-6.9,0-12.6,5.2-13.1,11.8c-2.4,0.5-4.8,0.7-7.3,0.7
		c-5.5,0-11-1.2-16-3.6l7.4-12.6c2.7,1.1,5.6,1.7,8.6,1.7c11.2,0,20.4-8.3,21.6-18.8L94,51.5z M77.4,6c5.2,0,9.4,4.1,9.4,9.2
		c0,5.1-4.2,9.2-9.4,9.2c-5.2,0-9.4-4.1-9.4-9.2C68,10.1,72.2,6,77.4,6L77.4,6z M77.4,6"/>
</g>
</svg>
