<?xml version="1.0" encoding="utf-8"?>
<!-- Generator: Adobe Illustrator 25.2.0, SVG Export Plug-In . SVG Version: 6.00 Build 0)  -->
<svg version="1.1" id="图层_1" xmlns="http://www.w3.org/2000/svg" xmlns:xlink="http://www.w3.org/1999/xlink" x="0px" y="0px"
	 viewBox="0 0 100 100" style="enable-background:new 0 0 100 100;" xml:space="preserve">
<style type="text/css">
	.st0{fill:#294172;}
	.st1{fill:#3C6EB4;}
	.st2{fill:#FFFFFF;}
</style>
<g>
	<path class="st0" d="M92.5,50c0-23.5-19-42.5-42.5-42.5C26.5,7.5,7.5,26.5,7.5,50v32.9c0,5.3,4.3,9.6,9.7,9.6H50
		C73.5,92.5,92.5,73.5,92.5,50L92.5,50z M92.5,50"/>
	<path class="st1" d="M62.5,17.6c-11,0-19.9,8.9-19.9,19.9v10.6H32C21,48.1,12.1,57,12.1,68C12.1,79,21,87.9,32,88
		c11,0,19.9-8.9,19.9-19.9V57.4h10.5c11,0,19.9-8.9,19.9-19.9C82.4,26.5,73.5,17.6,62.5,17.6L62.5,17.6z M42.6,68
		c0,5.9-4.8,10.6-10.6,10.6c-5.9,0-10.6-4.8-10.6-10.6c0-5.9,4.8-10.6,10.6-10.6h10.5v0h0.1V68L42.6,68z M62.5,48.1H51.9v0h-0.1
		V37.5c0-5.9,4.8-10.6,10.6-10.6c5.9,0,10.6,4.8,10.6,10.6C73.1,43.4,68.3,48.1,62.5,48.1L62.5,48.1z M62.5,48.1"/>
	<path class="st2" d="M66.9,18.2c-1.4-0.4-2.9-0.6-4.4-0.6c-11,0-19.9,8.9-19.9,19.9v10.6h-8.4c-2.6,0-4.7,2-4.7,4.6
		c0,2.6,2.1,4.6,4.7,4.6H41c0.8,0,1.5,0.7,1.5,1.5V68c0,5.8-4.7,10.5-10.5,10.5c-2,0-2.5-0.3-3.8-0.3c-2.8,0-4.7,1.9-4.7,4.5
		c0,2.1,1.8,4,4.1,4.6c1.5,0.4,2.7,0.6,4.4,0.6c11,0,19.9-8.9,19.9-19.9V57.4h8.4c2.6,0,4.7-2,4.7-4.6c0-2.6-2.1-4.6-4.7-4.6h-6.9
		c-0.8,0-1.5-0.7-1.5-1.5v-9.1C52,31.7,56.7,27,62.5,27c2,0,2.5,0.3,3.8,0.3c2.8,0,4.7-1.9,4.7-4.5C71,20.6,69.1,18.8,66.9,18.2
		L66.9,18.2z M66.9,18.2"/>
</g>
</svg>
