<?xml version="1.0" encoding="utf-8"?>
<!-- Generator: Adobe Illustrator 25.2.0, SVG Export Plug-In . SVG Version: 6.00 Build 0)  -->
<svg version="1.1" xmlns="http://www.w3.org/2000/svg" xmlns:xlink="http://www.w3.org/1999/xlink" x="0px" y="0px"
	 viewBox="0 0 116 32" style="enable-background:new 0 0 116 32;" xml:space="preserve">
<style type="text/css">
	.st0{fill:#BBBBBB;}
	.st1{fill:#767676;}
	.st2{fill:#818181;}
</style>
<g id="图层_1">
	<path class="st0" d="M114.1,32H28.9c-1.7,0-2.6-2.1-1.4-3.3l14-15.5c0.6-0.7,0.7-1.7,0.1-2.5l-5.3-7.5c-0.9-1.3,0-3.1,1.6-3.1h76.2
		c1.1,0,1.9,0.9,1.9,2v28C116,31.1,115.1,32,114.1,32z"/>
	<g>
		<path class="st1" d="M59.3,9.4c-0.2-0.3-0.6-0.3-0.8,0c-0.3,0.4-0.7,0.8-1.1,1.3c-0.6,0.6-1.3,1.2-2,1.9c-0.7,0.6-1.5,1.2-2.3,1.8
			c-0.7,0.5-1.3,0.9-2,1.3c-0.2,0.1-0.5,0.1-0.7-0.2l-0.6-1.1c-0.1-0.2,0-0.5,0.2-0.7c0.8-0.4,1.5-0.9,2.2-1.4
			c0.8-0.6,1.6-1.2,2.4-1.8c0.7-0.6,1.4-1.2,2-1.9c0.5-0.6,1-1.1,1.4-1.7c0.1-0.1,0.2-0.2,0.4-0.2h1.2c0.2,0,0.3,0.1,0.4,0.2
			c0.9,1.3,2.1,2.5,3.4,3.6c1.3,1.1,2.8,2.1,4.5,3.1c0.2,0.1,0.3,0.4,0.2,0.7l-0.6,1.1c-0.1,0.2-0.4,0.3-0.7,0.2
			c-0.7-0.4-1.3-0.8-2-1.3c-0.8-0.6-1.6-1.2-2.3-1.8c-0.7-0.6-1.4-1.2-2-1.9C60,10.2,59.6,9.8,59.3,9.4z M60.6,22.4h6.2
			c0.3,0,0.5,0.2,0.5,0.5v1c0,0.3-0.2,0.5-0.5,0.5H50.6c-0.3,0-0.5-0.2-0.5-0.5v-1c0-0.3,0.2-0.5,0.5-0.5h1.7c0.3,0,0.5-0.2,0.5-0.5
			v-6.1c0-0.3,0.2-0.5,0.5-0.5l1,0c0.3,0,0.5,0.2,0.5,0.5v6.1c0,0.3,0.2,0.5,0.5,0.5h2.4c0.3,0,0.5-0.2,0.5-0.5v-9.1
			c0-0.3,0.2-0.5,0.5-0.5l1,0c0.3,0,0.5,0.2,0.5,0.5v3c0,0.3,0.2,0.5,0.5,0.5H65c0.3,0,0.5,0.2,0.5,0.5v1c0,0.3-0.2,0.5-0.5,0.5
			h-4.4c-0.3,0-0.5,0.2-0.5,0.5v3.2C60.1,22.2,60.4,22.4,60.6,22.4z"/>
		<path class="st1" d="M87.3,22.7v1c0,0.3-0.2,0.5-0.5,0.5H70.3c-0.3,0-0.5-0.2-0.5-0.5v-1c0-0.3,0.2-0.5,0.5-0.5h4.6
			c0.3,0,0.5-0.2,0.5-0.5v-2.6c0-0.4-0.4-0.6-0.7-0.4L74.2,19c-0.3,0.2-0.6,0-0.7-0.2c-0.2-0.5-0.3-0.9-0.5-1.4
			c-0.3-0.7-0.6-1.5-0.9-2.2c-0.3-0.7-0.6-1.4-0.9-2.1c-0.2-0.5-0.4-0.9-0.6-1.3c-0.1-0.2,0-0.5,0.2-0.6l1-0.5
			c0.2-0.1,0.5,0,0.6,0.2c0.2,0.3,0.3,0.7,0.5,1.1c0.3,0.6,0.6,1.3,0.9,2c0.3,0.7,0.6,1.4,0.9,2.1c0.3,0.7,0.5,1.3,0.7,1.8V7.6
			c0-0.3,0.2-0.5,0.5-0.5l1.1,0c0.3,0,0.5,0.2,0.5,0.5v14.1c0,0.3,0.2,0.5,0.5,0.5h1.1c0.3,0,0.5-0.2,0.5-0.5V7.6
			c0-0.3,0.2-0.5,0.5-0.5l1.1,0c0.3,0,0.5,0.2,0.5,0.5v10.3c0.3-0.6,0.6-1.2,0.9-1.9c0.3-0.7,0.6-1.3,0.9-2c0.3-0.7,0.6-1.3,0.8-2
			c0.2-0.4,0.3-0.9,0.5-1.3c0.1-0.3,0.4-0.4,0.7-0.3l1,0.5c0.2,0.1,0.3,0.4,0.3,0.6c-0.2,0.4-0.3,0.9-0.6,1.5
			c-0.3,0.7-0.6,1.4-0.9,2.2c-0.3,0.7-0.7,1.5-1,2.2c-0.3,0.5-0.5,1-0.7,1.4c-0.1,0.2-0.4,0.3-0.7,0.2l-1.2-0.6v3.2
			c0,0.3,0.2,0.5,0.5,0.5h4.6C87.1,22.2,87.3,22.4,87.3,22.7z"/>
		<path class="st1" d="M104,20.1c-0.1,0.2-0.1,0.4,0,0.6c0.4,0.5,0.9,0.9,1.4,1.4c0.5,0.4,1,0.8,1.6,1.2c0.2,0.1,0.3,0.4,0.2,0.6
			l-0.5,0.9c-0.1,0.3-0.5,0.3-0.7,0.2c-0.6-0.4-1.1-0.9-1.6-1.3c-0.5-0.4-0.9-0.9-1.4-1.4c-0.2-0.2-0.5-0.2-0.7,0
			c-0.5,0.5-1,1-1.5,1.4c-0.6,0.5-1.3,1-2,1.5c-0.2,0.1-0.5,0.1-0.7-0.1l-0.9-1.1c-0.1,0.1-0.1,0.2-0.2,0.4
			c-0.1,0.1-0.1,0.2-0.2,0.4l-1-0.7v0.9h-1.3c-0.3,0-0.5-0.2-0.5-0.5v-5.7c0-0.3-0.2-0.5-0.5-0.5H93c-0.3,0-0.5,0.2-0.5,0.5
			c0,0.6-0.1,1.2-0.2,1.7c-0.1,0.7-0.2,1.3-0.4,1.9s-0.3,1.2-0.5,1.7c-0.2,0.4-0.3,0.8-0.5,1.1c-0.1,0.3-0.5,0.4-0.7,0.2l-0.9-0.6
			c-0.2-0.1-0.3-0.4-0.2-0.6c0.3-0.5,0.5-0.9,0.7-1.4c0.2-0.6,0.4-1.2,0.6-1.9c0.1-0.7,0.2-1.5,0.3-2.4s0.1-2,0.1-3.2V7.9
			c0-0.3,0.2-0.5,0.5-0.5l0.9,0c0.3,0,0.5,0.2,0.5,0.5v4c0,0.3,0.2,0.5,0.5,0.5h0.6c0.3,0,0.5-0.2,0.5-0.5V7.5
			c0-0.3,0.2-0.5,0.5-0.5l0.8,0c0.3,0,0.5,0.2,0.5,0.5v4.8h1.2v1.4c0,0.3-0.2,0.5-0.5,0.5h-4.1v1.4v0.6h2.8c0.3,0,0.5,0.2,0.5,0.5
			v5.7c0.3-0.6,0.5-1.2,0.7-1.8c0.2-0.6,0.4-1.2,0.5-1.9c0.1-0.7,0.2-1.4,0.3-2.2c0.1-0.8,0.1-1.6,0.1-2.6V9c0-0.3,0.2-0.5,0.5-0.5
			c1.2-0.1,2.5-0.2,3.9-0.4c1.3-0.2,2.6-0.4,3.8-0.7c0.3-0.1,0.5,0.1,0.6,0.4l0.2,1c0,0.3-0.1,0.5-0.4,0.6c-0.4,0.1-0.8,0.2-1.3,0.3
			c-0.6,0.1-1.2,0.2-1.9,0.3c-0.6,0.1-1.2,0.2-1.9,0.3c-0.5,0.1-0.9,0.1-1.3,0.2c-0.2,0-0.4,0.2-0.4,0.5v1.1c0,0.3,0.2,0.5,0.5,0.5
			h6c0.3,0,0.5,0.2,0.5,0.5v1.4c0,0,0,0.1,0,0.1c-0.3,1.2-0.6,2.3-1,3.3C104.9,18.5,104.5,19.4,104,20.1z M97.5,23.6
			c1.6-1,2.9-2,3.8-3.1c0.1-0.2,0.2-0.4,0.1-0.6c-0.4-0.7-0.8-1.4-1.1-2.2c-0.3-0.7-0.5-1.5-0.7-2.4c0-0.2,0.1-0.5,0.3-0.6l0.7-0.2
			c0.3-0.1,0.6,0.1,0.6,0.4c0.2,1.1,0.5,2,0.9,2.9c0.2,0.4,0.7,0.4,0.9,0c0.4-0.9,0.8-1.9,1.1-3c0.1-0.3-0.2-0.6-0.5-0.6h-4
			c-0.3,0-0.5,0.2-0.5,0.5c0,0.9,0,1.6-0.1,2.4c-0.1,0.8-0.2,1.6-0.3,2.4c-0.1,0.7-0.3,1.4-0.5,2.1C98.1,22.2,97.8,22.9,97.5,23.6z"
			/>
	</g>
</g>
<g id="图层_2">
	<path class="st2" d="M18.7,31.8L0.2,12.2c-0.2-0.2-0.2-0.5,0-0.7L8.3,0.2C8.4,0.1,8.5,0,8.7,0h20.6c0.2,0,0.3,0.1,0.4,0.2l8.1,11.3
		c0.1,0.2,0.1,0.5,0,0.6L19.5,31.8C19.3,32.1,18.9,32.1,18.7,31.8z M13.7,10.1h10.7c0.4,0,0.6-0.4,0.4-0.8l-4-7
		C20.8,2.1,20.6,2,20.4,2h-2.6c-0.2,0-0.4,0.1-0.4,0.3l-4,7C13.1,9.6,13.3,10.1,13.7,10.1z M13.3,12.8l5.3,13.4c0.2,0.4,0.8,0.4,1,0
		l5.3-13.4c0.1-0.3-0.1-0.7-0.5-0.7H13.8C13.4,12.1,13.2,12.5,13.3,12.8z M33.8,9.3l-5.1-7C28.6,2.1,28.5,2,28.3,2h-4.5
		c-0.4,0-0.6,0.4-0.4,0.8l4,7c0.1,0.2,0.3,0.3,0.4,0.3h5.5C33.8,10.1,34.1,9.6,33.8,9.3z M34.2,12.1h-6.5c-0.2,0-0.4,0.1-0.5,0.3
		l-4.7,11.9c-0.2,0.5,0.5,1,0.9,0.5L34.6,13C34.9,12.6,34.7,12.1,34.2,12.1z M4.8,10.1h5.3c0.2,0,0.4-0.1,0.4-0.3l4-7
		C14.8,2.4,14.6,2,14.2,2H9.9C9.7,2,9.6,2.1,9.5,2.2l-5.1,7C4.1,9.6,4.4,10.1,4.8,10.1z M3.6,13l11.3,12c0.4,0.4,1.1,0,0.9-0.5
		l-4.6-12c-0.1-0.2-0.3-0.3-0.5-0.3l-6.7,0C3.5,12.1,3.3,12.6,3.6,13z"/>
</g>
</svg>
