<?xml version="1.0" encoding="utf-8"?>
<!-- Generator: Adobe Illustrator 25.2.0, SVG Export Plug-In . SVG Version: 6.00 Build 0)  -->
<svg version="1.1" xmlns="http://www.w3.org/2000/svg" xmlns:xlink="http://www.w3.org/1999/xlink" x="0px" y="0px"
	 viewBox="0 0 116 32" style="enable-background:new 0 0 116 32;" xml:space="preserve">
<style type="text/css">
	.st0{fill:#FBE239;}
	.st1{fill:#B68115;}
	.st2{fill:#C09311;}
</style>
<g id="图层_1">
	<path class="st0" d="M114.1,32H28.9c-1.7,0-2.6-2.1-1.4-3.3l14-15.5c0.6-0.7,0.7-1.7,0.1-2.5l-5.3-7.5c-0.9-1.3,0-3.1,1.6-3.1h76.2
		c1.1,0,1.9,0.9,1.9,2v28C116,31.1,115.1,32,114.1,32z"/>
	<g>
		<path class="st1" d="M56.4,15c-0.1,0.3-0.2,0.6-0.4,0.9c-0.1,0.3,0.1,0.7,0.5,0.7l8.6,0c0.3,0,0.5,0.2,0.5,0.5v1.1
			c0,0.1-0.1,0.3-0.2,0.4c-0.5,0.5-1.1,1-1.8,1.6c-0.7,0.7-1.4,1.3-2.1,2c0.6,0.2,1.1,0.4,1.6,0.6c0.3,0.1,0.7,0.3,1,0.4
			c0.2,0.1,0.3,0.4,0.3,0.6L64,24.9c-0.1,0.3-0.4,0.5-0.7,0.3c-0.6-0.3-1.4-0.6-2.1-0.9c-1-0.4-2-0.8-3.1-1.2
			c-1-0.4-2.1-0.8-3.1-1.1c-0.8-0.3-1.6-0.6-2.2-0.8c-0.3-0.1-0.4-0.4-0.3-0.6l0.3-0.9c0.1-0.3,0.4-0.4,0.6-0.3
			c0.7,0.2,1.6,0.5,2.5,0.8c1,0.4,2.1,0.7,3.2,1.1c0.2,0.1,0.4,0,0.5-0.1c0.5-0.4,1-0.9,1.5-1.3c0.6-0.5,1.1-1,1.5-1.4h-8.8
			c-0.3,0-0.5-0.2-0.5-0.5v-1c0-0.1,0-0.2,0.1-0.2c0.2-0.3,0.3-0.6,0.4-0.9c0.2-0.4,0.3-0.8,0.5-1.1h-3.8c-0.3,0-0.5-0.2-0.5-0.5
			v-0.9c0-0.3,0.2-0.5,0.5-0.5h4.2c0.2,0,0.4-0.1,0.5-0.3c0.1-0.3,0.2-0.6,0.3-0.9c-0.2-0.3-0.3-0.4-0.5-0.7h-3.2
			c-0.3,0-0.5-0.2-0.5-0.5V9.4c0-0.3,0.2-0.5,0.5-0.5h4.5c0.1-0.4,0.2-0.8,0.3-1.1c0.1-0.4,0.2-0.7,0.3-1.1l1.5,0.2
			c0.3,0,0.5,0.3,0.4,0.6c-0.1,0.2-0.1,0.5-0.2,0.7c0.2,0.3,0.3,0.4,0.5,0.7l6.5,0c0.3,0,0.5,0.2,0.5,0.5v0.9c0,0.3-0.2,0.5-0.5,0.5
			h-7.7c-0.1,0.3-0.2,0.7-0.3,1c-0.1,0.3-0.2,0.6-0.3,1h9.6c0.3,0,0.5,0.2,0.5,0.5v0.9c0,0.3-0.2,0.5-0.5,0.5h-10
			C56.7,14.6,56.5,14.8,56.4,15z"/>
		<path class="st1" d="M87.1,22.6v1c0,0.3-0.2,0.5-0.5,0.5H70.1c-0.3,0-0.5-0.2-0.5-0.5v-1c0-0.3,0.2-0.5,0.5-0.5h4.6
			c0.3,0,0.5-0.2,0.5-0.5V19c0-0.4-0.4-0.6-0.8-0.4l-0.5,0.3c-0.3,0.2-0.6,0-0.7-0.3c-0.2-0.4-0.3-0.9-0.5-1.4
			c-0.3-0.7-0.6-1.5-0.9-2.2c-0.3-0.7-0.6-1.4-0.9-2.1c-0.2-0.5-0.4-0.9-0.6-1.3c-0.1-0.3,0-0.6,0.2-0.7l1-0.5
			c0.3-0.1,0.6,0,0.7,0.2c0.2,0.3,0.3,0.7,0.5,1.1c0.3,0.6,0.6,1.3,0.9,2c0.3,0.7,0.6,1.4,0.9,2.1c0.3,0.7,0.5,1.3,0.7,1.8V7.5
			c0-0.3,0.2-0.5,0.5-0.5l1.1,0c0.3,0,0.5,0.2,0.5,0.5v14c0,0.3,0.2,0.5,0.5,0.5h1.1c0.3,0,0.5-0.2,0.5-0.5V7.5
			c0-0.3,0.2-0.5,0.5-0.5L81,7c0.3,0,0.5,0.2,0.5,0.5v10.3c0.3-0.6,0.6-1.2,0.9-1.9c0.3-0.7,0.6-1.3,0.9-2c0.3-0.7,0.6-1.3,0.8-2
			c0.2-0.4,0.3-0.9,0.5-1.3c0.1-0.3,0.4-0.4,0.7-0.3l1,0.5c0.2,0.1,0.4,0.4,0.3,0.6C86.4,12,86.2,12.5,86,13
			c-0.3,0.7-0.6,1.4-0.9,2.2c-0.3,0.7-0.7,1.5-1,2.2c-0.2,0.5-0.5,1-0.7,1.4c-0.1,0.3-0.4,0.3-0.7,0.2l-1.2-0.6v3.2
			c0,0.3,0.2,0.5,0.5,0.5h4.6C86.9,22.1,87.1,22.3,87.1,22.6z"/>
		<path class="st1" d="M103.8,20c-0.1,0.2-0.1,0.4,0,0.6c0.4,0.5,0.9,0.9,1.4,1.4c0.5,0.4,1,0.8,1.6,1.2c0.2,0.1,0.3,0.4,0.2,0.7
			l-0.5,0.9c-0.1,0.3-0.5,0.4-0.8,0.2c-0.6-0.4-1.1-0.9-1.6-1.3c-0.5-0.4-0.9-0.9-1.4-1.4c-0.2-0.2-0.5-0.2-0.7,0
			c-0.5,0.5-1,0.9-1.5,1.4c-0.6,0.5-1.2,1-2,1.5c-0.2,0.2-0.5,0.1-0.7-0.1l-0.8-1.1C97,24,97,24.1,96.9,24.2
			c-0.1,0.1-0.1,0.2-0.2,0.4l-1-0.7v0.9h-1.3c-0.3,0-0.5-0.2-0.5-0.5v-5.6c0-0.3-0.2-0.5-0.5-0.5h-0.5c-0.3,0-0.5,0.2-0.5,0.5
			c0,0.6-0.1,1.1-0.2,1.7c-0.1,0.7-0.2,1.3-0.4,1.9s-0.3,1.2-0.5,1.7c-0.2,0.4-0.3,0.7-0.5,1.1c-0.1,0.3-0.5,0.4-0.7,0.2l-0.9-0.6
			c-0.2-0.1-0.3-0.4-0.2-0.7c0.3-0.5,0.5-0.9,0.7-1.4c0.2-0.6,0.4-1.2,0.6-1.9c0.1-0.7,0.2-1.5,0.3-2.4s0.1-2,0.1-3.2V7.8
			c0-0.3,0.2-0.5,0.5-0.5l0.8,0c0.3,0,0.5,0.2,0.5,0.5v4c0,0.3,0.2,0.5,0.5,0.5h0.5c0.3,0,0.5-0.2,0.5-0.5V7.4
			c0-0.3,0.2-0.5,0.5-0.5l0.8,0c0.3,0,0.5,0.2,0.5,0.5v4.8H97v1.4c0,0.3-0.2,0.5-0.5,0.5h-4.1v1.4v0.6h2.8c0.3,0,0.5,0.2,0.5,0.5
			v5.6c0.3-0.6,0.5-1.2,0.7-1.8c0.2-0.6,0.4-1.2,0.5-1.9c0.1-0.7,0.2-1.4,0.3-2.2c0.1-0.8,0.1-1.6,0.1-2.6V8.9
			c0-0.3,0.2-0.5,0.5-0.5c1.2-0.1,2.5-0.2,3.9-0.4c1.3-0.2,2.6-0.4,3.8-0.7c0.3-0.1,0.6,0.1,0.6,0.4l0.2,1c0,0.3-0.1,0.5-0.4,0.6
			c-0.4,0.1-0.8,0.2-1.3,0.2c-0.6,0.1-1.2,0.2-1.9,0.3c-0.6,0.1-1.2,0.2-1.9,0.3c-0.4,0.1-0.9,0.1-1.3,0.2c-0.3,0-0.4,0.2-0.4,0.5
			v1.1c0,0.3,0.2,0.5,0.5,0.5h6c0.3,0,0.5,0.2,0.5,0.5v1.4c0,0,0,0.1,0,0.1c-0.3,1.2-0.6,2.3-1,3.3C104.7,18.4,104.3,19.3,103.8,20z
			 M97.2,23.5c1.6-1,2.9-2,3.8-3.1c0.2-0.2,0.2-0.4,0.1-0.6c-0.4-0.7-0.8-1.4-1-2.2c-0.3-0.7-0.5-1.5-0.6-2.4c0-0.3,0.1-0.5,0.4-0.6
			l0.6-0.2c0.3-0.1,0.6,0.1,0.6,0.4c0.2,1,0.5,2,0.9,2.8c0.2,0.4,0.7,0.4,0.9,0c0.4-0.9,0.8-1.9,1.1-2.9c0.1-0.3-0.2-0.6-0.5-0.6
			h-3.9c-0.3,0-0.5,0.2-0.5,0.5c0,0.9,0,1.6-0.1,2.3c-0.1,0.8-0.2,1.6-0.3,2.4c-0.1,0.7-0.3,1.4-0.5,2.1
			C97.8,22.1,97.6,22.8,97.2,23.5z"/>
	</g>
</g>
<g id="图层_2">
	<path class="st2" d="M18.7,31.8L0.2,12.2c-0.2-0.2-0.2-0.5,0-0.7L8.3,0.2C8.4,0.1,8.5,0,8.7,0h20.6c0.2,0,0.3,0.1,0.4,0.2l8.1,11.3
		c0.1,0.2,0.1,0.5,0,0.6L19.5,31.8C19.3,32.1,18.9,32.1,18.7,31.8z M13.7,10.1h10.7c0.4,0,0.6-0.4,0.4-0.8l-4-7
		C20.8,2.1,20.6,2,20.4,2h-2.6c-0.2,0-0.4,0.1-0.4,0.3l-4,7C13.1,9.6,13.3,10.1,13.7,10.1z M13.3,12.8l5.3,13.4c0.2,0.4,0.8,0.4,1,0
		l5.3-13.4c0.1-0.3-0.1-0.7-0.5-0.7H13.8C13.4,12.1,13.2,12.5,13.3,12.8z M33.8,9.3l-5.1-7C28.6,2.1,28.5,2,28.3,2h-4.5
		c-0.4,0-0.6,0.4-0.4,0.8l4,7c0.1,0.2,0.3,0.3,0.4,0.3h5.5C33.8,10.1,34.1,9.6,33.8,9.3z M34.2,12.1h-6.5c-0.2,0-0.4,0.1-0.5,0.3
		l-4.7,11.9c-0.2,0.5,0.5,1,0.9,0.5L34.6,13C34.9,12.6,34.7,12.1,34.2,12.1z M4.8,10.1h5.3c0.2,0,0.4-0.1,0.4-0.3l4-7
		C14.8,2.4,14.6,2,14.2,2H9.9C9.7,2,9.6,2.1,9.5,2.2l-5.1,7C4.1,9.6,4.4,10.1,4.8,10.1z M3.6,13l11.3,12c0.4,0.4,1.1,0,0.9-0.5
		l-4.6-12c-0.1-0.2-0.3-0.3-0.5-0.3l-6.7,0C3.5,12.1,3.3,12.6,3.6,13z"/>
</g>
</svg>
