<?xml version="1.0" encoding="iso-8859-1"?>
<!-- Generator: Adobe Illustrator 25.2.0, SVG Export Plug-In . SVG Version: 6.00 Build 0)  -->
<svg version="1.1" id="&#x56FE;&#x5C42;_1" xmlns="http://www.w3.org/2000/svg" xmlns:xlink="http://www.w3.org/1999/xlink" x="0px"
	 y="0px" viewBox="0 0 30 30" style="enable-background:new 0 0 30 30;" xml:space="preserve">
<g>
	<path style="fill:#09BB07;" d="M10.916,18.378c-0.138,0.068-0.279,0.101-0.45,0.101c-0.383,0-0.696-0.202-0.871-0.506L9.525,17.84
		l-2.746-5.806c-0.034-0.068-0.034-0.134-0.034-0.202c0-0.271,0.208-0.473,0.487-0.473c0.104,0,0.208,0.033,0.313,0.101l3.233,2.228
		c0.242,0.134,0.521,0.235,0.833,0.235c0.175,0,0.346-0.033,0.521-0.101l15.161-6.547c-2.712-3.105-7.196-5.131-12.274-5.131
		C6.745,2.143,0,7.577,0,14.291c0,3.644,2.017,6.951,5.179,9.179c0.242,0.17,0.417,0.473,0.417,0.776
		c0,0.101-0.034,0.202-0.071,0.303c-0.242,0.91-0.662,2.398-0.662,2.463c-0.034,0.101-0.071,0.235-0.071,0.372
		c0,0.271,0.209,0.473,0.487,0.473c0.104,0,0.208-0.033,0.279-0.101L8.826,25.9c0.242-0.134,0.521-0.235,0.8-0.235
		c0.138,0,0.312,0.033,0.45,0.069c1.529,0.437,3.2,0.675,4.904,0.675c8.275,0,15.02-5.435,15.02-12.148
		c0-2.026-0.625-3.947-1.704-5.637l-17.275,9.685L10.916,18.378L10.916,18.378z M10.916,18.378"/>
</g>
</svg>
