<svg width="17.142860" height="20.000000" viewBox="0 0 17.1429 20" fill="none" xmlns="http://www.w3.org/2000/svg" xmlns:xlink="http://www.w3.org/1999/xlink">
	<desc>
			Created with Pixso.
	</desc>
	<path id="path" d="M9.28571 0.106572L16.4286 3.51687C16.8571 3.80107 17.1429 4.22735 17.1429 4.79574L17.1429 8.91652C17.1429 10.1954 16.8571 11.3321 16.4286 12.611C16 13.7478 15.4286 14.8845 14.7143 15.8792C14 16.8739 13 17.8686 12 18.579C11 19.2895 9.85714 19.7158 8.57143 20C7.28571 19.7158 6.14286 19.2895 5.14286 18.579C4.14286 17.8686 3.14286 16.8739 2.42857 15.8792C1.71429 14.8845 1.14286 13.8899 0.714287 12.611C0.285713 11.3321 0 10.0533 0 8.77442L0 4.79574C0 4.22735 0.285713 3.80107 0.714287 3.51687L7.85714 0.106572C8.28571 -0.0355244 8.85714 -0.0355244 9.28571 0.106572ZM8.57143 1.66963L1.42857 4.93783L1.42857 8.77442C1.42857 9.91119 1.57143 10.9059 2 12.0426C2.42857 13.0373 2.85714 14.032 3.57143 14.8845C4.42857 16.0213 5.14286 16.7318 6 17.3002C6.71429 17.7265 7.57143 18.1528 8.57143 18.4369C9.57143 18.1528 10.4286 17.7265 11.1429 17.3002C11.8571 16.7318 12.7143 16.0213 13.5714 14.8845C14.2857 14.032 14.7143 13.1794 15.1429 12.0426C15.5714 10.9059 15.7143 9.91119 15.7143 8.77442L15.7143 4.93783L8.57143 1.66963Z" fill-rule="evenodd" fill="#20A53A" fill-opacity="0.800000"/>
	<path id="path" d="M13.5223 7.39317C13.1851 7.05942 12.8478 7.05942 12.5105 7.39317L7.62672 12.277L5.54672 10.1985C5.20945 9.86473 4.87217 9.86473 4.53489 10.1985C4.20265 10.5353 4.20265 10.872 4.53489 11.2088L7.12083 13.7947C7.45809 14.127 7.79535 14.127 8.13261 13.7947L13.5224 8.40343C13.8561 8.06616 13.8561 7.73044 13.5223 7.39317Z" fill-rule="evenodd" fill="#20A53A" fill-opacity="0.800000"/>
	<defs/>
</svg>
