<?xml version="1.0" standalone="no"?><!DOCTYPE svg PUBLIC "-//W3C//DTD SVG 1.1//EN" "http://www.w3.org/Graphics/SVG/1.1/DTD/svg11.dtd"><svg t="1658825125755" class="icon" viewBox="0 0 1024 1024" version="1.1" xmlns="http://www.w3.org/2000/svg" p-id="22658" xmlns:xlink="http://www.w3.org/1999/xlink" width="20" height="20"><defs><style type="text/css">@font-face { font-family: feedback-iconfont; src: url("//at.alicdn.com/t/font_1031158_u69w8yhxdu.woff2?t=1630033759944") format("woff2"), url("//at.alicdn.com/t/font_1031158_u69w8yhxdu.woff?t=1630033759944") format("woff"), url("//at.alicdn.com/t/font_1031158_u69w8yhxdu.ttf?t=1630033759944") format("truetype"); }
</style></defs><path d="M609.581176 947.501176 109.025882 947.501176c-15.058824 0-27.708235-9.035294-27.708235-18.672941L81.317647 126.494118c0-10.24 13.251765-18.672941 27.708235-18.672941L162.635294 107.821176c9.637647 0 16.865882-7.830588 16.865882-16.865882 0-9.637647-7.830588-16.865882-16.865882-16.865882l-53.609412 0c-34.334118 0-62.042353 23.491765-62.042353 53.007059l0 801.731765c0 28.912941 27.708235 53.007059 62.042353 53.007059l500.555294 0c9.637647 0 16.865882-7.830588 16.865882-16.865882S619.218824 947.501176 609.581176 947.501176zM758.964706 107.821176l39.755294 0c15.058824 0 27.708235 9.035294 27.708235 18.672941l0 381.891765c0 9.637647 7.830588 16.865882 16.865882 16.865882 9.637647 0 16.865882-7.830588 16.865882-16.865882L860.16 126.494118c0-28.912941-27.708235-53.007059-62.042353-53.007059L758.964706 73.487059c-9.637647 0-16.865882 7.830588-16.865882 16.865882C742.098824 99.990588 749.327059 107.821176 758.964706 107.821176zM771.011765 349.364706c0-9.637647-7.830588-16.865882-16.865882-16.865882L156.611765 332.498824c-9.637647 0-16.865882 7.830588-16.865882 16.865882 0 9.637647 7.830588 16.865882 16.865882 16.865882l597.534118 0C763.783529 366.832941 771.011765 359.002353 771.011765 349.364706zM615.002353 554.767059c0-9.637647-7.830588-16.865882-16.865882-16.865882L156.611765 537.901176c-9.637647 0-16.865882 7.830588-16.865882 16.865882 0 9.637647 7.830588 16.865882 16.865882 16.865882l441.524706 0C607.774118 571.632941 615.002353 563.802353 615.002353 554.767059zM156.611765 742.098824c-9.637647 0-16.865882 7.830588-16.865882 16.865882 0 9.637647 7.830588 16.865882 16.865882 16.865882l360.207059 0c9.637647 0 16.865882-7.830588 16.865882-16.865882 0-9.637647-7.830588-16.865882-16.865882-16.865882L156.611765 742.098824zM239.134118 144.564706l438.512941 0c28.310588 0 51.802353-23.491765 51.802353-51.802353l0-4.216471c0-28.310588-23.491765-51.802353-51.802353-51.802353L239.134118 36.743529c-28.310588 0-51.802353 23.491765-51.802353 51.802353l0 4.216471C187.331765 121.675294 210.823529 144.564706 239.134118 144.564706zM244.555294 73.487059l428.272941 0c9.637647 0 16.865882 7.830588 16.865882 16.865882 0 9.637647-7.830588 16.865882-16.865882 16.865882L244.555294 107.218824c-9.637647 0-16.865882-7.830588-16.865882-16.865882C227.087059 81.317647 234.917647 73.487059 244.555294 73.487059zM786.070588 542.72c-119.868235 0-216.847059 97.581176-216.847059 216.847059s97.581176 216.847059 216.847059 216.847059 216.847059-97.581176 216.847059-216.847059S905.336471 542.72 786.070588 542.72zM786.070588 953.524706c-107.218824 0-193.957647-87.341176-193.957647-193.957647 0-107.218824 87.341176-193.957647 193.957647-193.957647s193.957647 87.341176 193.957647 193.957647C980.028235 866.183529 892.687059 953.524706 786.070588 953.524706zM884.254118 680.056471l-120.470588 122.88-77.101176-72.884706c-6.625882-6.625882-17.468235-6.023529-24.094118 0.602353-6.625882 6.625882-6.023529 17.468235 0.602353 24.094118l101.195294 95.774118 143.962353-146.371765c6.625882-6.625882 6.625882-17.468235 0-24.094118C901.722353 673.430588 890.88 673.430588 884.254118 680.056471z" p-id="22659"></path></svg>