<?xml version="1.0" standalone="no"?><!DOCTYPE svg PUBLIC "-//W3C//DTD SVG 1.1//EN" "http://www.w3.org/Graphics/SVG/1.1/DTD/svg11.dtd"><svg t="1658824584539" class="icon" viewBox="0 0 1024 1024" version="1.1" xmlns="http://www.w3.org/2000/svg" p-id="10956" width="20" height="20" xmlns:xlink="http://www.w3.org/1999/xlink"><defs><style type="text/css">@font-face { font-family: feedback-iconfont; src: url("//at.alicdn.com/t/font_1031158_u69w8yhxdu.woff2?t=1630033759944") format("woff2"), url("//at.alicdn.com/t/font_1031158_u69w8yhxdu.woff?t=1630033759944") format("woff"), url("//at.alicdn.com/t/font_1031158_u69w8yhxdu.ttf?t=1630033759944") format("truetype"); }
</style></defs><path d="M665.6 656.564706C771.011765 602.352941 843.294118 487.905882 843.294118 361.411765 843.294118 177.694118 695.717647 27.105882 512 27.105882S180.705882 174.682353 180.705882 358.4c0 126.494118 72.282353 243.952941 177.694118 298.164706C183.717647 707.764706 60.235294 852.329412 60.235294 1002.917647h60.235294c0-180.705882 174.682353-301.176471 391.529412-301.176471s391.529412 120.470588 391.529412 301.176471h60.235294c0-150.588235-123.482353-295.152941-298.164706-346.352941zM240.941176 358.4c0-150.588235 120.470588-271.058824 271.058824-271.058824s271.058824 120.470588 271.058824 271.058824-120.470588 271.058824-271.058824 271.058824-271.058824-123.482353-271.058824-271.058824z" fill="#333333" p-id="10957"></path></svg>